<?xml version="1.0" encoding="utf-8" standalone="no"?>
<!DOCTYPE svg PUBLIC "-//W3C//DTD SVG 1.1//EN"
  "http://www.w3.org/Graphics/SVG/1.1/DTD/svg11.dtd">
<svg xmlns:xlink="http://www.w3.org/1999/xlink" width="456.037031pt" height="304.427062pt" viewBox="0 0 456.037031 304.427062" xmlns="http://www.w3.org/2000/svg" version="1.1">
 <metadata>
  <rdf:RDF xmlns:dc="http://purl.org/dc/elements/1.1/" xmlns:cc="http://creativecommons.org/ns#" xmlns:rdf="http://www.w3.org/1999/02/22-rdf-syntax-ns#">
   <cc:Work>
    <dc:type rdf:resource="http://purl.org/dc/dcmitype/StillImage"/>
    <dc:date>2026-07-15T22:35:44.845592</dc:date>
    <dc:format>image/svg+xml</dc:format>
    <dc:creator>
     <cc:Agent>
      <dc:title>Matplotlib v3.10.1, https://matplotlib.org/</dc:title>
     </cc:Agent>
    </dc:creator>
   </cc:Work>
  </rdf:RDF>
 </metadata>
 <defs>
  <style type="text/css">*{stroke-linejoin: round; stroke-linecap: butt}</style>
 </defs>
 <g id="figure_1">
  <g id="patch_1">
   <path d="M 0 304.427062 
L 456.037031 304.427062 
L 456.037031 0 
L 0 0 
z
" style="fill: #ffffff"/>
  </g>
  <g id="axes_1">
   <g id="patch_2">
    <path d="M 42.598906 272.24 
L 448.837031 272.24 
L 448.837031 7.2 
L 42.598906 7.2 
z
" style="fill: #ffffff"/>
   </g>
   <g id="matplotlib.axis_1">
    <g id="xtick_1">
     <g id="line2d_1">
      <path d="M 77.850975 272.24 
L 77.850975 7.2 
" clip-path="url(#p5b3474627c)" style="fill: none; stroke: #e1e0d9; stroke-width: 0.6; stroke-linecap: square"/>
     </g>
     <g id="line2d_2">
      <defs>
       <path id="ma63a1d31e6" d="M 0 0 
L 0 3.5 
" style="stroke: #898781; stroke-width: 0.8"/>
      </defs>
      <g>
       <use xlink:href="#ma63a1d31e6" x="77.850975" y="272.24" style="fill: #898781; stroke: #898781; stroke-width: 0.8"/>
      </g>
     </g>
     <g id="text_1">
      <!-- Base -->
      <g style="fill: #898781" transform="translate(67.594491 285.682031) scale(0.09 -0.09)">
       <defs>
        <path id="ArialMT-42" d="M 469 0 
L 469 4581 
L 2188 4581 
Q 2713 4581 3030 4442 
Q 3347 4303 3526 4014 
Q 3706 3725 3706 3409 
Q 3706 3116 3547 2856 
Q 3388 2597 3066 2438 
Q 3481 2316 3704 2022 
Q 3928 1728 3928 1328 
Q 3928 1006 3792 729 
Q 3656 453 3456 303 
Q 3256 153 2954 76 
Q 2653 0 2216 0 
L 469 0 
z
M 1075 2656 
L 2066 2656 
Q 2469 2656 2644 2709 
Q 2875 2778 2992 2937 
Q 3109 3097 3109 3338 
Q 3109 3566 3000 3739 
Q 2891 3913 2687 3977 
Q 2484 4041 1991 4041 
L 1075 4041 
L 1075 2656 
z
M 1075 541 
L 2216 541 
Q 2509 541 2628 563 
Q 2838 600 2978 687 
Q 3119 775 3209 942 
Q 3300 1109 3300 1328 
Q 3300 1584 3169 1773 
Q 3038 1963 2805 2039 
Q 2572 2116 2134 2116 
L 1075 2116 
L 1075 541 
z
" transform="scale(0.015625)"/>
        <path id="ArialMT-61" d="M 2588 409 
Q 2275 144 1986 34 
Q 1697 -75 1366 -75 
Q 819 -75 525 192 
Q 231 459 231 875 
Q 231 1119 342 1320 
Q 453 1522 633 1644 
Q 813 1766 1038 1828 
Q 1203 1872 1538 1913 
Q 2219 1994 2541 2106 
Q 2544 2222 2544 2253 
Q 2544 2597 2384 2738 
Q 2169 2928 1744 2928 
Q 1347 2928 1158 2789 
Q 969 2650 878 2297 
L 328 2372 
Q 403 2725 575 2942 
Q 747 3159 1072 3276 
Q 1397 3394 1825 3394 
Q 2250 3394 2515 3294 
Q 2781 3194 2906 3042 
Q 3031 2891 3081 2659 
Q 3109 2516 3109 2141 
L 3109 1391 
Q 3109 606 3145 398 
Q 3181 191 3288 0 
L 2700 0 
Q 2613 175 2588 409 
z
M 2541 1666 
Q 2234 1541 1622 1453 
Q 1275 1403 1131 1340 
Q 988 1278 909 1158 
Q 831 1038 831 891 
Q 831 666 1001 516 
Q 1172 366 1500 366 
Q 1825 366 2078 508 
Q 2331 650 2450 897 
Q 2541 1088 2541 1459 
L 2541 1666 
z
" transform="scale(0.015625)"/>
        <path id="ArialMT-73" d="M 197 991 
L 753 1078 
Q 800 744 1014 566 
Q 1228 388 1613 388 
Q 2000 388 2187 545 
Q 2375 703 2375 916 
Q 2375 1106 2209 1216 
Q 2094 1291 1634 1406 
Q 1016 1563 777 1677 
Q 538 1791 414 1992 
Q 291 2194 291 2438 
Q 291 2659 392 2848 
Q 494 3038 669 3163 
Q 800 3259 1026 3326 
Q 1253 3394 1513 3394 
Q 1903 3394 2198 3281 
Q 2494 3169 2634 2976 
Q 2775 2784 2828 2463 
L 2278 2388 
Q 2241 2644 2061 2787 
Q 1881 2931 1553 2931 
Q 1166 2931 1000 2803 
Q 834 2675 834 2503 
Q 834 2394 903 2306 
Q 972 2216 1119 2156 
Q 1203 2125 1616 2013 
Q 2213 1853 2448 1751 
Q 2684 1650 2818 1456 
Q 2953 1263 2953 975 
Q 2953 694 2789 445 
Q 2625 197 2315 61 
Q 2006 -75 1616 -75 
Q 969 -75 630 194 
Q 291 463 197 991 
z
" transform="scale(0.015625)"/>
        <path id="ArialMT-65" d="M 2694 1069 
L 3275 997 
Q 3138 488 2766 206 
Q 2394 -75 1816 -75 
Q 1088 -75 661 373 
Q 234 822 234 1631 
Q 234 2469 665 2931 
Q 1097 3394 1784 3394 
Q 2450 3394 2872 2941 
Q 3294 2488 3294 1666 
Q 3294 1616 3291 1516 
L 816 1516 
Q 847 969 1125 678 
Q 1403 388 1819 388 
Q 2128 388 2347 550 
Q 2566 713 2694 1069 
z
M 847 1978 
L 2700 1978 
Q 2663 2397 2488 2606 
Q 2219 2931 1791 2931 
Q 1403 2931 1139 2672 
Q 875 2413 847 1978 
z
" transform="scale(0.015625)"/>
       </defs>
       <use xlink:href="#ArialMT-42"/>
       <use xlink:href="#ArialMT-61" transform="translate(66.699219 0)"/>
       <use xlink:href="#ArialMT-73" transform="translate(122.314453 0)"/>
       <use xlink:href="#ArialMT-65" transform="translate(172.314453 0)"/>
      </g>
      <!-- (+0.0°C) -->
      <g style="fill: #898781" transform="translate(60.921834 295.332844) scale(0.09 -0.09)">
       <defs>
        <path id="ArialMT-28" d="M 1497 -1347 
Q 1031 -759 709 28 
Q 388 816 388 1659 
Q 388 2403 628 3084 
Q 909 3875 1497 4659 
L 1900 4659 
Q 1522 4009 1400 3731 
Q 1209 3300 1100 2831 
Q 966 2247 966 1656 
Q 966 153 1900 -1347 
L 1497 -1347 
z
" transform="scale(0.015625)"/>
        <path id="ArialMT-2b" d="M 1603 741 
L 1603 1997 
L 356 1997 
L 356 2522 
L 1603 2522 
L 1603 3769 
L 2134 3769 
L 2134 2522 
L 3381 2522 
L 3381 1997 
L 2134 1997 
L 2134 741 
L 1603 741 
z
" transform="scale(0.015625)"/>
        <path id="ArialMT-30" d="M 266 2259 
Q 266 3072 433 3567 
Q 600 4063 929 4331 
Q 1259 4600 1759 4600 
Q 2128 4600 2406 4451 
Q 2684 4303 2865 4023 
Q 3047 3744 3150 3342 
Q 3253 2941 3253 2259 
Q 3253 1453 3087 958 
Q 2922 463 2592 192 
Q 2263 -78 1759 -78 
Q 1097 -78 719 397 
Q 266 969 266 2259 
z
M 844 2259 
Q 844 1131 1108 757 
Q 1372 384 1759 384 
Q 2147 384 2411 759 
Q 2675 1134 2675 2259 
Q 2675 3391 2411 3762 
Q 2147 4134 1753 4134 
Q 1366 4134 1134 3806 
Q 844 3388 844 2259 
z
" transform="scale(0.015625)"/>
        <path id="ArialMT-2e" d="M 581 0 
L 581 641 
L 1222 641 
L 1222 0 
L 581 0 
z
" transform="scale(0.015625)"/>
        <path id="ArialMT-b0" d="M 400 3794 
Q 400 4153 654 4406 
Q 909 4659 1266 4659 
Q 1628 4659 1881 4406 
Q 2134 4153 2134 3794 
Q 2134 3434 1879 3179 
Q 1625 2925 1266 2925 
Q 909 2925 654 3178 
Q 400 3431 400 3794 
z
M 741 3794 
Q 741 3575 895 3420 
Q 1050 3266 1269 3266 
Q 1484 3266 1639 3420 
Q 1794 3575 1794 3794 
Q 1794 4013 1639 4167 
Q 1484 4322 1269 4322 
Q 1050 4322 895 4167 
Q 741 4013 741 3794 
z
" transform="scale(0.015625)"/>
        <path id="ArialMT-43" d="M 3763 1606 
L 4369 1453 
Q 4178 706 3683 314 
Q 3188 -78 2472 -78 
Q 1731 -78 1267 223 
Q 803 525 561 1097 
Q 319 1669 319 2325 
Q 319 3041 592 3573 
Q 866 4106 1370 4382 
Q 1875 4659 2481 4659 
Q 3169 4659 3637 4309 
Q 4106 3959 4291 3325 
L 3694 3184 
Q 3534 3684 3231 3912 
Q 2928 4141 2469 4141 
Q 1941 4141 1586 3887 
Q 1231 3634 1087 3207 
Q 944 2781 944 2328 
Q 944 1744 1114 1308 
Q 1284 872 1643 656 
Q 2003 441 2422 441 
Q 2931 441 3284 734 
Q 3638 1028 3763 1606 
z
" transform="scale(0.015625)"/>
        <path id="ArialMT-29" d="M 791 -1347 
L 388 -1347 
Q 1322 153 1322 1656 
Q 1322 2244 1188 2822 
Q 1081 3291 891 3722 
Q 769 4003 388 4659 
L 791 4659 
Q 1378 3875 1659 3084 
Q 1900 2403 1900 1659 
Q 1900 816 1576 28 
Q 1253 -759 791 -1347 
z
" transform="scale(0.015625)"/>
       </defs>
       <use xlink:href="#ArialMT-28"/>
       <use xlink:href="#ArialMT-2b" transform="translate(33.300781 0)"/>
       <use xlink:href="#ArialMT-30" transform="translate(91.699219 0)"/>
       <use xlink:href="#ArialMT-2e" transform="translate(147.314453 0)"/>
       <use xlink:href="#ArialMT-30" transform="translate(175.097656 0)"/>
       <use xlink:href="#ArialMT-b0" transform="translate(230.712891 0)"/>
       <use xlink:href="#ArialMT-43" transform="translate(270.703125 0)"/>
       <use xlink:href="#ArialMT-29" transform="translate(342.919922 0)"/>
      </g>
     </g>
    </g>
    <g id="xtick_2">
     <g id="line2d_3">
      <path d="M 119.817723 272.24 
L 119.817723 7.2 
" clip-path="url(#p5b3474627c)" style="fill: none; stroke: #e1e0d9; stroke-width: 0.6; stroke-linecap: square"/>
     </g>
     <g id="line2d_4">
      <g>
       <use xlink:href="#ma63a1d31e6" x="119.817723" y="272.24" style="fill: #898781; stroke: #898781; stroke-width: 0.8"/>
      </g>
     </g>
     <g id="text_2">
      <!-- S5 -->
      <g style="fill: #898781" transform="translate(114.313661 285.682031) scale(0.09 -0.09)">
       <defs>
        <path id="ArialMT-53" d="M 288 1472 
L 859 1522 
Q 900 1178 1048 958 
Q 1197 738 1509 602 
Q 1822 466 2213 466 
Q 2559 466 2825 569 
Q 3091 672 3220 851 
Q 3350 1031 3350 1244 
Q 3350 1459 3225 1620 
Q 3100 1781 2813 1891 
Q 2628 1963 1997 2114 
Q 1366 2266 1113 2400 
Q 784 2572 623 2826 
Q 463 3081 463 3397 
Q 463 3744 659 4045 
Q 856 4347 1234 4503 
Q 1613 4659 2075 4659 
Q 2584 4659 2973 4495 
Q 3363 4331 3572 4012 
Q 3781 3694 3797 3291 
L 3216 3247 
Q 3169 3681 2898 3903 
Q 2628 4125 2100 4125 
Q 1550 4125 1298 3923 
Q 1047 3722 1047 3438 
Q 1047 3191 1225 3031 
Q 1400 2872 2139 2705 
Q 2878 2538 3153 2413 
Q 3553 2228 3743 1945 
Q 3934 1663 3934 1294 
Q 3934 928 3725 604 
Q 3516 281 3123 101 
Q 2731 -78 2241 -78 
Q 1619 -78 1198 103 
Q 778 284 539 648 
Q 300 1013 288 1472 
z
" transform="scale(0.015625)"/>
        <path id="ArialMT-35" d="M 266 1200 
L 856 1250 
Q 922 819 1161 601 
Q 1400 384 1738 384 
Q 2144 384 2425 690 
Q 2706 997 2706 1503 
Q 2706 1984 2436 2262 
Q 2166 2541 1728 2541 
Q 1456 2541 1237 2417 
Q 1019 2294 894 2097 
L 366 2166 
L 809 4519 
L 3088 4519 
L 3088 3981 
L 1259 3981 
L 1013 2750 
Q 1425 3038 1878 3038 
Q 2478 3038 2890 2622 
Q 3303 2206 3303 1553 
Q 3303 931 2941 478 
Q 2500 -78 1738 -78 
Q 1113 -78 717 272 
Q 322 622 266 1200 
z
" transform="scale(0.015625)"/>
       </defs>
       <use xlink:href="#ArialMT-53"/>
       <use xlink:href="#ArialMT-35" transform="translate(66.699219 0)"/>
      </g>
      <!-- (+1.3°C) -->
      <g style="fill: #898781" transform="translate(102.888583 295.332844) scale(0.09 -0.09)">
       <defs>
        <path id="ArialMT-31" d="M 2384 0 
L 1822 0 
L 1822 3584 
Q 1619 3391 1289 3197 
Q 959 3003 697 2906 
L 697 3450 
Q 1169 3672 1522 3987 
Q 1875 4303 2022 4600 
L 2384 4600 
L 2384 0 
z
" transform="scale(0.015625)"/>
        <path id="ArialMT-33" d="M 269 1209 
L 831 1284 
Q 928 806 1161 595 
Q 1394 384 1728 384 
Q 2125 384 2398 659 
Q 2672 934 2672 1341 
Q 2672 1728 2419 1979 
Q 2166 2231 1775 2231 
Q 1616 2231 1378 2169 
L 1441 2663 
Q 1497 2656 1531 2656 
Q 1891 2656 2178 2843 
Q 2466 3031 2466 3422 
Q 2466 3731 2256 3934 
Q 2047 4138 1716 4138 
Q 1388 4138 1169 3931 
Q 950 3725 888 3313 
L 325 3413 
Q 428 3978 793 4289 
Q 1159 4600 1703 4600 
Q 2078 4600 2393 4439 
Q 2709 4278 2876 4000 
Q 3044 3722 3044 3409 
Q 3044 3113 2884 2869 
Q 2725 2625 2413 2481 
Q 2819 2388 3044 2092 
Q 3269 1797 3269 1353 
Q 3269 753 2831 336 
Q 2394 -81 1725 -81 
Q 1122 -81 723 278 
Q 325 638 269 1209 
z
" transform="scale(0.015625)"/>
       </defs>
       <use xlink:href="#ArialMT-28"/>
       <use xlink:href="#ArialMT-2b" transform="translate(33.300781 0)"/>
       <use xlink:href="#ArialMT-31" transform="translate(91.699219 0)"/>
       <use xlink:href="#ArialMT-2e" transform="translate(147.314453 0)"/>
       <use xlink:href="#ArialMT-33" transform="translate(175.097656 0)"/>
       <use xlink:href="#ArialMT-b0" transform="translate(230.712891 0)"/>
       <use xlink:href="#ArialMT-43" transform="translate(270.703125 0)"/>
       <use xlink:href="#ArialMT-29" transform="translate(342.919922 0)"/>
      </g>
     </g>
    </g>
    <g id="xtick_3">
     <g id="line2d_5">
      <path d="M 161.784472 272.24 
L 161.784472 7.2 
" clip-path="url(#p5b3474627c)" style="fill: none; stroke: #e1e0d9; stroke-width: 0.6; stroke-linecap: square"/>
     </g>
     <g id="line2d_6">
      <g>
       <use xlink:href="#ma63a1d31e6" x="161.784472" y="272.24" style="fill: #898781; stroke: #898781; stroke-width: 0.8"/>
      </g>
     </g>
     <g id="text_3">
      <!-- S7 -->
      <g style="fill: #898781" transform="translate(156.280409 285.682031) scale(0.09 -0.09)">
       <defs>
        <path id="ArialMT-37" d="M 303 3981 
L 303 4522 
L 3269 4522 
L 3269 4084 
Q 2831 3619 2401 2847 
Q 1972 2075 1738 1259 
Q 1569 684 1522 0 
L 944 0 
Q 953 541 1156 1306 
Q 1359 2072 1739 2783 
Q 2119 3494 2547 3981 
L 303 3981 
z
" transform="scale(0.015625)"/>
       </defs>
       <use xlink:href="#ArialMT-53"/>
       <use xlink:href="#ArialMT-37" transform="translate(66.699219 0)"/>
      </g>
      <!-- (+1.6°C) -->
      <g style="fill: #898781" transform="translate(144.855331 295.332844) scale(0.09 -0.09)">
       <defs>
        <path id="ArialMT-36" d="M 3184 3459 
L 2625 3416 
Q 2550 3747 2413 3897 
Q 2184 4138 1850 4138 
Q 1581 4138 1378 3988 
Q 1113 3794 959 3422 
Q 806 3050 800 2363 
Q 1003 2672 1297 2822 
Q 1591 2972 1913 2972 
Q 2475 2972 2870 2558 
Q 3266 2144 3266 1488 
Q 3266 1056 3080 686 
Q 2894 316 2569 119 
Q 2244 -78 1831 -78 
Q 1128 -78 684 439 
Q 241 956 241 2144 
Q 241 3472 731 4075 
Q 1159 4600 1884 4600 
Q 2425 4600 2770 4297 
Q 3116 3994 3184 3459 
z
M 888 1484 
Q 888 1194 1011 928 
Q 1134 663 1356 523 
Q 1578 384 1822 384 
Q 2178 384 2434 671 
Q 2691 959 2691 1453 
Q 2691 1928 2437 2201 
Q 2184 2475 1800 2475 
Q 1419 2475 1153 2201 
Q 888 1928 888 1484 
z
" transform="scale(0.015625)"/>
       </defs>
       <use xlink:href="#ArialMT-28"/>
       <use xlink:href="#ArialMT-2b" transform="translate(33.300781 0)"/>
       <use xlink:href="#ArialMT-31" transform="translate(91.699219 0)"/>
       <use xlink:href="#ArialMT-2e" transform="translate(147.314453 0)"/>
       <use xlink:href="#ArialMT-36" transform="translate(175.097656 0)"/>
       <use xlink:href="#ArialMT-b0" transform="translate(230.712891 0)"/>
       <use xlink:href="#ArialMT-43" transform="translate(270.703125 0)"/>
       <use xlink:href="#ArialMT-29" transform="translate(342.919922 0)"/>
      </g>
     </g>
    </g>
    <g id="xtick_4">
     <g id="line2d_7">
      <path d="M 203.75122 272.24 
L 203.75122 7.2 
" clip-path="url(#p5b3474627c)" style="fill: none; stroke: #e1e0d9; stroke-width: 0.6; stroke-linecap: square"/>
     </g>
     <g id="line2d_8">
      <g>
       <use xlink:href="#ma63a1d31e6" x="203.75122" y="272.24" style="fill: #898781; stroke: #898781; stroke-width: 0.8"/>
      </g>
     </g>
     <g id="text_4">
      <!-- S6 -->
      <g style="fill: #898781" transform="translate(198.247158 285.682031) scale(0.09 -0.09)">
       <use xlink:href="#ArialMT-53"/>
       <use xlink:href="#ArialMT-36" transform="translate(66.699219 0)"/>
      </g>
      <!-- (+1.9°C) -->
      <g style="fill: #898781" transform="translate(186.82208 295.332844) scale(0.09 -0.09)">
       <defs>
        <path id="ArialMT-39" d="M 350 1059 
L 891 1109 
Q 959 728 1153 556 
Q 1347 384 1650 384 
Q 1909 384 2104 503 
Q 2300 622 2425 820 
Q 2550 1019 2634 1356 
Q 2719 1694 2719 2044 
Q 2719 2081 2716 2156 
Q 2547 1888 2255 1720 
Q 1963 1553 1622 1553 
Q 1053 1553 659 1965 
Q 266 2378 266 3053 
Q 266 3750 677 4175 
Q 1088 4600 1706 4600 
Q 2153 4600 2523 4359 
Q 2894 4119 3086 3673 
Q 3278 3228 3278 2384 
Q 3278 1506 3087 986 
Q 2897 466 2520 194 
Q 2144 -78 1638 -78 
Q 1100 -78 759 220 
Q 419 519 350 1059 
z
M 2653 3081 
Q 2653 3566 2395 3850 
Q 2138 4134 1775 4134 
Q 1400 4134 1122 3828 
Q 844 3522 844 3034 
Q 844 2597 1108 2323 
Q 1372 2050 1759 2050 
Q 2150 2050 2401 2323 
Q 2653 2597 2653 3081 
z
" transform="scale(0.015625)"/>
       </defs>
       <use xlink:href="#ArialMT-28"/>
       <use xlink:href="#ArialMT-2b" transform="translate(33.300781 0)"/>
       <use xlink:href="#ArialMT-31" transform="translate(91.699219 0)"/>
       <use xlink:href="#ArialMT-2e" transform="translate(147.314453 0)"/>
       <use xlink:href="#ArialMT-39" transform="translate(175.097656 0)"/>
       <use xlink:href="#ArialMT-b0" transform="translate(230.712891 0)"/>
       <use xlink:href="#ArialMT-43" transform="translate(270.703125 0)"/>
       <use xlink:href="#ArialMT-29" transform="translate(342.919922 0)"/>
      </g>
     </g>
    </g>
    <g id="xtick_5">
     <g id="line2d_9">
      <path d="M 245.717969 272.24 
L 245.717969 7.2 
" clip-path="url(#p5b3474627c)" style="fill: none; stroke: #e1e0d9; stroke-width: 0.6; stroke-linecap: square"/>
     </g>
     <g id="line2d_10">
      <g>
       <use xlink:href="#ma63a1d31e6" x="245.717969" y="272.24" style="fill: #898781; stroke: #898781; stroke-width: 0.8"/>
      </g>
     </g>
     <g id="text_5">
      <!-- S1 -->
      <g style="fill: #898781" transform="translate(240.213906 285.682031) scale(0.09 -0.09)">
       <use xlink:href="#ArialMT-53"/>
       <use xlink:href="#ArialMT-31" transform="translate(66.699219 0)"/>
      </g>
      <!-- (+1.9°C) -->
      <g style="fill: #898781" transform="translate(228.788828 295.332844) scale(0.09 -0.09)">
       <use xlink:href="#ArialMT-28"/>
       <use xlink:href="#ArialMT-2b" transform="translate(33.300781 0)"/>
       <use xlink:href="#ArialMT-31" transform="translate(91.699219 0)"/>
       <use xlink:href="#ArialMT-2e" transform="translate(147.314453 0)"/>
       <use xlink:href="#ArialMT-39" transform="translate(175.097656 0)"/>
       <use xlink:href="#ArialMT-b0" transform="translate(230.712891 0)"/>
       <use xlink:href="#ArialMT-43" transform="translate(270.703125 0)"/>
       <use xlink:href="#ArialMT-29" transform="translate(342.919922 0)"/>
      </g>
     </g>
    </g>
    <g id="xtick_6">
     <g id="line2d_11">
      <path d="M 287.684717 272.24 
L 287.684717 7.2 
" clip-path="url(#p5b3474627c)" style="fill: none; stroke: #e1e0d9; stroke-width: 0.6; stroke-linecap: square"/>
     </g>
     <g id="line2d_12">
      <g>
       <use xlink:href="#ma63a1d31e6" x="287.684717" y="272.24" style="fill: #898781; stroke: #898781; stroke-width: 0.8"/>
      </g>
     </g>
     <g id="text_6">
      <!-- S3 -->
      <g style="fill: #898781" transform="translate(282.180655 285.682031) scale(0.09 -0.09)">
       <use xlink:href="#ArialMT-53"/>
       <use xlink:href="#ArialMT-33" transform="translate(66.699219 0)"/>
      </g>
      <!-- (+2.2°C) -->
      <g style="fill: #898781" transform="translate(270.755577 295.332844) scale(0.09 -0.09)">
       <defs>
        <path id="ArialMT-32" d="M 3222 541 
L 3222 0 
L 194 0 
Q 188 203 259 391 
Q 375 700 629 1000 
Q 884 1300 1366 1694 
Q 2113 2306 2375 2664 
Q 2638 3022 2638 3341 
Q 2638 3675 2398 3904 
Q 2159 4134 1775 4134 
Q 1369 4134 1125 3890 
Q 881 3647 878 3216 
L 300 3275 
Q 359 3922 746 4261 
Q 1134 4600 1788 4600 
Q 2447 4600 2831 4234 
Q 3216 3869 3216 3328 
Q 3216 3053 3103 2787 
Q 2991 2522 2730 2228 
Q 2469 1934 1863 1422 
Q 1356 997 1212 845 
Q 1069 694 975 541 
L 3222 541 
z
" transform="scale(0.015625)"/>
       </defs>
       <use xlink:href="#ArialMT-28"/>
       <use xlink:href="#ArialMT-2b" transform="translate(33.300781 0)"/>
       <use xlink:href="#ArialMT-32" transform="translate(91.699219 0)"/>
       <use xlink:href="#ArialMT-2e" transform="translate(147.314453 0)"/>
       <use xlink:href="#ArialMT-32" transform="translate(175.097656 0)"/>
       <use xlink:href="#ArialMT-b0" transform="translate(230.712891 0)"/>
       <use xlink:href="#ArialMT-43" transform="translate(270.703125 0)"/>
       <use xlink:href="#ArialMT-29" transform="translate(342.919922 0)"/>
      </g>
     </g>
    </g>
    <g id="xtick_7">
     <g id="line2d_13">
      <path d="M 329.651466 272.24 
L 329.651466 7.2 
" clip-path="url(#p5b3474627c)" style="fill: none; stroke: #e1e0d9; stroke-width: 0.6; stroke-linecap: square"/>
     </g>
     <g id="line2d_14">
      <g>
       <use xlink:href="#ma63a1d31e6" x="329.651466" y="272.24" style="fill: #898781; stroke: #898781; stroke-width: 0.8"/>
      </g>
     </g>
     <g id="text_7">
      <!-- S2 -->
      <g style="fill: #898781" transform="translate(324.147403 285.682031) scale(0.09 -0.09)">
       <use xlink:href="#ArialMT-53"/>
       <use xlink:href="#ArialMT-32" transform="translate(66.699219 0)"/>
      </g>
      <!-- (+2.7°C) -->
      <g style="fill: #898781" transform="translate(312.722325 295.332844) scale(0.09 -0.09)">
       <use xlink:href="#ArialMT-28"/>
       <use xlink:href="#ArialMT-2b" transform="translate(33.300781 0)"/>
       <use xlink:href="#ArialMT-32" transform="translate(91.699219 0)"/>
       <use xlink:href="#ArialMT-2e" transform="translate(147.314453 0)"/>
       <use xlink:href="#ArialMT-37" transform="translate(175.097656 0)"/>
       <use xlink:href="#ArialMT-b0" transform="translate(230.712891 0)"/>
       <use xlink:href="#ArialMT-43" transform="translate(270.703125 0)"/>
       <use xlink:href="#ArialMT-29" transform="translate(342.919922 0)"/>
      </g>
     </g>
    </g>
    <g id="xtick_8">
     <g id="line2d_15">
      <path d="M 371.618214 272.24 
L 371.618214 7.2 
" clip-path="url(#p5b3474627c)" style="fill: none; stroke: #e1e0d9; stroke-width: 0.6; stroke-linecap: square"/>
     </g>
     <g id="line2d_16">
      <g>
       <use xlink:href="#ma63a1d31e6" x="371.618214" y="272.24" style="fill: #898781; stroke: #898781; stroke-width: 0.8"/>
      </g>
     </g>
     <g id="text_8">
      <!-- S8 -->
      <g style="fill: #898781" transform="translate(366.114152 285.682031) scale(0.09 -0.09)">
       <defs>
        <path id="ArialMT-38" d="M 1131 2484 
Q 781 2613 612 2850 
Q 444 3088 444 3419 
Q 444 3919 803 4259 
Q 1163 4600 1759 4600 
Q 2359 4600 2725 4251 
Q 3091 3903 3091 3403 
Q 3091 3084 2923 2848 
Q 2756 2613 2416 2484 
Q 2838 2347 3058 2040 
Q 3278 1734 3278 1309 
Q 3278 722 2862 322 
Q 2447 -78 1769 -78 
Q 1091 -78 675 323 
Q 259 725 259 1325 
Q 259 1772 486 2073 
Q 713 2375 1131 2484 
z
M 1019 3438 
Q 1019 3113 1228 2906 
Q 1438 2700 1772 2700 
Q 2097 2700 2305 2904 
Q 2513 3109 2513 3406 
Q 2513 3716 2298 3927 
Q 2084 4138 1766 4138 
Q 1444 4138 1231 3931 
Q 1019 3725 1019 3438 
z
M 838 1322 
Q 838 1081 952 856 
Q 1066 631 1291 507 
Q 1516 384 1775 384 
Q 2178 384 2440 643 
Q 2703 903 2703 1303 
Q 2703 1709 2433 1975 
Q 2163 2241 1756 2241 
Q 1359 2241 1098 1978 
Q 838 1716 838 1322 
z
" transform="scale(0.015625)"/>
       </defs>
       <use xlink:href="#ArialMT-53"/>
       <use xlink:href="#ArialMT-38" transform="translate(66.699219 0)"/>
      </g>
      <!-- (+3.1°C) -->
      <g style="fill: #898781" transform="translate(354.689073 295.332844) scale(0.09 -0.09)">
       <use xlink:href="#ArialMT-28"/>
       <use xlink:href="#ArialMT-2b" transform="translate(33.300781 0)"/>
       <use xlink:href="#ArialMT-33" transform="translate(91.699219 0)"/>
       <use xlink:href="#ArialMT-2e" transform="translate(147.314453 0)"/>
       <use xlink:href="#ArialMT-31" transform="translate(175.097656 0)"/>
       <use xlink:href="#ArialMT-b0" transform="translate(230.712891 0)"/>
       <use xlink:href="#ArialMT-43" transform="translate(270.703125 0)"/>
       <use xlink:href="#ArialMT-29" transform="translate(342.919922 0)"/>
      </g>
     </g>
    </g>
    <g id="xtick_9">
     <g id="line2d_17">
      <path d="M 413.584963 272.24 
L 413.584963 7.2 
" clip-path="url(#p5b3474627c)" style="fill: none; stroke: #e1e0d9; stroke-width: 0.6; stroke-linecap: square"/>
     </g>
     <g id="line2d_18">
      <g>
       <use xlink:href="#ma63a1d31e6" x="413.584963" y="272.24" style="fill: #898781; stroke: #898781; stroke-width: 0.8"/>
      </g>
     </g>
     <g id="text_9">
      <!-- S4 -->
      <g style="fill: #898781" transform="translate(408.0809 285.682031) scale(0.09 -0.09)">
       <defs>
        <path id="ArialMT-34" d="M 2069 0 
L 2069 1097 
L 81 1097 
L 81 1613 
L 2172 4581 
L 2631 4581 
L 2631 1613 
L 3250 1613 
L 3250 1097 
L 2631 1097 
L 2631 0 
L 2069 0 
z
M 2069 1613 
L 2069 3678 
L 634 1613 
L 2069 1613 
z
" transform="scale(0.015625)"/>
       </defs>
       <use xlink:href="#ArialMT-53"/>
       <use xlink:href="#ArialMT-34" transform="translate(66.699219 0)"/>
      </g>
      <!-- (+4.5°C) -->
      <g style="fill: #898781" transform="translate(396.655822 295.332844) scale(0.09 -0.09)">
       <use xlink:href="#ArialMT-28"/>
       <use xlink:href="#ArialMT-2b" transform="translate(33.300781 0)"/>
       <use xlink:href="#ArialMT-34" transform="translate(91.699219 0)"/>
       <use xlink:href="#ArialMT-2e" transform="translate(147.314453 0)"/>
       <use xlink:href="#ArialMT-35" transform="translate(175.097656 0)"/>
       <use xlink:href="#ArialMT-b0" transform="translate(230.712891 0)"/>
       <use xlink:href="#ArialMT-43" transform="translate(270.703125 0)"/>
       <use xlink:href="#ArialMT-29" transform="translate(342.919922 0)"/>
      </g>
     </g>
    </g>
   </g>
   <g id="matplotlib.axis_2">
    <g id="ytick_1">
     <g id="line2d_19">
      <path d="M 42.598906 238.827805 
L 448.837031 238.827805 
" clip-path="url(#p5b3474627c)" style="fill: none; stroke-dasharray: 2.22,0.96; stroke-dashoffset: 0; stroke: #e1e0d9; stroke-opacity: 0.6; stroke-width: 0.6"/>
     </g>
     <g id="line2d_20">
      <defs>
       <path id="mff883078a7" d="M 0 0 
L -3.5 0 
" style="stroke: #898781; stroke-width: 0.8"/>
      </defs>
      <g>
       <use xlink:href="#mff883078a7" x="42.598906" y="238.827805" style="fill: #898781; stroke: #898781; stroke-width: 0.8"/>
      </g>
     </g>
     <g id="text_10">
      <!-- 100 -->
      <g style="fill: #898781" transform="translate(20.584375 242.048821) scale(0.09 -0.09)">
       <use xlink:href="#ArialMT-31"/>
       <use xlink:href="#ArialMT-30" transform="translate(55.615234 0)"/>
       <use xlink:href="#ArialMT-30" transform="translate(111.230469 0)"/>
      </g>
     </g>
    </g>
    <g id="ytick_2">
     <g id="line2d_21">
      <path d="M 42.598906 195.279249 
L 448.837031 195.279249 
" clip-path="url(#p5b3474627c)" style="fill: none; stroke-dasharray: 2.22,0.96; stroke-dashoffset: 0; stroke: #e1e0d9; stroke-opacity: 0.6; stroke-width: 0.6"/>
     </g>
     <g id="line2d_22">
      <g>
       <use xlink:href="#mff883078a7" x="42.598906" y="195.279249" style="fill: #898781; stroke: #898781; stroke-width: 0.8"/>
      </g>
     </g>
     <g id="text_11">
      <!-- 110 -->
      <g style="fill: #898781" transform="translate(21.248125 198.500264) scale(0.09 -0.09)">
       <use xlink:href="#ArialMT-31"/>
       <use xlink:href="#ArialMT-31" transform="translate(48.240234 0)"/>
       <use xlink:href="#ArialMT-30" transform="translate(103.855469 0)"/>
      </g>
     </g>
    </g>
    <g id="ytick_3">
     <g id="line2d_23">
      <path d="M 42.598906 151.730692 
L 448.837031 151.730692 
" clip-path="url(#p5b3474627c)" style="fill: none; stroke-dasharray: 2.22,0.96; stroke-dashoffset: 0; stroke: #e1e0d9; stroke-opacity: 0.6; stroke-width: 0.6"/>
     </g>
     <g id="line2d_24">
      <g>
       <use xlink:href="#mff883078a7" x="42.598906" y="151.730692" style="fill: #898781; stroke: #898781; stroke-width: 0.8"/>
      </g>
     </g>
     <g id="text_12">
      <!-- 120 -->
      <g style="fill: #898781" transform="translate(20.584375 154.951708) scale(0.09 -0.09)">
       <use xlink:href="#ArialMT-31"/>
       <use xlink:href="#ArialMT-32" transform="translate(55.615234 0)"/>
       <use xlink:href="#ArialMT-30" transform="translate(111.230469 0)"/>
      </g>
     </g>
    </g>
    <g id="ytick_4">
     <g id="line2d_25">
      <path d="M 42.598906 108.182135 
L 448.837031 108.182135 
" clip-path="url(#p5b3474627c)" style="fill: none; stroke-dasharray: 2.22,0.96; stroke-dashoffset: 0; stroke: #e1e0d9; stroke-opacity: 0.6; stroke-width: 0.6"/>
     </g>
     <g id="line2d_26">
      <g>
       <use xlink:href="#mff883078a7" x="42.598906" y="108.182135" style="fill: #898781; stroke: #898781; stroke-width: 0.8"/>
      </g>
     </g>
     <g id="text_13">
      <!-- 130 -->
      <g style="fill: #898781" transform="translate(20.584375 111.403151) scale(0.09 -0.09)">
       <use xlink:href="#ArialMT-31"/>
       <use xlink:href="#ArialMT-33" transform="translate(55.615234 0)"/>
       <use xlink:href="#ArialMT-30" transform="translate(111.230469 0)"/>
      </g>
     </g>
    </g>
    <g id="ytick_5">
     <g id="line2d_27">
      <path d="M 42.598906 64.633579 
L 448.837031 64.633579 
" clip-path="url(#p5b3474627c)" style="fill: none; stroke-dasharray: 2.22,0.96; stroke-dashoffset: 0; stroke: #e1e0d9; stroke-opacity: 0.6; stroke-width: 0.6"/>
     </g>
     <g id="line2d_28">
      <g>
       <use xlink:href="#mff883078a7" x="42.598906" y="64.633579" style="fill: #898781; stroke: #898781; stroke-width: 0.8"/>
      </g>
     </g>
     <g id="text_14">
      <!-- 140 -->
      <g style="fill: #898781" transform="translate(20.584375 67.854594) scale(0.09 -0.09)">
       <use xlink:href="#ArialMT-31"/>
       <use xlink:href="#ArialMT-34" transform="translate(55.615234 0)"/>
       <use xlink:href="#ArialMT-30" transform="translate(111.230469 0)"/>
      </g>
     </g>
    </g>
    <g id="ytick_6">
     <g id="line2d_29">
      <path d="M 42.598906 21.085022 
L 448.837031 21.085022 
" clip-path="url(#p5b3474627c)" style="fill: none; stroke-dasharray: 2.22,0.96; stroke-dashoffset: 0; stroke: #e1e0d9; stroke-opacity: 0.6; stroke-width: 0.6"/>
     </g>
     <g id="line2d_30">
      <g>
       <use xlink:href="#mff883078a7" x="42.598906" y="21.085022" style="fill: #898781; stroke: #898781; stroke-width: 0.8"/>
      </g>
     </g>
     <g id="text_15">
      <!-- 150 -->
      <g style="fill: #898781" transform="translate(20.584375 24.306037) scale(0.09 -0.09)">
       <use xlink:href="#ArialMT-31"/>
       <use xlink:href="#ArialMT-35" transform="translate(55.615234 0)"/>
       <use xlink:href="#ArialMT-30" transform="translate(111.230469 0)"/>
      </g>
     </g>
    </g>
    <g id="text_16">
     <!-- Gross site EUI (kWh/m²/yr) -->
     <g style="fill: #52514e" transform="translate(14.479687 199.439531) rotate(-90) scale(0.1 -0.1)">
      <defs>
       <path id="ArialMT-47" d="M 2638 1797 
L 2638 2334 
L 4578 2338 
L 4578 638 
Q 4131 281 3656 101 
Q 3181 -78 2681 -78 
Q 2006 -78 1454 211 
Q 903 500 622 1047 
Q 341 1594 341 2269 
Q 341 2938 620 3517 
Q 900 4097 1425 4378 
Q 1950 4659 2634 4659 
Q 3131 4659 3532 4498 
Q 3934 4338 4162 4050 
Q 4391 3763 4509 3300 
L 3963 3150 
Q 3859 3500 3706 3700 
Q 3553 3900 3268 4020 
Q 2984 4141 2638 4141 
Q 2222 4141 1919 4014 
Q 1616 3888 1430 3681 
Q 1244 3475 1141 3228 
Q 966 2803 966 2306 
Q 966 1694 1177 1281 
Q 1388 869 1791 669 
Q 2194 469 2647 469 
Q 3041 469 3416 620 
Q 3791 772 3984 944 
L 3984 1797 
L 2638 1797 
z
" transform="scale(0.015625)"/>
       <path id="ArialMT-72" d="M 416 0 
L 416 3319 
L 922 3319 
L 922 2816 
Q 1116 3169 1280 3281 
Q 1444 3394 1641 3394 
Q 1925 3394 2219 3213 
L 2025 2691 
Q 1819 2813 1613 2813 
Q 1428 2813 1281 2702 
Q 1134 2591 1072 2394 
Q 978 2094 978 1738 
L 978 0 
L 416 0 
z
" transform="scale(0.015625)"/>
       <path id="ArialMT-6f" d="M 213 1659 
Q 213 2581 725 3025 
Q 1153 3394 1769 3394 
Q 2453 3394 2887 2945 
Q 3322 2497 3322 1706 
Q 3322 1066 3130 698 
Q 2938 331 2570 128 
Q 2203 -75 1769 -75 
Q 1072 -75 642 372 
Q 213 819 213 1659 
z
M 791 1659 
Q 791 1022 1069 705 
Q 1347 388 1769 388 
Q 2188 388 2466 706 
Q 2744 1025 2744 1678 
Q 2744 2294 2464 2611 
Q 2184 2928 1769 2928 
Q 1347 2928 1069 2612 
Q 791 2297 791 1659 
z
" transform="scale(0.015625)"/>
       <path id="ArialMT-20" transform="scale(0.015625)"/>
       <path id="ArialMT-69" d="M 425 3934 
L 425 4581 
L 988 4581 
L 988 3934 
L 425 3934 
z
M 425 0 
L 425 3319 
L 988 3319 
L 988 0 
L 425 0 
z
" transform="scale(0.015625)"/>
       <path id="ArialMT-74" d="M 1650 503 
L 1731 6 
Q 1494 -44 1306 -44 
Q 1000 -44 831 53 
Q 663 150 594 308 
Q 525 466 525 972 
L 525 2881 
L 113 2881 
L 113 3319 
L 525 3319 
L 525 4141 
L 1084 4478 
L 1084 3319 
L 1650 3319 
L 1650 2881 
L 1084 2881 
L 1084 941 
Q 1084 700 1114 631 
Q 1144 563 1211 522 
Q 1278 481 1403 481 
Q 1497 481 1650 503 
z
" transform="scale(0.015625)"/>
       <path id="ArialMT-45" d="M 506 0 
L 506 4581 
L 3819 4581 
L 3819 4041 
L 1113 4041 
L 1113 2638 
L 3647 2638 
L 3647 2100 
L 1113 2100 
L 1113 541 
L 3925 541 
L 3925 0 
L 506 0 
z
" transform="scale(0.015625)"/>
       <path id="ArialMT-55" d="M 3500 4581 
L 4106 4581 
L 4106 1934 
Q 4106 1244 3950 837 
Q 3794 431 3386 176 
Q 2978 -78 2316 -78 
Q 1672 -78 1262 144 
Q 853 366 678 786 
Q 503 1206 503 1934 
L 503 4581 
L 1109 4581 
L 1109 1938 
Q 1109 1341 1220 1058 
Q 1331 775 1601 622 
Q 1872 469 2263 469 
Q 2931 469 3215 772 
Q 3500 1075 3500 1938 
L 3500 4581 
z
" transform="scale(0.015625)"/>
       <path id="ArialMT-49" d="M 597 0 
L 597 4581 
L 1203 4581 
L 1203 0 
L 597 0 
z
" transform="scale(0.015625)"/>
       <path id="ArialMT-6b" d="M 425 0 
L 425 4581 
L 988 4581 
L 988 1969 
L 2319 3319 
L 3047 3319 
L 1778 2088 
L 3175 0 
L 2481 0 
L 1384 1697 
L 988 1316 
L 988 0 
L 425 0 
z
" transform="scale(0.015625)"/>
       <path id="ArialMT-57" d="M 1294 0 
L 78 4581 
L 700 4581 
L 1397 1578 
Q 1509 1106 1591 641 
Q 1766 1375 1797 1488 
L 2669 4581 
L 3400 4581 
L 4056 2263 
Q 4303 1400 4413 641 
Q 4500 1075 4641 1638 
L 5359 4581 
L 5969 4581 
L 4713 0 
L 4128 0 
L 3163 3491 
Q 3041 3928 3019 4028 
Q 2947 3713 2884 3491 
L 1913 0 
L 1294 0 
z
" transform="scale(0.015625)"/>
       <path id="ArialMT-68" d="M 422 0 
L 422 4581 
L 984 4581 
L 984 2938 
Q 1378 3394 1978 3394 
Q 2347 3394 2619 3248 
Q 2891 3103 3008 2847 
Q 3125 2591 3125 2103 
L 3125 0 
L 2563 0 
L 2563 2103 
Q 2563 2525 2380 2717 
Q 2197 2909 1863 2909 
Q 1613 2909 1392 2779 
Q 1172 2650 1078 2428 
Q 984 2206 984 1816 
L 984 0 
L 422 0 
z
" transform="scale(0.015625)"/>
       <path id="ArialMT-2f" d="M 0 -78 
L 1328 4659 
L 1778 4659 
L 453 -78 
L 0 -78 
z
" transform="scale(0.015625)"/>
       <path id="ArialMT-6d" d="M 422 0 
L 422 3319 
L 925 3319 
L 925 2853 
Q 1081 3097 1340 3245 
Q 1600 3394 1931 3394 
Q 2300 3394 2536 3241 
Q 2772 3088 2869 2813 
Q 3263 3394 3894 3394 
Q 4388 3394 4653 3120 
Q 4919 2847 4919 2278 
L 4919 0 
L 4359 0 
L 4359 2091 
Q 4359 2428 4304 2576 
Q 4250 2725 4106 2815 
Q 3963 2906 3769 2906 
Q 3419 2906 3187 2673 
Q 2956 2441 2956 1928 
L 2956 0 
L 2394 0 
L 2394 2156 
Q 2394 2531 2256 2718 
Q 2119 2906 1806 2906 
Q 1569 2906 1367 2781 
Q 1166 2656 1075 2415 
Q 984 2175 984 1722 
L 984 0 
L 422 0 
z
" transform="scale(0.015625)"/>
       <path id="ArialMT-b2" d="M 78 2291 
Q 97 2469 225 2647 
Q 422 2916 872 3242 
Q 1322 3569 1406 3663 
Q 1522 3791 1522 3925 
Q 1522 4075 1412 4172 
Q 1303 4269 1091 4269 
Q 884 4269 782 4195 
Q 681 4122 616 3913 
L 144 3963 
Q 234 4309 457 4473 
Q 681 4638 1100 4638 
Q 1572 4638 1792 4453 
Q 2013 4269 2013 4003 
Q 2013 3741 1828 3506 
Q 1688 3331 1188 2972 
Q 928 2781 819 2669 
L 2025 2669 
L 2025 2291 
L 78 2291 
z
" transform="scale(0.015625)"/>
       <path id="ArialMT-79" d="M 397 -1278 
L 334 -750 
Q 519 -800 656 -800 
Q 844 -800 956 -737 
Q 1069 -675 1141 -563 
Q 1194 -478 1313 -144 
Q 1328 -97 1363 -6 
L 103 3319 
L 709 3319 
L 1400 1397 
Q 1534 1031 1641 628 
Q 1738 1016 1872 1384 
L 2581 3319 
L 3144 3319 
L 1881 -56 
Q 1678 -603 1566 -809 
Q 1416 -1088 1222 -1217 
Q 1028 -1347 759 -1347 
Q 597 -1347 397 -1278 
z
" transform="scale(0.015625)"/>
      </defs>
      <use xlink:href="#ArialMT-47"/>
      <use xlink:href="#ArialMT-72" transform="translate(77.783203 0)"/>
      <use xlink:href="#ArialMT-6f" transform="translate(111.083984 0)"/>
      <use xlink:href="#ArialMT-73" transform="translate(166.699219 0)"/>
      <use xlink:href="#ArialMT-73" transform="translate(216.699219 0)"/>
      <use xlink:href="#ArialMT-20" transform="translate(266.699219 0)"/>
      <use xlink:href="#ArialMT-73" transform="translate(294.482422 0)"/>
      <use xlink:href="#ArialMT-69" transform="translate(344.482422 0)"/>
      <use xlink:href="#ArialMT-74" transform="translate(366.699219 0)"/>
      <use xlink:href="#ArialMT-65" transform="translate(394.482422 0)"/>
      <use xlink:href="#ArialMT-20" transform="translate(450.097656 0)"/>
      <use xlink:href="#ArialMT-45" transform="translate(477.880859 0)"/>
      <use xlink:href="#ArialMT-55" transform="translate(544.580078 0)"/>
      <use xlink:href="#ArialMT-49" transform="translate(616.796875 0)"/>
      <use xlink:href="#ArialMT-20" transform="translate(644.580078 0)"/>
      <use xlink:href="#ArialMT-28" transform="translate(672.363281 0)"/>
      <use xlink:href="#ArialMT-6b" transform="translate(705.664062 0)"/>
      <use xlink:href="#ArialMT-57" transform="translate(755.664062 0)"/>
      <use xlink:href="#ArialMT-68" transform="translate(850.048828 0)"/>
      <use xlink:href="#ArialMT-2f" transform="translate(905.664062 0)"/>
      <use xlink:href="#ArialMT-6d" transform="translate(933.447266 0)"/>
      <use xlink:href="#ArialMT-b2" transform="translate(1016.748047 0)"/>
      <use xlink:href="#ArialMT-2f" transform="translate(1050.048828 0)"/>
      <use xlink:href="#ArialMT-79" transform="translate(1077.832031 0)"/>
      <use xlink:href="#ArialMT-72" transform="translate(1127.832031 0)"/>
      <use xlink:href="#ArialMT-29" transform="translate(1161.132812 0)"/>
     </g>
    </g>
   </g>
   <g id="FillBetweenPolyCollection_1">
    <path d="M 79.438683 260.192727 
L 76.263267 260.192727 
L 75.983907 259.112283 
L 75.673399 258.031839 
L 75.331108 256.951395 
L 74.957098 255.870951 
L 74.552357 254.790507 
L 74.119009 253.710063 
L 73.660455 252.629619 
L 73.181411 251.549175 
L 72.687798 250.46873 
L 72.18647 249.388286 
L 71.684781 248.307842 
L 71.190014 247.227398 
L 70.708753 246.146954 
L 70.246244 245.06651 
L 69.805859 243.986066 
L 69.388727 242.905622 
L 68.993599 241.825178 
L 68.61698 240.744734 
L 68.25352 239.66429 
L 67.896617 238.583845 
L 67.539157 237.503401 
L 67.174308 236.422957 
L 66.796258 235.342513 
L 66.400831 234.262069 
L 65.98592 233.181625 
L 65.551709 232.101181 
L 65.100692 231.020737 
L 64.637524 229.940293 
L 64.16872 228.859849 
L 63.702282 227.779405 
L 63.247248 226.69896 
L 62.813231 225.618516 
L 62.409921 224.538072 
L 62.046603 223.457628 
L 61.731672 222.377184 
L 61.472185 221.29674 
L 61.273474 220.216296 
L 61.138851 219.135852 
L 61.06946 218.055408 
L 61.064276 216.974964 
L 61.120272 215.89452 
L 61.232741 214.814075 
L 61.395699 213.733631 
L 61.602342 212.653187 
L 61.84546 211.572743 
L 62.11777 210.492299 
L 62.412123 209.411855 
L 62.721601 208.331411 
L 63.039514 207.250967 
L 63.359374 206.170523 
L 63.674893 205.090079 
L 63.980068 204.009635 
L 64.269388 202.92919 
L 64.538152 201.848746 
L 64.782878 200.768302 
L 65.001726 199.687858 
L 65.19486 198.607414 
L 65.364675 197.52697 
L 65.515819 196.446526 
L 65.65498 195.366082 
L 65.790447 194.285638 
L 65.931483 193.205194 
L 66.087581 192.12475 
L 66.267697 191.044305 
L 66.479538 189.963861 
L 66.729001 188.883417 
L 67.019794 187.802973 
L 67.353272 186.722529 
L 67.72848 185.642085 
L 68.142367 184.561641 
L 68.590123 183.481197 
L 69.065603 182.400753 
L 69.561766 181.320309 
L 70.071115 180.239865 
L 70.586107 179.15942 
L 71.099505 178.078976 
L 71.604677 176.998532 
L 72.095822 175.918088 
L 72.568135 174.837644 
L 73.017886 173.7572 
L 73.442432 172.676756 
L 73.84016 171.596312 
L 74.210371 170.515868 
L 74.553123 169.435424 
L 74.869059 168.35498 
L 75.159236 167.274535 
L 75.424971 166.194091 
L 75.667722 165.113647 
L 75.889012 164.033203 
L 76.090375 162.952759 
L 76.273338 161.872315 
L 76.43941 160.791871 
L 76.590081 159.711427 
L 76.726809 158.630983 
L 76.851004 157.550539 
L 76.963997 156.470095 
L 77.067009 155.38965 
L 77.161115 154.309206 
L 77.247219 153.228762 
L 78.454731 153.228762 
L 78.454731 153.228762 
L 78.540835 154.309206 
L 78.634941 155.38965 
L 78.737953 156.470095 
L 78.850946 157.550539 
L 78.975141 158.630983 
L 79.111869 159.711427 
L 79.26254 160.791871 
L 79.428612 161.872315 
L 79.611575 162.952759 
L 79.812938 164.033203 
L 80.034228 165.113647 
L 80.276979 166.194091 
L 80.542714 167.274535 
L 80.83289 168.35498 
L 81.148827 169.435424 
L 81.491579 170.515868 
L 81.86179 171.596312 
L 82.259518 172.676756 
L 82.684064 173.7572 
L 83.133815 174.837644 
L 83.606128 175.918088 
L 84.097273 176.998532 
L 84.602445 178.078976 
L 85.115843 179.15942 
L 85.630835 180.239865 
L 86.140184 181.320309 
L 86.636347 182.400753 
L 87.111826 183.481197 
L 87.559583 184.561641 
L 87.973469 185.642085 
L 88.348678 186.722529 
L 88.682156 187.802973 
L 88.972949 188.883417 
L 89.222412 189.963861 
L 89.434253 191.044305 
L 89.614369 192.12475 
L 89.770467 193.205194 
L 89.911503 194.285638 
L 90.04697 195.366082 
L 90.186131 196.446526 
L 90.337275 197.52697 
L 90.50709 198.607414 
L 90.700224 199.687858 
L 90.919072 200.768302 
L 91.163798 201.848746 
L 91.432562 202.92919 
L 91.721882 204.009635 
L 92.027057 205.090079 
L 92.342576 206.170523 
L 92.662436 207.250967 
L 92.980349 208.331411 
L 93.289827 209.411855 
L 93.58418 210.492299 
L 93.856489 211.572743 
L 94.099608 212.653187 
L 94.306251 213.733631 
L 94.469209 214.814075 
L 94.581678 215.89452 
L 94.637674 216.974964 
L 94.63249 218.055408 
L 94.563099 219.135852 
L 94.428476 220.216296 
L 94.229764 221.29674 
L 93.970278 222.377184 
L 93.655347 223.457628 
L 93.292029 224.538072 
L 92.888719 225.618516 
L 92.454701 226.69896 
L 91.999668 227.779405 
L 91.53323 228.859849 
L 91.064426 229.940293 
L 90.601257 231.020737 
L 90.150241 232.101181 
L 89.71603 233.181625 
L 89.301119 234.262069 
L 88.905692 235.342513 
L 88.527641 236.422957 
L 88.162793 237.503401 
L 87.805333 238.583845 
L 87.44843 239.66429 
L 87.08497 240.744734 
L 86.708351 241.825178 
L 86.313223 242.905622 
L 85.896091 243.986066 
L 85.455706 245.06651 
L 84.993197 246.146954 
L 84.511936 247.227398 
L 84.017169 248.307842 
L 83.51548 249.388286 
L 83.014152 250.46873 
L 82.520539 251.549175 
L 82.041495 252.629619 
L 81.58294 253.710063 
L 81.149592 254.790507 
L 80.744852 255.870951 
L 80.370842 256.951395 
L 80.028551 258.031839 
L 79.718043 259.112283 
L 79.438683 260.192727 
z
" clip-path="url(#p5b3474627c)" style="fill: #86b6ef; fill-opacity: 0.85"/>
   </g>
   <g id="FillBetweenPolyCollection_2">
    <path d="M 121.697214 235.535534 
L 117.938232 235.535534 
L 117.635496 234.377539 
L 117.303612 233.219543 
L 116.94206 232.061547 
L 116.55078 230.903552 
L 116.130396 229.745556 
L 115.682443 228.58756 
L 115.209554 227.429564 
L 114.715554 226.271569 
L 114.205415 225.113573 
L 113.685053 223.955577 
L 113.160962 222.797582 
L 112.639706 221.639586 
L 112.127334 220.48159 
L 111.628789 219.323594 
L 111.147396 218.165599 
L 110.684519 217.007603 
L 110.239454 215.849607 
L 109.80958 214.691612 
L 109.390775 213.533616 
L 108.978042 212.37562 
L 108.566262 211.217625 
L 108.150982 210.059629 
L 107.729114 208.901633 
L 107.299467 207.743637 
L 106.863034 206.585642 
L 106.423009 205.427646 
L 105.984543 204.26965 
L 105.554285 203.111655 
L 105.139772 201.953659 
L 104.748758 200.795663 
L 104.388555 199.637667 
L 104.065449 198.479672 
L 103.78427 197.321676 
L 103.548106 196.16368 
L 103.358221 195.005685 
L 103.214123 193.847689 
L 103.113803 192.689693 
L 103.054079 191.531697 
L 103.031024 190.373702 
L 103.040417 189.215706 
L 103.078167 188.05771 
L 103.14067 186.899715 
L 103.225044 185.741719 
L 103.329233 184.583723 
L 103.451961 183.425727 
L 103.592558 182.267732 
L 103.750686 181.109736 
L 103.926014 179.95174 
L 104.117902 178.793745 
L 104.325137 177.635749 
L 104.54578 176.477753 
L 104.777147 175.319757 
L 105.015922 174.161762 
L 105.258421 173.003766 
L 105.500934 171.84577 
L 105.740138 170.687775 
L 105.973503 169.529779 
L 106.199645 168.371783 
L 106.418574 167.213787 
L 106.631804 166.055792 
L 106.842301 164.897796 
L 107.054275 163.7398 
L 107.272827 162.581805 
L 107.503504 161.423809 
L 107.751793 160.265813 
L 108.022632 159.107817 
L 108.319964 157.949822 
L 108.646412 156.791826 
L 109.003071 155.63383 
L 109.389452 154.475835 
L 109.803565 153.317839 
L 110.242114 152.159843 
L 110.700774 151.001847 
L 111.174508 149.843852 
L 111.657904 148.685856 
L 112.145469 147.52786 
L 112.631903 146.369865 
L 113.112299 145.211869 
L 113.582302 144.053873 
L 114.038207 142.895877 
L 114.477023 141.737882 
L 114.89648 140.579886 
L 115.295021 139.42189 
L 115.671745 138.263895 
L 116.026337 137.105899 
L 116.358968 135.947903 
L 116.670181 134.789907 
L 116.960773 133.631912 
L 117.231683 132.473916 
L 117.483896 131.31592 
L 117.718371 130.157925 
L 117.936001 128.999929 
L 118.137593 127.841933 
L 118.323875 126.683937 
L 118.49552 125.525942 
L 118.653166 124.367946 
L 118.797438 123.20995 
L 118.928963 122.051955 
L 119.048372 120.893959 
L 120.587074 120.893959 
L 120.587074 120.893959 
L 120.706484 122.051955 
L 120.838009 123.20995 
L 120.982281 124.367946 
L 121.139927 125.525942 
L 121.311572 126.683937 
L 121.497854 127.841933 
L 121.699446 128.999929 
L 121.917075 130.157925 
L 122.151551 131.31592 
L 122.403764 132.473916 
L 122.674674 133.631912 
L 122.965266 134.789907 
L 123.276479 135.947903 
L 123.60911 137.105899 
L 123.963702 138.263895 
L 124.340426 139.42189 
L 124.738966 140.579886 
L 125.158424 141.737882 
L 125.597239 142.895877 
L 126.053145 144.053873 
L 126.523148 145.211869 
L 127.003544 146.369865 
L 127.489977 147.52786 
L 127.977543 148.685856 
L 128.460938 149.843852 
L 128.934673 151.001847 
L 129.393332 152.159843 
L 129.831882 153.317839 
L 130.245995 154.475835 
L 130.632376 155.63383 
L 130.989035 156.791826 
L 131.315483 157.949822 
L 131.612815 159.107817 
L 131.883654 160.265813 
L 132.131943 161.423809 
L 132.36262 162.581805 
L 132.581172 163.7398 
L 132.793146 164.897796 
L 133.003643 166.055792 
L 133.216873 167.213787 
L 133.435802 168.371783 
L 133.661944 169.529779 
L 133.895309 170.687775 
L 134.134513 171.84577 
L 134.377026 173.003766 
L 134.619524 174.161762 
L 134.8583 175.319757 
L 135.089666 176.477753 
L 135.31031 177.635749 
L 135.517545 178.793745 
L 135.709433 179.95174 
L 135.884761 181.109736 
L 136.042889 182.267732 
L 136.183486 183.425727 
L 136.306214 184.583723 
L 136.410403 185.741719 
L 136.494777 186.899715 
L 136.55728 188.05771 
L 136.59503 189.215706 
L 136.604423 190.373702 
L 136.581368 191.531697 
L 136.521644 192.689693 
L 136.421323 193.847689 
L 136.277226 195.005685 
L 136.08734 196.16368 
L 135.851177 197.321676 
L 135.569998 198.479672 
L 135.246892 199.637667 
L 134.886689 200.795663 
L 134.495675 201.953659 
L 134.081162 203.111655 
L 133.650903 204.26965 
L 133.212437 205.427646 
L 132.772412 206.585642 
L 132.33598 207.743637 
L 131.906333 208.901633 
L 131.484465 210.059629 
L 131.069185 211.217625 
L 130.657405 212.37562 
L 130.244672 213.533616 
L 129.825867 214.691612 
L 129.395993 215.849607 
L 128.950928 217.007603 
L 128.488051 218.165599 
L 128.006657 219.323594 
L 127.508113 220.48159 
L 126.995741 221.639586 
L 126.474485 222.797582 
L 125.950394 223.955577 
L 125.430032 225.113573 
L 124.919893 226.271569 
L 124.425893 227.429564 
L 123.953004 228.58756 
L 123.505051 229.745556 
L 123.084667 230.903552 
L 122.693387 232.061547 
L 122.331835 233.219543 
L 121.99995 234.377539 
L 121.697214 235.535534 
z
" clip-path="url(#p5b3474627c)" style="fill: #86b6ef; fill-opacity: 0.85"/>
   </g>
   <g id="FillBetweenPolyCollection_3">
    <path d="M 163.75837 228.363087 
L 159.810573 228.363087 
L 159.498768 227.184329 
L 159.157813 226.005571 
L 158.78727 224.826812 
L 158.387165 223.648054 
L 157.958203 222.469296 
L 157.501995 221.290538 
L 157.021222 220.111779 
L 156.519714 218.933021 
L 156.00239 217.754263 
L 155.475037 216.575505 
L 154.943945 215.396746 
L 154.415404 214.217988 
L 153.895144 213.03923 
L 153.38778 211.860472 
L 152.896348 210.681713 
L 152.422021 209.502955 
L 151.964044 208.324197 
L 151.519935 207.145439 
L 151.085926 205.96668 
L 150.657598 204.787922 
L 150.230621 203.609164 
L 149.801508 202.430406 
L 149.368262 201.251647 
L 148.930833 200.072889 
L 148.491322 198.894131 
L 148.053902 197.715373 
L 147.624464 196.536614 
L 147.21006 195.357856 
L 146.818197 194.179098 
L 146.456095 193.000339 
L 146.129999 191.821581 
L 145.844622 190.642823 
L 145.602788 189.464065 
L 145.405302 188.285306 
L 145.251054 187.106548 
L 145.13732 185.92779 
L 145.060214 184.749032 
L 145.015227 183.570273 
L 144.997772 182.391515 
L 145.003672 181.212757 
L 145.029524 180.033999 
L 145.072915 178.85524 
L 145.132466 177.676482 
L 145.207722 176.497724 
L 145.29892 175.318966 
L 145.406672 174.140207 
L 145.53164 172.961449 
L 145.674221 171.782691 
L 145.83432 170.603933 
L 146.011196 169.425174 
L 146.203428 168.246416 
L 146.408977 167.067658 
L 146.625329 165.8889 
L 146.849707 164.710141 
L 147.07932 163.531383 
L 147.31163 162.352625 
L 147.544606 161.173867 
L 147.776946 159.995108 
L 148.008246 158.81635 
L 148.239094 157.637592 
L 148.47108 156.458834 
L 148.706705 155.280075 
L 148.9492 154.101317 
L 149.202265 152.922559 
L 149.469752 151.7438 
L 149.755323 150.565042 
L 150.062119 149.386284 
L 150.392478 148.207526 
L 150.747725 147.028767 
L 151.128054 145.850009 
L 151.532502 144.671251 
L 151.959022 143.492493 
L 152.404614 142.313734 
L 152.865516 141.134976 
L 153.337418 139.956218 
L 153.815683 138.77746 
L 154.295563 137.598701 
L 154.772402 136.419943 
L 155.24181 135.241185 
L 155.699821 134.062427 
L 156.143024 132.883668 
L 156.568658 131.70491 
L 156.974673 130.526152 
L 157.359748 129.347394 
L 157.723261 128.168635 
L 158.065217 126.989877 
L 158.386125 125.811119 
L 158.686861 124.632361 
L 158.968516 123.453602 
L 159.232244 122.274844 
L 159.479145 121.096086 
L 159.710181 119.917328 
L 159.926131 118.738569 
L 160.127586 117.559811 
L 160.314977 116.381053 
L 160.488627 115.202295 
L 160.648797 114.023536 
L 160.795746 112.844778 
L 160.929765 111.66602 
L 162.639179 111.66602 
L 162.639179 111.66602 
L 162.773197 112.844778 
L 162.920147 114.023536 
L 163.080317 115.202295 
L 163.253966 116.381053 
L 163.441358 117.559811 
L 163.642812 118.738569 
L 163.858762 119.917328 
L 164.089799 121.096086 
L 164.3367 122.274844 
L 164.600428 123.453602 
L 164.882082 124.632361 
L 165.182819 125.811119 
L 165.503727 126.989877 
L 165.845682 128.168635 
L 166.209196 129.347394 
L 166.594271 130.526152 
L 167.000286 131.70491 
L 167.425919 132.883668 
L 167.869122 134.062427 
L 168.327134 135.241185 
L 168.796542 136.419943 
L 169.27338 137.598701 
L 169.753261 138.77746 
L 170.231526 139.956218 
L 170.703428 141.134976 
L 171.16433 142.313734 
L 171.609922 143.492493 
L 172.036442 144.671251 
L 172.44089 145.850009 
L 172.821218 147.028767 
L 173.176466 148.207526 
L 173.506825 149.386284 
L 173.813621 150.565042 
L 174.099192 151.7438 
L 174.366679 152.922559 
L 174.619744 154.101317 
L 174.862238 155.280075 
L 175.097863 156.458834 
L 175.329849 157.637592 
L 175.560698 158.81635 
L 175.791998 159.995108 
L 176.024337 161.173867 
L 176.257313 162.352625 
L 176.489624 163.531383 
L 176.719237 164.710141 
L 176.943615 165.8889 
L 177.159966 167.067658 
L 177.365516 168.246416 
L 177.557748 169.425174 
L 177.734624 170.603933 
L 177.894722 171.782691 
L 178.037304 172.961449 
L 178.162271 174.140207 
L 178.270024 175.318966 
L 178.361221 176.497724 
L 178.436478 177.676482 
L 178.496029 178.85524 
L 178.53942 180.033999 
L 178.565271 181.212757 
L 178.571171 182.391515 
L 178.553717 183.570273 
L 178.50873 184.749032 
L 178.431624 185.92779 
L 178.317889 187.106548 
L 178.163642 188.285306 
L 177.966156 189.464065 
L 177.724322 190.642823 
L 177.438945 191.821581 
L 177.112849 193.000339 
L 176.750747 194.179098 
L 176.358884 195.357856 
L 175.944479 196.536614 
L 175.515042 197.715373 
L 175.077621 198.894131 
L 174.638111 200.072889 
L 174.200682 201.251647 
L 173.767436 202.430406 
L 173.338323 203.609164 
L 172.911346 204.787922 
L 172.483018 205.96668 
L 172.049009 207.145439 
L 171.6049 208.324197 
L 171.146923 209.502955 
L 170.672595 210.681713 
L 170.181164 211.860472 
L 169.6738 213.03923 
L 169.15354 214.217988 
L 168.624999 215.396746 
L 168.093907 216.575505 
L 167.566554 217.754263 
L 167.049229 218.933021 
L 166.547722 220.111779 
L 166.066949 221.290538 
L 165.61074 222.469296 
L 165.181779 223.648054 
L 164.781673 224.826812 
L 164.411131 226.005571 
L 164.070176 227.184329 
L 163.75837 228.363087 
z
" clip-path="url(#p5b3474627c)" style="fill: #86b6ef; fill-opacity: 0.85"/>
   </g>
   <g id="FillBetweenPolyCollection_4">
    <path d="M 205.866976 221.748061 
L 201.635465 221.748061 
L 201.309805 220.556195 
L 200.954819 219.364328 
L 200.570263 218.172461 
L 200.156412 216.980594 
L 199.714273 215.788727 
L 199.245777 214.596861 
L 198.753914 213.404994 
L 198.242756 212.213127 
L 197.71735 211.02126 
L 197.18346 209.829393 
L 196.647177 208.637526 
L 196.114426 207.44566 
L 195.590442 206.253793 
L 195.079276 205.061926 
L 194.583422 203.870059 
L 194.103618 202.678192 
L 193.638877 201.486326 
L 193.186749 200.294459 
L 192.743796 199.102592 
L 192.306227 197.910725 
L 191.870601 196.718858 
L 191.434498 195.526992 
L 190.997075 194.335125 
L 190.559409 193.143258 
L 190.124583 191.951391 
L 189.697495 190.759524 
L 189.28442 189.567657 
L 188.892368 188.375791 
L 188.528351 187.183924 
L 188.198629 185.992057 
L 187.908063 184.80019 
L 187.659643 183.608323 
L 187.454259 182.416457 
L 187.290733 181.22459 
L 187.166102 180.032723 
L 187.076101 178.840856 
L 187.015766 177.648989 
L 186.980075 176.457123 
L 186.964521 175.265256 
L 186.965552 174.073389 
L 186.980827 172.881522 
L 187.009253 171.689655 
L 187.050845 170.497788 
L 187.106424 169.305922 
L 187.177246 168.114055 
L 187.26461 166.922188 
L 187.36952 165.730321 
L 187.492443 164.538454 
L 187.633189 163.346588 
L 187.790909 162.154721 
L 187.964184 160.962854 
L 188.151187 159.770987 
L 188.349868 158.57912 
L 188.558141 157.387254 
L 188.77405 156.195387 
L 188.995911 155.00352 
L 189.222423 153.811653 
L 189.452758 152.619786 
L 189.686626 151.427919 
L 189.924322 150.236053 
L 190.166739 149.044186 
L 190.415347 147.852319 
L 190.672116 146.660452 
L 190.939397 145.468585 
L 191.219742 144.276719 
L 191.515705 143.084852 
L 191.829608 141.892985 
L 192.163331 140.701118 
L 192.518119 139.509251 
L 192.894451 138.317385 
L 193.291958 137.125518 
L 193.7094 135.933651 
L 194.144713 134.741784 
L 194.595086 133.549917 
L 195.057082 132.358051 
L 195.526788 131.166184 
L 195.999975 129.974317 
L 196.472274 128.78245 
L 196.939367 127.590583 
L 197.397169 126.398716 
L 197.84201 125.20685 
L 198.270791 124.014983 
L 198.681111 122.823116 
L 199.071338 121.631249 
L 199.440625 120.439382 
L 199.788856 119.247516 
L 200.116536 118.055649 
L 200.424633 116.863782 
L 200.714389 115.671915 
L 200.98714 114.480048 
L 201.244141 113.288182 
L 201.48645 112.096315 
L 201.71485 110.904448 
L 201.92983 109.712581 
L 202.131615 108.520714 
L 202.320231 107.328847 
L 202.495585 106.136981 
L 202.657553 104.945114 
L 202.806055 103.753247 
L 204.696386 103.753247 
L 204.696386 103.753247 
L 204.844888 104.945114 
L 205.006856 106.136981 
L 205.182209 107.328847 
L 205.370825 108.520714 
L 205.57261 109.712581 
L 205.78759 110.904448 
L 206.01599 112.096315 
L 206.2583 113.288182 
L 206.515301 114.480048 
L 206.788051 115.671915 
L 207.077808 116.863782 
L 207.385904 118.055649 
L 207.713585 119.247516 
L 208.061816 120.439382 
L 208.431103 121.631249 
L 208.82133 122.823116 
L 209.23165 124.014983 
L 209.66043 125.20685 
L 210.105271 126.398716 
L 210.563073 127.590583 
L 211.030167 128.78245 
L 211.502466 129.974317 
L 211.975652 131.166184 
L 212.445358 132.358051 
L 212.907355 133.549917 
L 213.357728 134.741784 
L 213.79304 135.933651 
L 214.210483 137.125518 
L 214.607989 138.317385 
L 214.984322 139.509251 
L 215.33911 140.701118 
L 215.672832 141.892985 
L 215.986735 143.084852 
L 216.282698 144.276719 
L 216.563044 145.468585 
L 216.830324 146.660452 
L 217.087094 147.852319 
L 217.335701 149.044186 
L 217.578119 150.236053 
L 217.815815 151.427919 
L 218.049682 152.619786 
L 218.280017 153.811653 
L 218.50653 155.00352 
L 218.728391 156.195387 
L 218.9443 157.387254 
L 219.152572 158.57912 
L 219.351254 159.770987 
L 219.538257 160.962854 
L 219.711532 162.154721 
L 219.869251 163.346588 
L 220.009998 164.538454 
L 220.132921 165.730321 
L 220.23783 166.922188 
L 220.325195 168.114055 
L 220.396017 169.305922 
L 220.451596 170.497788 
L 220.493187 171.689655 
L 220.521614 172.881522 
L 220.536888 174.073389 
L 220.53792 175.265256 
L 220.522365 176.457123 
L 220.486674 177.648989 
L 220.42634 178.840856 
L 220.336339 180.032723 
L 220.211707 181.22459 
L 220.048181 182.416457 
L 219.842797 183.608323 
L 219.594378 184.80019 
L 219.303812 185.992057 
L 218.97409 187.183924 
L 218.610072 188.375791 
L 218.218021 189.567657 
L 217.804945 190.759524 
L 217.377858 191.951391 
L 216.943032 193.143258 
L 216.505366 194.335125 
L 216.067943 195.526992 
L 215.63184 196.718858 
L 215.196213 197.910725 
L 214.758645 199.102592 
L 214.315692 200.294459 
L 213.863563 201.486326 
L 213.398823 202.678192 
L 212.919019 203.870059 
L 212.423165 205.061926 
L 211.911998 206.253793 
L 211.388014 207.44566 
L 210.855264 208.637526 
L 210.318981 209.829393 
L 209.785091 211.02126 
L 209.259685 212.213127 
L 208.748527 213.404994 
L 208.256664 214.596861 
L 207.788168 215.788727 
L 207.346028 216.980594 
L 206.932177 218.172461 
L 206.547621 219.364328 
L 206.192636 220.556195 
L 205.866976 221.748061 
z
" clip-path="url(#p5b3474627c)" style="fill: #86b6ef; fill-opacity: 0.85"/>
   </g>
   <g id="FillBetweenPolyCollection_5">
    <path d="M 247.769181 223.333229 
L 243.666757 223.333229 
L 243.349562 222.137711 
L 243.004028 220.942193 
L 242.629893 219.746675 
L 242.227323 218.551157 
L 241.797119 217.35564 
L 241.340921 216.160122 
L 240.861356 214.964604 
L 240.362101 213.769086 
L 239.847815 212.573568 
L 239.323919 211.37805 
L 238.796245 210.182532 
L 238.270562 208.987015 
L 237.752061 207.791497 
L 237.244848 206.595979 
L 236.751545 205.400461 
L 236.273054 204.204943 
L 235.808552 203.009425 
L 235.355711 201.813908 
L 234.911156 200.61839 
L 234.471085 199.422872 
L 234.03197 198.227354 
L 233.591253 197.031836 
L 233.147923 195.836318 
L 232.702886 194.6408 
L 232.259092 193.445283 
L 231.821366 192.249765 
L 231.396 191.054247 
L 230.990128 189.858729 
L 230.611001 188.663211 
L 230.26524 187.467693 
L 229.95817 186.272175 
L 229.693334 185.076658 
L 229.472221 183.88114 
L 229.294263 182.685622 
L 229.157066 181.490104 
L 229.056841 180.294586 
L 228.988969 179.099068 
L 228.948611 177.90355 
L 228.931269 176.708033 
L 228.933239 175.512515 
L 228.951886 174.316997 
L 228.985725 173.121479 
L 229.034323 171.925961 
L 229.098043 170.730443 
L 229.177703 169.534926 
L 229.274206 168.339408 
L 229.388214 167.14389 
L 229.519897 165.948372 
L 229.668809 164.752854 
L 229.83387 163.557336 
L 230.013457 162.361818 
L 230.205564 161.166301 
L 230.407999 159.970783 
L 230.618592 158.775265 
L 230.835381 157.579747 
L 231.056767 156.384229 
L 231.281636 155.188711 
L 231.509441 153.993193 
L 231.740251 152.797676 
L 231.974763 151.602158 
L 232.21428 150.40664 
L 232.460642 149.211122 
L 232.716121 148.015604 
L 232.983259 146.820086 
L 233.26469 145.624568 
L 233.562921 144.429051 
L 233.880122 143.233533 
L 234.217929 142.038015 
L 234.577285 140.842497 
L 234.958335 139.646979 
L 235.360373 138.451461 
L 235.781854 137.255943 
L 236.220452 136.060426 
L 236.673158 134.864908 
L 237.136418 133.66939 
L 237.606277 132.473872 
L 238.078544 131.278354 
L 238.548964 130.082836 
L 239.013389 128.887319 
L 239.467948 127.691801 
L 239.909203 126.496283 
L 240.334284 125.300765 
L 240.740988 124.105247 
L 241.127831 122.909729 
L 241.49405 121.714211 
L 241.839541 120.518694 
L 242.16475 119.323176 
L 242.47053 118.127658 
L 242.757971 116.93214 
L 243.028239 115.736622 
L 243.282437 114.541104 
L 243.521497 113.345586 
L 243.746133 112.150069 
L 243.956821 110.954551 
L 244.153839 109.759033 
L 244.337314 108.563515 
L 244.507297 107.367997 
L 244.663828 106.172479 
L 244.806994 104.976961 
L 246.628944 104.976961 
L 246.628944 104.976961 
L 246.772109 106.172479 
L 246.92864 107.367997 
L 247.098623 108.563515 
L 247.282098 109.759033 
L 247.479116 110.954551 
L 247.689805 112.150069 
L 247.91444 113.345586 
L 248.153501 114.541104 
L 248.407698 115.736622 
L 248.677967 116.93214 
L 248.965408 118.127658 
L 249.271188 119.323176 
L 249.596397 120.518694 
L 249.941887 121.714211 
L 250.308106 122.909729 
L 250.69495 124.105247 
L 251.101653 125.300765 
L 251.526734 126.496283 
L 251.967989 127.691801 
L 252.422549 128.887319 
L 252.886974 130.082836 
L 253.357394 131.278354 
L 253.829661 132.473872 
L 254.299519 133.66939 
L 254.762779 134.864908 
L 255.215486 136.060426 
L 255.654083 137.255943 
L 256.075564 138.451461 
L 256.477603 139.646979 
L 256.858653 140.842497 
L 257.218009 142.038015 
L 257.555815 143.233533 
L 257.873016 144.429051 
L 258.171247 145.624568 
L 258.452678 146.820086 
L 258.719817 148.015604 
L 258.975295 149.211122 
L 259.221658 150.40664 
L 259.461175 151.602158 
L 259.695687 152.797676 
L 259.926497 153.993193 
L 260.154302 155.188711 
L 260.37917 156.384229 
L 260.600556 157.579747 
L 260.817345 158.775265 
L 261.027938 159.970783 
L 261.230374 161.166301 
L 261.42248 162.361818 
L 261.602067 163.557336 
L 261.767128 164.752854 
L 261.91604 165.948372 
L 262.047724 167.14389 
L 262.161731 168.339408 
L 262.258235 169.534926 
L 262.337895 170.730443 
L 262.401615 171.925961 
L 262.450213 173.121479 
L 262.484052 174.316997 
L 262.502698 175.512515 
L 262.504668 176.708033 
L 262.487326 177.90355 
L 262.446968 179.099068 
L 262.379097 180.294586 
L 262.278871 181.490104 
L 262.141674 182.685622 
L 261.963716 183.88114 
L 261.742604 185.076658 
L 261.477767 186.272175 
L 261.170698 187.467693 
L 260.824936 188.663211 
L 260.44581 189.858729 
L 260.039938 191.054247 
L 259.614571 192.249765 
L 259.176846 193.445283 
L 258.733051 194.6408 
L 258.288015 195.836318 
L 257.844684 197.031836 
L 257.403968 198.227354 
L 256.964853 199.422872 
L 256.524781 200.61839 
L 256.080227 201.813908 
L 255.627386 203.009425 
L 255.162883 204.204943 
L 254.684393 205.400461 
L 254.19109 206.595979 
L 253.683877 207.791497 
L 253.165375 208.987015 
L 252.639693 210.182532 
L 252.112018 211.37805 
L 251.588123 212.573568 
L 251.073836 213.769086 
L 250.574582 214.964604 
L 250.095017 216.160122 
L 249.638819 217.35564 
L 249.208615 218.551157 
L 248.806044 219.746675 
L 248.431909 220.942193 
L 248.086376 222.137711 
L 247.769181 223.333229 
z
" clip-path="url(#p5b3474627c)" style="fill: #86b6ef; fill-opacity: 0.85"/>
   </g>
   <g id="FillBetweenPolyCollection_6">
    <path d="M 289.868974 216.086749 
L 285.50046 216.086749 
L 285.169771 214.875351 
L 284.810304 213.663954 
L 284.421984 212.452556 
L 284.005239 211.241158 
L 283.561194 210.029761 
L 283.091833 208.818363 
L 282.600117 207.606965 
L 282.089984 206.395568 
L 281.566234 205.18417 
L 281.03428 203.972772 
L 280.499773 202.761375 
L 279.968151 201.549977 
L 279.444161 200.338579 
L 278.931428 199.127182 
L 278.43214 197.915784 
L 277.946901 196.704386 
L 277.474798 195.492988 
L 277.013679 194.281591 
L 276.560628 193.070193 
L 276.112556 191.858795 
L 275.666861 190.647398 
L 275.222027 189.436 
L 274.778102 188.224602 
L 274.336961 187.013205 
L 273.902317 185.801807 
L 273.479469 184.590409 
L 273.074809 183.379012 
L 272.695155 182.167614 
L 272.347008 180.956216 
L 272.035821 179.744819 
L 271.7654 178.533421 
L 271.537503 177.322023 
L 271.351716 176.110626 
L 271.20559 174.899228 
L 271.095051 173.68783 
L 271.014982 172.476433 
L 270.959908 171.265035 
L 270.92468 170.053637 
L 270.905042 168.84224 
L 270.898018 167.630842 
L 270.902071 166.419444 
L 270.917024 165.208046 
L 270.943779 163.996649 
L 270.983907 162.785251 
L 271.039186 161.573853 
L 271.111167 160.362456 
L 271.200853 159.151058 
L 271.308518 157.93966 
L 271.43369 156.728263 
L 271.57526 155.516865 
L 271.7317 154.305467 
L 271.901308 153.09407 
L 272.082448 151.882672 
L 272.273728 150.671274 
L 272.474112 149.459877 
L 272.682951 148.248479 
L 272.899955 147.037081 
L 273.125138 145.825684 
L 273.358743 144.614286 
L 273.601191 143.402888 
L 273.853048 142.191491 
L 274.115009 140.980093 
L 274.3879 139.768695 
L 274.672672 138.557298 
L 274.970383 137.3459 
L 275.282149 136.134502 
L 275.609074 134.923104 
L 275.952147 133.711707 
L 276.312138 132.500309 
L 276.689473 131.288911 
L 277.084131 130.077514 
L 277.495549 128.866116 
L 277.922557 127.654718 
L 278.363343 126.443321 
L 278.81546 125.231923 
L 279.275863 124.020525 
L 279.741012 122.809128 
L 280.206998 121.59773 
L 280.669725 120.386332 
L 281.125119 119.174935 
L 281.569349 117.963537 
L 281.999043 116.752139 
L 282.411477 115.540742 
L 282.804703 114.329344 
L 283.177608 113.117946 
L 283.529899 111.906549 
L 283.861996 110.695151 
L 284.174881 109.483753 
L 284.469887 108.272356 
L 284.748485 107.060958 
L 285.012085 105.84956 
L 285.261875 104.638162 
L 285.49872 103.426765 
L 285.723117 102.215367 
L 285.935217 101.003969 
L 286.134889 99.792572 
L 286.321815 98.581174 
L 286.495596 97.369776 
L 286.655857 96.158379 
L 288.713578 96.158379 
L 288.713578 96.158379 
L 288.873838 97.369776 
L 289.047619 98.581174 
L 289.234545 99.792572 
L 289.434217 101.003969 
L 289.646318 102.215367 
L 289.870715 103.426765 
L 290.107559 104.638162 
L 290.35735 105.84956 
L 290.62095 107.060958 
L 290.899547 108.272356 
L 291.194553 109.483753 
L 291.507438 110.695151 
L 291.839536 111.906549 
L 292.191826 113.117946 
L 292.564732 114.329344 
L 292.957957 115.540742 
L 293.370392 116.752139 
L 293.800086 117.963537 
L 294.244315 119.174935 
L 294.699709 120.386332 
L 295.162436 121.59773 
L 295.628422 122.809128 
L 296.093571 124.020525 
L 296.553975 125.231923 
L 297.006091 126.443321 
L 297.446878 127.654718 
L 297.873886 128.866116 
L 298.285304 130.077514 
L 298.679962 131.288911 
L 299.057297 132.500309 
L 299.417287 133.711707 
L 299.760361 134.923104 
L 300.087285 136.134502 
L 300.399051 137.3459 
L 300.696762 138.557298 
L 300.981535 139.768695 
L 301.254425 140.980093 
L 301.516386 142.191491 
L 301.768243 143.402888 
L 302.010692 144.614286 
L 302.244296 145.825684 
L 302.469479 147.037081 
L 302.686484 148.248479 
L 302.895322 149.459877 
L 303.095706 150.671274 
L 303.286986 151.882672 
L 303.468126 153.09407 
L 303.637735 154.305467 
L 303.794175 155.516865 
L 303.935745 156.728263 
L 304.060916 157.93966 
L 304.168582 159.151058 
L 304.258268 160.362456 
L 304.330249 161.573853 
L 304.385527 162.785251 
L 304.425656 163.996649 
L 304.452411 165.208046 
L 304.467363 166.419444 
L 304.471417 167.630842 
L 304.464393 168.84224 
L 304.444754 170.053637 
L 304.409526 171.265035 
L 304.354453 172.476433 
L 304.274383 173.68783 
L 304.163844 174.899228 
L 304.017719 176.110626 
L 303.831931 177.322023 
L 303.604035 178.533421 
L 303.333613 179.744819 
L 303.022427 180.956216 
L 302.67428 182.167614 
L 302.294626 183.379012 
L 301.889965 184.590409 
L 301.467118 185.801807 
L 301.032474 187.013205 
L 300.591332 188.224602 
L 300.147407 189.436 
L 299.702573 190.647398 
L 299.256878 191.858795 
L 298.808807 193.070193 
L 298.355755 194.281591 
L 297.894637 195.492988 
L 297.422533 196.704386 
L 296.937294 197.915784 
L 296.438006 199.127182 
L 295.925274 200.338579 
L 295.401283 201.549977 
L 294.869661 202.761375 
L 294.335154 203.972772 
L 293.8032 205.18417 
L 293.279451 206.395568 
L 292.769317 207.606965 
L 292.277601 208.818363 
L 291.808241 210.029761 
L 291.364195 211.241158 
L 290.947451 212.452556 
L 290.559131 213.663954 
L 290.199664 214.875351 
L 289.868974 216.086749 
z
" clip-path="url(#p5b3474627c)" style="fill: #86b6ef; fill-opacity: 0.85"/>
   </g>
   <g id="FillBetweenPolyCollection_7">
    <path d="M 332.111328 203.797346 
L 327.191603 203.797346 
L 326.833376 202.562239 
L 326.445748 201.327131 
L 326.029226 200.092024 
L 325.58495 198.856917 
L 325.114831 197.621809 
L 324.621628 196.386702 
L 324.108961 195.151594 
L 323.581221 193.916487 
L 323.043388 192.681379 
L 322.500742 191.446272 
L 321.958511 190.211164 
L 321.42149 188.976057 
L 320.893682 187.740949 
L 320.378005 186.505842 
L 319.876129 185.270735 
L 319.388459 184.035627 
L 318.914281 182.80052 
L 318.45207 181.565412 
L 317.999908 180.330305 
L 317.555981 179.095197 
L 317.119065 177.86009 
L 316.688951 176.624982 
L 316.266727 175.389875 
L 315.854875 174.154768 
L 315.457163 172.91966 
L 315.078318 171.684553 
L 314.723543 170.449445 
L 314.397916 169.214338 
L 314.105766 167.97923 
L 313.850117 166.744123 
L 313.632289 165.509015 
L 313.451711 164.273908 
L 313.305985 163.0388 
L 313.191204 161.803693 
L 313.102466 160.568586 
L 313.034508 159.333478 
L 312.982376 158.098371 
L 312.942 156.863263 
L 312.910622 155.628156 
L 312.886976 154.393048 
L 312.871242 153.157941 
L 312.864766 151.922833 
L 312.869623 150.687726 
L 312.88811 149.452619 
L 312.922255 148.217511 
L 312.973442 146.982404 
L 313.042192 145.747296 
L 313.12814 144.512189 
L 313.230189 143.277081 
L 313.346794 142.041974 
L 313.476305 140.806866 
L 313.617298 139.571759 
L 313.768837 138.336652 
L 313.930611 137.101544 
L 314.102935 135.866437 
L 314.286629 134.631329 
L 314.482816 133.396222 
L 314.692671 132.161114 
L 314.917193 130.926007 
L 315.157025 129.690899 
L 315.412366 128.455792 
L 315.68297 127.220684 
L 315.96823 125.985577 
L 316.267322 124.75047 
L 316.57938 123.515362 
L 316.903656 122.280255 
L 317.239655 121.045147 
L 317.587199 119.81004 
L 317.946425 118.574932 
L 318.317716 117.339825 
L 318.701558 116.104717 
L 319.098362 114.86961 
L 319.508256 113.634503 
L 319.930885 112.399395 
L 320.365247 111.164288 
L 320.809582 109.92918 
L 321.261348 108.694073 
L 321.717281 107.458965 
L 322.173547 106.223858 
L 322.625974 104.98875 
L 323.070341 103.753643 
L 323.502681 102.518535 
L 323.919578 101.283428 
L 324.318404 100.048321 
L 324.697475 98.813213 
L 325.056107 97.578106 
L 325.394561 96.342998 
L 325.713893 95.107891 
L 326.015727 93.872783 
L 326.301995 92.637676 
L 326.574655 91.402568 
L 326.835457 90.167461 
L 327.085745 88.932354 
L 327.326351 87.697246 
L 327.557554 86.462139 
L 327.779117 85.227031 
L 327.99039 83.991924 
L 328.190439 82.756816 
L 328.378208 81.521709 
L 330.924723 81.521709 
L 330.924723 81.521709 
L 331.112492 82.756816 
L 331.312541 83.991924 
L 331.523814 85.227031 
L 331.745378 86.462139 
L 331.97658 87.697246 
L 332.217186 88.932354 
L 332.467475 90.167461 
L 332.728276 91.402568 
L 333.000937 92.637676 
L 333.287204 93.872783 
L 333.589039 95.107891 
L 333.90837 96.342998 
L 334.246824 97.578106 
L 334.605456 98.813213 
L 334.984527 100.048321 
L 335.383353 101.283428 
L 335.800251 102.518535 
L 336.232591 103.753643 
L 336.676957 104.98875 
L 337.129385 106.223858 
L 337.58565 107.458965 
L 338.041583 108.694073 
L 338.493349 109.92918 
L 338.937684 111.164288 
L 339.372046 112.399395 
L 339.794675 113.634503 
L 340.204569 114.86961 
L 340.601373 116.104717 
L 340.985216 117.339825 
L 341.356506 118.574932 
L 341.715733 119.81004 
L 342.063276 121.045147 
L 342.399275 122.280255 
L 342.723552 123.515362 
L 343.035609 124.75047 
L 343.334702 125.985577 
L 343.619961 127.220684 
L 343.890565 128.455792 
L 344.145906 129.690899 
L 344.385739 130.926007 
L 344.61026 132.161114 
L 344.820115 133.396222 
L 345.016302 134.631329 
L 345.199996 135.866437 
L 345.37232 137.101544 
L 345.534094 138.336652 
L 345.685634 139.571759 
L 345.826627 140.806866 
L 345.956137 142.041974 
L 346.072742 143.277081 
L 346.174792 144.512189 
L 346.260739 145.747296 
L 346.329489 146.982404 
L 346.380676 148.217511 
L 346.414822 149.452619 
L 346.433308 150.687726 
L 346.438165 151.922833 
L 346.431689 153.157941 
L 346.415955 154.393048 
L 346.39231 155.628156 
L 346.360931 156.863263 
L 346.320556 158.098371 
L 346.268423 159.333478 
L 346.200466 160.568586 
L 346.111727 161.803693 
L 345.996947 163.0388 
L 345.851221 164.273908 
L 345.670642 165.509015 
L 345.452814 166.744123 
L 345.197166 167.97923 
L 344.905015 169.214338 
L 344.579388 170.449445 
L 344.224614 171.684553 
L 343.845769 172.91966 
L 343.448056 174.154768 
L 343.036204 175.389875 
L 342.61398 176.624982 
L 342.183866 177.86009 
L 341.746951 179.095197 
L 341.303023 180.330305 
L 340.850861 181.565412 
L 340.38865 182.80052 
L 339.914472 184.035627 
L 339.426802 185.270735 
L 338.924927 186.505842 
L 338.40925 187.740949 
L 337.881441 188.976057 
L 337.34442 190.211164 
L 336.802189 191.446272 
L 336.259543 192.681379 
L 335.72171 193.916487 
L 335.193971 195.151594 
L 334.681303 196.386702 
L 334.1881 197.621809 
L 333.717981 198.856917 
L 333.273706 200.092024 
L 332.857183 201.327131 
L 332.469555 202.562239 
L 332.111328 203.797346 
z
" clip-path="url(#p5b3474627c)" style="fill: #86b6ef; fill-opacity: 0.85"/>
   </g>
   <g id="FillBetweenPolyCollection_8">
    <path d="M 373.822421 191.651654 
L 369.414007 191.651654 
L 369.071627 190.375725 
L 368.696563 189.099796 
L 368.288655 187.823868 
L 367.848389 186.547939 
L 367.377046 185.27201 
L 366.876819 183.996082 
L 366.350869 182.720153 
L 365.803319 181.444224 
L 365.239154 180.168295 
L 364.66403 178.892367 
L 364.084008 177.616438 
L 363.505223 176.340509 
L 362.93353 175.06458 
L 362.374158 173.788652 
L 361.831415 172.512723 
L 361.308487 171.236794 
L 360.80734 169.960866 
L 360.328761 168.684937 
L 359.872517 167.409008 
L 359.437627 166.133079 
L 359.022703 164.857151 
L 358.626318 163.581222 
L 358.247351 162.305293 
L 357.885256 161.029365 
L 357.540218 159.753436 
L 357.213164 158.477507 
L 356.905641 157.201578 
L 356.619559 155.92565 
L 356.356859 154.649721 
L 356.119149 153.373792 
L 355.907377 152.097863 
L 355.721597 150.821935 
L 355.560871 149.546006 
L 355.423332 148.270077 
L 355.306405 146.994149 
L 355.207133 145.71822 
L 355.122579 144.442291 
L 355.050214 143.166362 
L 354.988231 141.890434 
L 354.93573 140.614505 
L 354.892742 139.338576 
L 354.860098 138.062648 
L 354.839167 136.786719 
L 354.831515 135.51079 
L 354.838566 134.234861 
L 354.861316 132.958933 
L 354.900167 131.683004 
L 354.954889 130.407075 
L 355.02474 129.131146 
L 355.108681 127.855218 
L 355.205663 126.579289 
L 355.314902 125.30336 
L 355.436107 124.027432 
L 355.569591 122.751503 
L 355.716257 121.475574 
L 355.877464 120.199645 
L 356.054781 118.923717 
L 356.249696 117.647788 
L 356.463321 116.371859 
L 356.696152 115.09593 
L 356.94792 113.820002 
L 357.217568 112.544073 
L 357.50335 111.268144 
L 357.803048 109.992216 
L 358.114254 108.716287 
L 358.434696 107.440358 
L 358.762538 106.164429 
L 359.096622 104.888501 
L 359.436614 103.612572 
L 359.783015 102.336643 
L 360.137057 101.060715 
L 360.500474 99.784786 
L 360.875185 98.508857 
L 361.262926 97.232928 
L 361.664883 95.957 
L 362.081369 94.681071 
L 362.511595 93.405142 
L 362.953566 92.129213 
L 363.404125 90.853285 
L 363.859132 89.577356 
L 364.313775 88.301427 
L 364.762966 87.025499 
L 365.201766 85.74957 
L 365.625808 84.473641 
L 366.031642 83.197712 
L 366.416974 81.921784 
L 366.780771 80.645855 
L 367.123225 79.369926 
L 367.445582 78.093998 
L 367.749875 76.818069 
L 368.038589 75.54214 
L 368.31431 74.266211 
L 368.579402 72.990283 
L 368.835741 71.714354 
L 369.084539 70.438425 
L 369.326267 69.162496 
L 369.56067 67.886568 
L 369.786871 66.610639 
L 370.003535 65.33471 
L 373.232893 65.33471 
L 373.232893 65.33471 
L 373.449557 66.610639 
L 373.675759 67.886568 
L 373.910161 69.162496 
L 374.151889 70.438425 
L 374.400687 71.714354 
L 374.657026 72.990283 
L 374.922118 74.266211 
L 375.197839 75.54214 
L 375.486553 76.818069 
L 375.790846 78.093998 
L 376.113203 79.369926 
L 376.455657 80.645855 
L 376.819454 81.921784 
L 377.204786 83.197712 
L 377.61062 84.473641 
L 378.034662 85.74957 
L 378.473463 87.025499 
L 378.922653 88.301427 
L 379.377296 89.577356 
L 379.832303 90.853285 
L 380.282862 92.129213 
L 380.724833 93.405142 
L 381.155059 94.681071 
L 381.571545 95.957 
L 381.973502 97.232928 
L 382.361243 98.508857 
L 382.735954 99.784786 
L 383.099371 101.060715 
L 383.453414 102.336643 
L 383.799814 103.612572 
L 384.139806 104.888501 
L 384.47389 106.164429 
L 384.801732 107.440358 
L 385.122174 108.716287 
L 385.43338 109.992216 
L 385.733078 111.268144 
L 386.018861 112.544073 
L 386.288508 113.820002 
L 386.540276 115.09593 
L 386.773107 116.371859 
L 386.986733 117.647788 
L 387.181648 118.923717 
L 387.358964 120.199645 
L 387.520171 121.475574 
L 387.666838 122.751503 
L 387.800321 124.027432 
L 387.921526 125.30336 
L 388.030765 126.579289 
L 388.127747 127.855218 
L 388.211688 129.131146 
L 388.281539 130.407075 
L 388.336262 131.683004 
L 388.375112 132.958933 
L 388.397863 134.234861 
L 388.404913 135.51079 
L 388.397261 136.786719 
L 388.37633 138.062648 
L 388.343687 139.338576 
L 388.300699 140.614505 
L 388.248197 141.890434 
L 388.186214 143.166362 
L 388.113849 144.442291 
L 388.029295 145.71822 
L 387.930023 146.994149 
L 387.813096 148.270077 
L 387.675558 149.546006 
L 387.514831 150.821935 
L 387.329051 152.097863 
L 387.11728 153.373792 
L 386.87957 154.649721 
L 386.61687 155.92565 
L 386.330787 157.201578 
L 386.023264 158.477507 
L 385.696211 159.753436 
L 385.351172 161.029365 
L 384.989078 162.305293 
L 384.610111 163.581222 
L 384.213725 164.857151 
L 383.798801 166.133079 
L 383.363911 167.409008 
L 382.907667 168.684937 
L 382.429088 169.960866 
L 381.927941 171.236794 
L 381.405013 172.512723 
L 380.862271 173.788652 
L 380.302898 175.06458 
L 379.731205 176.340509 
L 379.15242 177.616438 
L 378.572398 178.892367 
L 377.997275 180.168295 
L 377.433109 181.444224 
L 376.885559 182.720153 
L 376.359609 183.996082 
L 375.859382 185.27201 
L 375.388039 186.547939 
L 374.947773 187.823868 
L 374.539865 189.099796 
L 374.164801 190.375725 
L 373.822421 191.651654 
z
" clip-path="url(#p5b3474627c)" style="fill: #86b6ef; fill-opacity: 0.85"/>
   </g>
   <g id="FillBetweenPolyCollection_9">
    <path d="M 415.108927 159.4954 
L 412.060998 159.4954 
L 411.778695 158.078752 
L 411.459162 156.662104 
L 411.100598 155.245456 
L 410.701802 153.828809 
L 410.262322 152.412161 
L 409.782604 150.995513 
L 409.264129 149.578865 
L 408.709529 148.162218 
L 408.12266 146.74557 
L 407.508643 145.328922 
L 406.873829 143.912274 
L 406.225694 142.495627 
L 405.572656 141.078979 
L 404.923793 139.662331 
L 404.288485 138.245683 
L 403.675984 136.829036 
L 403.094935 135.412388 
L 402.552889 133.99574 
L 402.055837 132.579092 
L 401.607819 131.162445 
L 401.210637 129.745797 
L 400.863727 128.329149 
L 400.564187 126.912501 
L 400.306995 125.495854 
L 400.085389 124.079206 
L 399.891396 122.662558 
L 399.716463 121.24591 
L 399.552127 119.829263 
L 399.390673 118.412615 
L 399.22572 116.995967 
L 399.052665 115.579319 
L 398.868954 114.162672 
L 398.674164 112.746024 
L 398.469873 111.329376 
L 398.259368 109.912728 
L 398.047201 108.496081 
L 397.838671 107.079433 
L 397.639285 105.662785 
L 397.454241 104.246137 
L 397.288019 102.82949 
L 397.144069 101.412842 
L 397.024661 99.996194 
L 396.930857 98.579547 
L 396.862608 97.162899 
L 396.818952 95.746251 
L 396.798263 94.329603 
L 396.798531 92.912956 
L 396.817632 91.496308 
L 396.853575 90.07966 
L 396.904693 88.663012 
L 396.969779 87.246365 
L 397.048163 85.829717 
L 397.139715 84.413069 
L 397.244801 82.996421 
L 397.364178 81.579774 
L 397.498849 80.163126 
L 397.649894 78.746478 
L 397.818284 77.32983 
L 398.004705 75.913183 
L 398.209406 74.496535 
L 398.432091 73.079887 
L 398.671869 71.663239 
L 398.927268 70.246592 
L 399.196321 68.829944 
L 399.476718 67.413296 
L 399.766 65.996648 
L 400.061799 64.580001 
L 400.362079 63.163353 
L 400.665356 61.746705 
L 400.970883 60.330057 
L 401.278757 58.91341 
L 401.589941 57.496762 
L 401.906187 56.080114 
L 402.229859 54.663466 
L 402.563672 53.246819 
L 402.910354 51.830171 
L 403.272291 50.413523 
L 403.651171 48.996875 
L 404.047673 47.580228 
L 404.461255 46.16358 
L 404.890055 44.746932 
L 405.330933 43.330284 
L 405.779648 41.913637 
L 406.231163 40.496989 
L 406.68004 39.080341 
L 407.120883 37.663693 
L 407.548774 36.247046 
L 407.959661 34.830398 
L 408.350644 33.41375 
L 408.72013 31.997102 
L 409.067849 30.580455 
L 409.394727 29.163807 
L 409.702636 27.747159 
L 409.994069 26.330511 
L 410.271765 24.913864 
L 410.538346 23.497216 
L 410.795998 22.080568 
L 411.046241 20.66392 
L 411.289793 19.247273 
L 415.880132 19.247273 
L 415.880132 19.247273 
L 416.123684 20.66392 
L 416.373927 22.080568 
L 416.63158 23.497216 
L 416.89816 24.913864 
L 417.175856 26.330511 
L 417.467289 27.747159 
L 417.775198 29.163807 
L 418.102076 30.580455 
L 418.449795 31.997102 
L 418.819281 33.41375 
L 419.210264 34.830398 
L 419.621151 36.247046 
L 420.049042 37.663693 
L 420.489885 39.080341 
L 420.938762 40.496989 
L 421.390277 41.913637 
L 421.838992 43.330284 
L 422.27987 44.746932 
L 422.70867 46.16358 
L 423.122252 47.580228 
L 423.518754 48.996875 
L 423.897634 50.413523 
L 424.259572 51.830171 
L 424.606254 53.246819 
L 424.940066 54.663466 
L 425.263738 56.080114 
L 425.579984 57.496762 
L 425.891168 58.91341 
L 426.199042 60.330057 
L 426.504569 61.746705 
L 426.807846 63.163353 
L 427.108126 64.580001 
L 427.403926 65.996648 
L 427.693207 67.413296 
L 427.973604 68.829944 
L 428.242657 70.246592 
L 428.498056 71.663239 
L 428.737834 73.079887 
L 428.960519 74.496535 
L 429.16522 75.913183 
L 429.351641 77.32983 
L 429.520031 78.746478 
L 429.671076 80.163126 
L 429.805747 81.579774 
L 429.925124 82.996421 
L 430.03021 84.413069 
L 430.121763 85.829717 
L 430.200146 87.246365 
L 430.265233 88.663012 
L 430.31635 90.07966 
L 430.352293 91.496308 
L 430.371394 92.912956 
L 430.371662 94.329603 
L 430.350973 95.746251 
L 430.307317 97.162899 
L 430.239069 98.579547 
L 430.145264 99.996194 
L 430.025856 101.412842 
L 429.881907 102.82949 
L 429.715684 104.246137 
L 429.53064 105.662785 
L 429.331254 107.079433 
L 429.122725 108.496081 
L 428.910557 109.912728 
L 428.700052 111.329376 
L 428.495761 112.746024 
L 428.300971 114.162672 
L 428.11726 115.579319 
L 427.944205 116.995967 
L 427.779252 118.412615 
L 427.617799 119.829263 
L 427.453462 121.24591 
L 427.278529 122.662558 
L 427.084536 124.079206 
L 426.86293 125.495854 
L 426.605738 126.912501 
L 426.306198 128.329149 
L 425.959288 129.745797 
L 425.562107 131.162445 
L 425.114088 132.579092 
L 424.617036 133.99574 
L 424.07499 135.412388 
L 423.493941 136.829036 
L 422.88144 138.245683 
L 422.246132 139.662331 
L 421.597269 141.078979 
L 420.944231 142.495627 
L 420.296096 143.912274 
L 419.661282 145.328922 
L 419.047265 146.74557 
L 418.460396 148.162218 
L 417.905796 149.578865 
L 417.387321 150.995513 
L 416.907603 152.412161 
L 416.468123 153.828809 
L 416.069327 155.245456 
L 415.710764 156.662104 
L 415.391231 158.078752 
L 415.108927 159.4954 
z
" clip-path="url(#p5b3474627c)" style="fill: #86b6ef; fill-opacity: 0.85"/>
   </g>
   <g id="LineCollection_1">
    <path d="M 69.457625 153.228762 
L 86.244325 153.228762 
" clip-path="url(#p5b3474627c)" style="fill: none; stroke: #1c5cab; stroke-width: 1.4"/>
    <path d="M 111.424374 120.893959 
L 128.211073 120.893959 
" clip-path="url(#p5b3474627c)" style="fill: none; stroke: #1c5cab; stroke-width: 1.4"/>
    <path d="M 153.391122 111.66602 
L 170.177822 111.66602 
" clip-path="url(#p5b3474627c)" style="fill: none; stroke: #1c5cab; stroke-width: 1.4"/>
    <path d="M 195.357871 103.753247 
L 212.14457 103.753247 
" clip-path="url(#p5b3474627c)" style="fill: none; stroke: #1c5cab; stroke-width: 1.4"/>
    <path d="M 237.324619 104.976961 
L 254.111318 104.976961 
" clip-path="url(#p5b3474627c)" style="fill: none; stroke: #1c5cab; stroke-width: 1.4"/>
    <path d="M 279.291368 96.158379 
L 296.078067 96.158379 
" clip-path="url(#p5b3474627c)" style="fill: none; stroke: #1c5cab; stroke-width: 1.4"/>
    <path d="M 321.258116 81.521709 
L 338.044815 81.521709 
" clip-path="url(#p5b3474627c)" style="fill: none; stroke: #1c5cab; stroke-width: 1.4"/>
    <path d="M 363.224864 65.33471 
L 380.011564 65.33471 
" clip-path="url(#p5b3474627c)" style="fill: none; stroke: #1c5cab; stroke-width: 1.4"/>
    <path d="M 405.191613 19.247273 
L 421.978312 19.247273 
" clip-path="url(#p5b3474627c)" style="fill: none; stroke: #1c5cab; stroke-width: 1.4"/>
   </g>
   <g id="LineCollection_2">
    <path d="M 69.457625 260.192727 
L 86.244325 260.192727 
" clip-path="url(#p5b3474627c)" style="fill: none; stroke: #1c5cab; stroke-width: 1.4"/>
    <path d="M 111.424374 235.535534 
L 128.211073 235.535534 
" clip-path="url(#p5b3474627c)" style="fill: none; stroke: #1c5cab; stroke-width: 1.4"/>
    <path d="M 153.391122 228.363087 
L 170.177822 228.363087 
" clip-path="url(#p5b3474627c)" style="fill: none; stroke: #1c5cab; stroke-width: 1.4"/>
    <path d="M 195.357871 221.748061 
L 212.14457 221.748061 
" clip-path="url(#p5b3474627c)" style="fill: none; stroke: #1c5cab; stroke-width: 1.4"/>
    <path d="M 237.324619 223.333229 
L 254.111318 223.333229 
" clip-path="url(#p5b3474627c)" style="fill: none; stroke: #1c5cab; stroke-width: 1.4"/>
    <path d="M 279.291368 216.086749 
L 296.078067 216.086749 
" clip-path="url(#p5b3474627c)" style="fill: none; stroke: #1c5cab; stroke-width: 1.4"/>
    <path d="M 321.258116 203.797346 
L 338.044815 203.797346 
" clip-path="url(#p5b3474627c)" style="fill: none; stroke: #1c5cab; stroke-width: 1.4"/>
    <path d="M 363.224864 191.651654 
L 380.011564 191.651654 
" clip-path="url(#p5b3474627c)" style="fill: none; stroke: #1c5cab; stroke-width: 1.4"/>
    <path d="M 405.191613 159.4954 
L 421.978312 159.4954 
" clip-path="url(#p5b3474627c)" style="fill: none; stroke: #1c5cab; stroke-width: 1.4"/>
   </g>
   <g id="LineCollection_3">
    <path d="M 77.850975 260.192727 
L 77.850975 153.228762 
" clip-path="url(#p5b3474627c)" style="fill: none; stroke: #1c5cab; stroke-width: 1.4"/>
    <path d="M 119.817723 235.535534 
L 119.817723 120.893959 
" clip-path="url(#p5b3474627c)" style="fill: none; stroke: #1c5cab; stroke-width: 1.4"/>
    <path d="M 161.784472 228.363087 
L 161.784472 111.66602 
" clip-path="url(#p5b3474627c)" style="fill: none; stroke: #1c5cab; stroke-width: 1.4"/>
    <path d="M 203.75122 221.748061 
L 203.75122 103.753247 
" clip-path="url(#p5b3474627c)" style="fill: none; stroke: #1c5cab; stroke-width: 1.4"/>
    <path d="M 245.717969 223.333229 
L 245.717969 104.976961 
" clip-path="url(#p5b3474627c)" style="fill: none; stroke: #1c5cab; stroke-width: 1.4"/>
    <path d="M 287.684717 216.086749 
L 287.684717 96.158379 
" clip-path="url(#p5b3474627c)" style="fill: none; stroke: #1c5cab; stroke-width: 1.4"/>
    <path d="M 329.651466 203.797346 
L 329.651466 81.521709 
" clip-path="url(#p5b3474627c)" style="fill: none; stroke: #1c5cab; stroke-width: 1.4"/>
    <path d="M 371.618214 191.651654 
L 371.618214 65.33471 
" clip-path="url(#p5b3474627c)" style="fill: none; stroke: #1c5cab; stroke-width: 1.4"/>
    <path d="M 413.584963 159.4954 
L 413.584963 19.247273 
" clip-path="url(#p5b3474627c)" style="fill: none; stroke: #1c5cab; stroke-width: 1.4"/>
   </g>
   <g id="LineCollection_4">
    <path d="M 69.457625 213.955047 
L 86.244325 213.955047 
" clip-path="url(#p5b3474627c)" style="fill: none; stroke: #1c5cab; stroke-width: 1.4"/>
    <path d="M 111.424374 184.433481 
L 128.211073 184.433481 
" clip-path="url(#p5b3474627c)" style="fill: none; stroke: #1c5cab; stroke-width: 1.4"/>
    <path d="M 153.391122 175.610543 
L 170.177822 175.610543 
" clip-path="url(#p5b3474627c)" style="fill: none; stroke: #1c5cab; stroke-width: 1.4"/>
    <path d="M 195.357871 168.305273 
L 212.14457 168.305273 
" clip-path="url(#p5b3474627c)" style="fill: none; stroke: #1c5cab; stroke-width: 1.4"/>
    <path d="M 237.324619 169.766327 
L 254.111318 169.766327 
" clip-path="url(#p5b3474627c)" style="fill: none; stroke: #1c5cab; stroke-width: 1.4"/>
    <path d="M 279.291368 161.263471 
L 296.078067 161.263471 
" clip-path="url(#p5b3474627c)" style="fill: none; stroke: #1c5cab; stroke-width: 1.4"/>
    <path d="M 321.258116 148.60826 
L 338.044815 148.60826 
" clip-path="url(#p5b3474627c)" style="fill: none; stroke: #1c5cab; stroke-width: 1.4"/>
    <path d="M 363.224864 133.688525 
L 380.011564 133.688525 
" clip-path="url(#p5b3474627c)" style="fill: none; stroke: #1c5cab; stroke-width: 1.4"/>
    <path d="M 405.191613 90.963036 
L 421.978312 90.963036 
" clip-path="url(#p5b3474627c)" style="fill: none; stroke: #1c5cab; stroke-width: 1.4"/>
   </g>
   <g id="patch_3">
    <path d="M 42.598906 272.24 
L 42.598906 7.2 
" style="fill: none; stroke: #c3c2b7; stroke-width: 0.8; stroke-linejoin: miter; stroke-linecap: square"/>
   </g>
   <g id="patch_4">
    <path d="M 42.598906 272.24 
L 448.837031 272.24 
" style="fill: none; stroke: #c3c2b7; stroke-width: 0.8; stroke-linejoin: miter; stroke-linecap: square"/>
   </g>
  </g>
 </g>
 <defs>
  <clipPath id="p5b3474627c">
   <rect x="42.598906" y="7.2" width="406.238125" height="265.04"/>
  </clipPath>
 </defs>
</svg>
