<?xml version="1.0" encoding="utf-8" standalone="no"?>
<!DOCTYPE svg PUBLIC "-//W3C//DTD SVG 1.1//EN"
  "http://www.w3.org/Graphics/SVG/1.1/DTD/svg11.dtd">
<svg xmlns:xlink="http://www.w3.org/1999/xlink" width="500.122475pt" height="420.48pt" viewBox="0 0 500.122475 420.48" xmlns="http://www.w3.org/2000/svg" version="1.1">
 <metadata>
  <rdf:RDF xmlns:dc="http://purl.org/dc/elements/1.1/" xmlns:cc="http://creativecommons.org/ns#" xmlns:rdf="http://www.w3.org/1999/02/22-rdf-syntax-ns#">
   <cc:Work>
    <dc:type rdf:resource="http://purl.org/dc/dcmitype/StillImage"/>
    <dc:date>2026-07-15T23:16:29.877613</dc:date>
    <dc:format>image/svg+xml</dc:format>
    <dc:creator>
     <cc:Agent>
      <dc:title>Matplotlib v3.10.1, https://matplotlib.org/</dc:title>
     </cc:Agent>
    </dc:creator>
   </cc:Work>
  </rdf:RDF>
 </metadata>
 <defs>
  <style type="text/css">*{stroke-linejoin: round; stroke-linecap: butt}</style>
 </defs>
 <g id="figure_1">
  <g id="patch_1">
   <path d="M 0 420.48 
L 500.122475 420.48 
L 500.122475 0 
L 0 0 
z
" style="fill: #ffffff"/>
  </g>
  <g id="patch_2">
   <path d="M 25.4225 413.28 
L 431.5025 413.28 
L 431.5025 7.2 
L 25.4225 7.2 
z
" style="fill: #ffffff"/>
  </g>
  <g id="pane3d_1">
   <g id="patch_3">
    <path d="M 233.950068 224.517754 
L 52.213332 294.114838 
L 46.031396 112.350286 
L 233.950068 53.926831 
" style="fill: #ffffff; opacity: 0.5"/>
   </g>
  </g>
  <g id="pane3d_2">
   <g id="patch_4">
    <path d="M 415.686804 294.114838 
L 233.950068 224.517754 
L 233.950068 53.926831 
L 421.868739 112.350286 
" style="fill: #ffffff; opacity: 0.5"/>
   </g>
  </g>
  <g id="pane3d_3">
   <g id="patch_5">
    <path d="M 415.686804 294.114838 
L 233.950068 224.517754 
L 52.213332 294.114838 
L 233.950068 375.285774 
" style="fill: #ffffff; opacity: 0.5"/>
   </g>
  </g>
  <g id="grid3d_1">
   <g id="Line3DCollection_1">
    <path d="M 202.160381 361.087221 
L 384.051844 282.000056 
L 389.092197 102.160139 
" style="fill: none; stroke: #e1e0d9; stroke-width: 0.6"/>
    <path d="M 169.886312 346.672324 
L 351.868003 269.675077 
L 355.775339 91.80201 
" style="fill: none; stroke: #e1e0d9; stroke-width: 0.6"/>
    <path d="M 138.492024 332.650372 
L 320.49665 257.661244 
L 323.32708 81.713925 
" style="fill: none; stroke: #e1e0d9; stroke-width: 0.6"/>
    <path d="M 107.942027 319.005514 
L 289.907401 245.946923 
L 291.713889 71.885461 
" style="fill: none; stroke: #e1e0d9; stroke-width: 0.6"/>
    <path d="M 78.202714 305.722741 
L 260.07137 234.521051 
L 260.903938 62.306723 
" style="fill: none; stroke: #e1e0d9; stroke-width: 0.6"/>
   </g>
  </g>
  <g id="grid3d_2">
   <g id="Line3DCollection_2">
    <path d="M 221.503158 57.796545 
L 221.885368 229.137997 
L 403.688507 299.473759 
" style="fill: none; stroke: #e1e0d9; stroke-width: 0.6"/>
    <path d="M 190.090584 67.562637 
L 191.454611 240.791623 
L 373.383481 313.009203 
" style="fill: none; stroke: #e1e0d9; stroke-width: 0.6"/>
    <path d="M 157.837667 77.58999 
L 160.235424 252.747183 
L 342.230981 326.923162 
" style="fill: none; stroke: #e1e0d9; stroke-width: 0.6"/>
    <path d="M 124.710231 87.889229 
L 128.196762 265.016565 
L 310.194954 341.231741 
" style="fill: none; stroke: #e1e0d9; stroke-width: 0.6"/>
    <path d="M 90.672216 98.471564 
L 95.30593 277.61229 
L 277.237272 355.951967 
" style="fill: none; stroke: #e1e0d9; stroke-width: 0.6"/>
    <path d="M 55.685558 109.348831 
L 61.528472 290.547553 
L 243.317581 371.101865 
" style="fill: none; stroke: #e1e0d9; stroke-width: 0.6"/>
   </g>
  </g>
  <g id="grid3d_3">
   <g id="Line3DCollection_3">
    <path d="M 415.752259 292.190284 
L 233.950068 222.707174 
L 52.147876 292.190284 
" style="fill: none; stroke: #e1e0d9; stroke-width: 0.6"/>
    <path d="M 416.452996 271.586829 
L 233.950068 203.329706 
L 51.447139 271.586829 
" style="fill: none; stroke: #e1e0d9; stroke-width: 0.6"/>
    <path d="M 417.159157 250.823932 
L 233.950068 183.813053 
L 50.740979 250.823932 
" style="fill: none; stroke: #e1e0d9; stroke-width: 0.6"/>
    <path d="M 417.870803 229.899734 
L 233.950068 164.155712 
L 50.029332 229.899734 
" style="fill: none; stroke: #e1e0d9; stroke-width: 0.6"/>
    <path d="M 418.587999 208.81235 
L 233.950068 144.356156 
L 49.312136 208.81235 
" style="fill: none; stroke: #e1e0d9; stroke-width: 0.6"/>
    <path d="M 419.31081 187.559862 
L 233.950068 124.412835 
L 48.589325 187.559862 
" style="fill: none; stroke: #e1e0d9; stroke-width: 0.6"/>
    <path d="M 420.039303 166.140323 
L 233.950068 104.324178 
L 47.860832 166.140323 
" style="fill: none; stroke: #e1e0d9; stroke-width: 0.6"/>
    <path d="M 420.773545 144.551757 
L 233.950068 84.088591 
L 47.12659 144.551757 
" style="fill: none; stroke: #e1e0d9; stroke-width: 0.6"/>
    <path d="M 421.513604 122.792154 
L 233.950068 63.704455 
L 46.386531 122.792154 
" style="fill: none; stroke: #e1e0d9; stroke-width: 0.6"/>
   </g>
  </g>
  <g id="axis3d_1">
   <g id="line2d_1">
    <path d="M 52.213332 294.114838 
L 233.950068 375.285774 
" style="fill: none; stroke: #c3c2b7; stroke-width: 0.8; stroke-linecap: square"/>
   </g>
   <g id="xtick_1">
    <g id="line2d_2">
     <path d="M 233.950068 204.752432 
" clip-path="url(#p81c2b92474)" style="fill: none; stroke: #e1e0d9; stroke-width: 0.6; stroke-linecap: square"/>
    </g>
    <g id="line2d_3">
     <path d="M 203.733848 360.403071 
L 199.007243 362.458218 
" style="fill: none; stroke: #898781; stroke-width: 0.8; stroke-linecap: square"/>
    </g>
    <g id="text_1">
     <!-- 95 -->
     <g style="fill: #898781" transform="translate(185.931628 383.02147) scale(0.1 -0.1)">
      <defs>
       <path id="ArialMT-39" d="M 350 1059 
L 891 1109 
Q 959 728 1153 556 
Q 1347 384 1650 384 
Q 1909 384 2104 503 
Q 2300 622 2425 820 
Q 2550 1019 2634 1356 
Q 2719 1694 2719 2044 
Q 2719 2081 2716 2156 
Q 2547 1888 2255 1720 
Q 1963 1553 1622 1553 
Q 1053 1553 659 1965 
Q 266 2378 266 3053 
Q 266 3750 677 4175 
Q 1088 4600 1706 4600 
Q 2153 4600 2523 4359 
Q 2894 4119 3086 3673 
Q 3278 3228 3278 2384 
Q 3278 1506 3087 986 
Q 2897 466 2520 194 
Q 2144 -78 1638 -78 
Q 1100 -78 759 220 
Q 419 519 350 1059 
z
M 2653 3081 
Q 2653 3566 2395 3850 
Q 2138 4134 1775 4134 
Q 1400 4134 1122 3828 
Q 844 3522 844 3034 
Q 844 2597 1108 2323 
Q 1372 2050 1759 2050 
Q 2150 2050 2401 2323 
Q 2653 2597 2653 3081 
z
" transform="scale(0.015625)"/>
       <path id="ArialMT-35" d="M 266 1200 
L 856 1250 
Q 922 819 1161 601 
Q 1400 384 1738 384 
Q 2144 384 2425 690 
Q 2706 997 2706 1503 
Q 2706 1984 2436 2262 
Q 2166 2541 1728 2541 
Q 1456 2541 1237 2417 
Q 1019 2294 894 2097 
L 366 2166 
L 809 4519 
L 3088 4519 
L 3088 3981 
L 1259 3981 
L 1013 2750 
Q 1425 3038 1878 3038 
Q 2478 3038 2890 2622 
Q 3303 2206 3303 1553 
Q 3303 931 2941 478 
Q 2500 -78 1738 -78 
Q 1113 -78 717 272 
Q 322 622 266 1200 
z
" transform="scale(0.015625)"/>
      </defs>
      <use xlink:href="#ArialMT-39"/>
      <use xlink:href="#ArialMT-35" transform="translate(55.615234 0)"/>
     </g>
    </g>
   </g>
   <g id="xtick_2">
    <g id="line2d_4">
     <path d="M 233.950068 204.752432 
" clip-path="url(#p81c2b92474)" style="fill: none; stroke: #e1e0d9; stroke-width: 0.6; stroke-linecap: square"/>
    </g>
    <g id="line2d_5">
     <path d="M 171.458924 346.006944 
L 166.734972 348.005669 
" style="fill: none; stroke: #898781; stroke-width: 0.8; stroke-linecap: square"/>
    </g>
    <g id="text_2">
     <!-- 100 -->
     <g style="fill: #898781" transform="translate(150.943539 368.365548) scale(0.1 -0.1)">
      <defs>
       <path id="ArialMT-31" d="M 2384 0 
L 1822 0 
L 1822 3584 
Q 1619 3391 1289 3197 
Q 959 3003 697 2906 
L 697 3450 
Q 1169 3672 1522 3987 
Q 1875 4303 2022 4600 
L 2384 4600 
L 2384 0 
z
" transform="scale(0.015625)"/>
       <path id="ArialMT-30" d="M 266 2259 
Q 266 3072 433 3567 
Q 600 4063 929 4331 
Q 1259 4600 1759 4600 
Q 2128 4600 2406 4451 
Q 2684 4303 2865 4023 
Q 3047 3744 3150 3342 
Q 3253 2941 3253 2259 
Q 3253 1453 3087 958 
Q 2922 463 2592 192 
Q 2263 -78 1759 -78 
Q 1097 -78 719 397 
Q 266 969 266 2259 
z
M 844 2259 
Q 844 1131 1108 757 
Q 1372 384 1759 384 
Q 2147 384 2411 759 
Q 2675 1134 2675 2259 
Q 2675 3391 2411 3762 
Q 2147 4134 1753 4134 
Q 1366 4134 1134 3806 
Q 844 3388 844 2259 
z
" transform="scale(0.015625)"/>
      </defs>
      <use xlink:href="#ArialMT-31"/>
      <use xlink:href="#ArialMT-30" transform="translate(55.615234 0)"/>
      <use xlink:href="#ArialMT-30" transform="translate(111.230469 0)"/>
     </g>
    </g>
   </g>
   <g id="xtick_3">
    <g id="line2d_6">
     <path d="M 233.950068 204.752432 
" clip-path="url(#p81c2b92474)" style="fill: none; stroke: #e1e0d9; stroke-width: 0.6; stroke-linecap: square"/>
    </g>
    <g id="line2d_7">
     <path d="M 140.063244 332.003001 
L 135.343557 333.947596 
" style="fill: none; stroke: #898781; stroke-width: 0.8; stroke-linecap: square"/>
    </g>
    <g id="text_3">
     <!-- 105 -->
     <g style="fill: #898781" transform="translate(119.61607 354.110135) scale(0.1 -0.1)">
      <use xlink:href="#ArialMT-31"/>
      <use xlink:href="#ArialMT-30" transform="translate(55.615234 0)"/>
      <use xlink:href="#ArialMT-35" transform="translate(111.230469 0)"/>
     </g>
    </g>
   </g>
   <g id="xtick_4">
    <g id="line2d_8">
     <path d="M 233.950068 204.752432 
" clip-path="url(#p81c2b92474)" style="fill: none; stroke: #e1e0d9; stroke-width: 0.6; stroke-linecap: square"/>
    </g>
    <g id="line2d_9">
     <path d="M 109.511361 318.375431 
L 104.797421 320.268065 
" style="fill: none; stroke: #898781; stroke-width: 0.8; stroke-linecap: square"/>
    </g>
    <g id="text_4">
     <!-- 110 -->
     <g style="fill: #898781" transform="translate(89.501911 340.239035) scale(0.1 -0.1)">
      <use xlink:href="#ArialMT-31"/>
      <use xlink:href="#ArialMT-31" transform="translate(48.240234 0)"/>
      <use xlink:href="#ArialMT-30" transform="translate(103.855469 0)"/>
     </g>
    </g>
   </g>
   <g id="xtick_5">
    <g id="line2d_10">
     <path d="M 233.950068 204.752432 
" clip-path="url(#p81c2b92474)" style="fill: none; stroke: #e1e0d9; stroke-width: 0.6; stroke-linecap: square"/>
    </g>
    <g id="line2d_11">
     <path d="M 79.769708 305.109262 
L 75.062876 306.95199 
" style="fill: none; stroke: #898781; stroke-width: 0.8; stroke-linecap: square"/>
    </g>
    <g id="text_5">
     <!-- 115 -->
     <g style="fill: #898781" transform="translate(59.829863 326.736913) scale(0.1 -0.1)">
      <use xlink:href="#ArialMT-31"/>
      <use xlink:href="#ArialMT-31" transform="translate(48.240234 0)"/>
      <use xlink:href="#ArialMT-35" transform="translate(103.855469 0)"/>
     </g>
    </g>
   </g>
   <g id="text_6">
    <!-- Net-import EUI (kWh/m²/yr) -->
    <g style="fill: #52514e" transform="translate(44.246091 343.761021) rotate(-335.93254) scale(0.12 -0.12)">
     <defs>
      <path id="ArialMT-4e" d="M 488 0 
L 488 4581 
L 1109 4581 
L 3516 984 
L 3516 4581 
L 4097 4581 
L 4097 0 
L 3475 0 
L 1069 3600 
L 1069 0 
L 488 0 
z
" transform="scale(0.015625)"/>
      <path id="ArialMT-65" d="M 2694 1069 
L 3275 997 
Q 3138 488 2766 206 
Q 2394 -75 1816 -75 
Q 1088 -75 661 373 
Q 234 822 234 1631 
Q 234 2469 665 2931 
Q 1097 3394 1784 3394 
Q 2450 3394 2872 2941 
Q 3294 2488 3294 1666 
Q 3294 1616 3291 1516 
L 816 1516 
Q 847 969 1125 678 
Q 1403 388 1819 388 
Q 2128 388 2347 550 
Q 2566 713 2694 1069 
z
M 847 1978 
L 2700 1978 
Q 2663 2397 2488 2606 
Q 2219 2931 1791 2931 
Q 1403 2931 1139 2672 
Q 875 2413 847 1978 
z
" transform="scale(0.015625)"/>
      <path id="ArialMT-74" d="M 1650 503 
L 1731 6 
Q 1494 -44 1306 -44 
Q 1000 -44 831 53 
Q 663 150 594 308 
Q 525 466 525 972 
L 525 2881 
L 113 2881 
L 113 3319 
L 525 3319 
L 525 4141 
L 1084 4478 
L 1084 3319 
L 1650 3319 
L 1650 2881 
L 1084 2881 
L 1084 941 
Q 1084 700 1114 631 
Q 1144 563 1211 522 
Q 1278 481 1403 481 
Q 1497 481 1650 503 
z
" transform="scale(0.015625)"/>
      <path id="ArialMT-2d" d="M 203 1375 
L 203 1941 
L 1931 1941 
L 1931 1375 
L 203 1375 
z
" transform="scale(0.015625)"/>
      <path id="ArialMT-69" d="M 425 3934 
L 425 4581 
L 988 4581 
L 988 3934 
L 425 3934 
z
M 425 0 
L 425 3319 
L 988 3319 
L 988 0 
L 425 0 
z
" transform="scale(0.015625)"/>
      <path id="ArialMT-6d" d="M 422 0 
L 422 3319 
L 925 3319 
L 925 2853 
Q 1081 3097 1340 3245 
Q 1600 3394 1931 3394 
Q 2300 3394 2536 3241 
Q 2772 3088 2869 2813 
Q 3263 3394 3894 3394 
Q 4388 3394 4653 3120 
Q 4919 2847 4919 2278 
L 4919 0 
L 4359 0 
L 4359 2091 
Q 4359 2428 4304 2576 
Q 4250 2725 4106 2815 
Q 3963 2906 3769 2906 
Q 3419 2906 3187 2673 
Q 2956 2441 2956 1928 
L 2956 0 
L 2394 0 
L 2394 2156 
Q 2394 2531 2256 2718 
Q 2119 2906 1806 2906 
Q 1569 2906 1367 2781 
Q 1166 2656 1075 2415 
Q 984 2175 984 1722 
L 984 0 
L 422 0 
z
" transform="scale(0.015625)"/>
      <path id="ArialMT-70" d="M 422 -1272 
L 422 3319 
L 934 3319 
L 934 2888 
Q 1116 3141 1344 3267 
Q 1572 3394 1897 3394 
Q 2322 3394 2647 3175 
Q 2972 2956 3137 2557 
Q 3303 2159 3303 1684 
Q 3303 1175 3120 767 
Q 2938 359 2589 142 
Q 2241 -75 1856 -75 
Q 1575 -75 1351 44 
Q 1128 163 984 344 
L 984 -1272 
L 422 -1272 
z
M 931 1641 
Q 931 1000 1190 694 
Q 1450 388 1819 388 
Q 2194 388 2461 705 
Q 2728 1022 2728 1688 
Q 2728 2322 2467 2637 
Q 2206 2953 1844 2953 
Q 1484 2953 1207 2617 
Q 931 2281 931 1641 
z
" transform="scale(0.015625)"/>
      <path id="ArialMT-6f" d="M 213 1659 
Q 213 2581 725 3025 
Q 1153 3394 1769 3394 
Q 2453 3394 2887 2945 
Q 3322 2497 3322 1706 
Q 3322 1066 3130 698 
Q 2938 331 2570 128 
Q 2203 -75 1769 -75 
Q 1072 -75 642 372 
Q 213 819 213 1659 
z
M 791 1659 
Q 791 1022 1069 705 
Q 1347 388 1769 388 
Q 2188 388 2466 706 
Q 2744 1025 2744 1678 
Q 2744 2294 2464 2611 
Q 2184 2928 1769 2928 
Q 1347 2928 1069 2612 
Q 791 2297 791 1659 
z
" transform="scale(0.015625)"/>
      <path id="ArialMT-72" d="M 416 0 
L 416 3319 
L 922 3319 
L 922 2816 
Q 1116 3169 1280 3281 
Q 1444 3394 1641 3394 
Q 1925 3394 2219 3213 
L 2025 2691 
Q 1819 2813 1613 2813 
Q 1428 2813 1281 2702 
Q 1134 2591 1072 2394 
Q 978 2094 978 1738 
L 978 0 
L 416 0 
z
" transform="scale(0.015625)"/>
      <path id="ArialMT-20" transform="scale(0.015625)"/>
      <path id="ArialMT-45" d="M 506 0 
L 506 4581 
L 3819 4581 
L 3819 4041 
L 1113 4041 
L 1113 2638 
L 3647 2638 
L 3647 2100 
L 1113 2100 
L 1113 541 
L 3925 541 
L 3925 0 
L 506 0 
z
" transform="scale(0.015625)"/>
      <path id="ArialMT-55" d="M 3500 4581 
L 4106 4581 
L 4106 1934 
Q 4106 1244 3950 837 
Q 3794 431 3386 176 
Q 2978 -78 2316 -78 
Q 1672 -78 1262 144 
Q 853 366 678 786 
Q 503 1206 503 1934 
L 503 4581 
L 1109 4581 
L 1109 1938 
Q 1109 1341 1220 1058 
Q 1331 775 1601 622 
Q 1872 469 2263 469 
Q 2931 469 3215 772 
Q 3500 1075 3500 1938 
L 3500 4581 
z
" transform="scale(0.015625)"/>
      <path id="ArialMT-49" d="M 597 0 
L 597 4581 
L 1203 4581 
L 1203 0 
L 597 0 
z
" transform="scale(0.015625)"/>
      <path id="ArialMT-28" d="M 1497 -1347 
Q 1031 -759 709 28 
Q 388 816 388 1659 
Q 388 2403 628 3084 
Q 909 3875 1497 4659 
L 1900 4659 
Q 1522 4009 1400 3731 
Q 1209 3300 1100 2831 
Q 966 2247 966 1656 
Q 966 153 1900 -1347 
L 1497 -1347 
z
" transform="scale(0.015625)"/>
      <path id="ArialMT-6b" d="M 425 0 
L 425 4581 
L 988 4581 
L 988 1969 
L 2319 3319 
L 3047 3319 
L 1778 2088 
L 3175 0 
L 2481 0 
L 1384 1697 
L 988 1316 
L 988 0 
L 425 0 
z
" transform="scale(0.015625)"/>
      <path id="ArialMT-57" d="M 1294 0 
L 78 4581 
L 700 4581 
L 1397 1578 
Q 1509 1106 1591 641 
Q 1766 1375 1797 1488 
L 2669 4581 
L 3400 4581 
L 4056 2263 
Q 4303 1400 4413 641 
Q 4500 1075 4641 1638 
L 5359 4581 
L 5969 4581 
L 4713 0 
L 4128 0 
L 3163 3491 
Q 3041 3928 3019 4028 
Q 2947 3713 2884 3491 
L 1913 0 
L 1294 0 
z
" transform="scale(0.015625)"/>
      <path id="ArialMT-68" d="M 422 0 
L 422 4581 
L 984 4581 
L 984 2938 
Q 1378 3394 1978 3394 
Q 2347 3394 2619 3248 
Q 2891 3103 3008 2847 
Q 3125 2591 3125 2103 
L 3125 0 
L 2563 0 
L 2563 2103 
Q 2563 2525 2380 2717 
Q 2197 2909 1863 2909 
Q 1613 2909 1392 2779 
Q 1172 2650 1078 2428 
Q 984 2206 984 1816 
L 984 0 
L 422 0 
z
" transform="scale(0.015625)"/>
      <path id="ArialMT-2f" d="M 0 -78 
L 1328 4659 
L 1778 4659 
L 453 -78 
L 0 -78 
z
" transform="scale(0.015625)"/>
      <path id="ArialMT-b2" d="M 78 2291 
Q 97 2469 225 2647 
Q 422 2916 872 3242 
Q 1322 3569 1406 3663 
Q 1522 3791 1522 3925 
Q 1522 4075 1412 4172 
Q 1303 4269 1091 4269 
Q 884 4269 782 4195 
Q 681 4122 616 3913 
L 144 3963 
Q 234 4309 457 4473 
Q 681 4638 1100 4638 
Q 1572 4638 1792 4453 
Q 2013 4269 2013 4003 
Q 2013 3741 1828 3506 
Q 1688 3331 1188 2972 
Q 928 2781 819 2669 
L 2025 2669 
L 2025 2291 
L 78 2291 
z
" transform="scale(0.015625)"/>
      <path id="ArialMT-79" d="M 397 -1278 
L 334 -750 
Q 519 -800 656 -800 
Q 844 -800 956 -737 
Q 1069 -675 1141 -563 
Q 1194 -478 1313 -144 
Q 1328 -97 1363 -6 
L 103 3319 
L 709 3319 
L 1400 1397 
Q 1534 1031 1641 628 
Q 1738 1016 1872 1384 
L 2581 3319 
L 3144 3319 
L 1881 -56 
Q 1678 -603 1566 -809 
Q 1416 -1088 1222 -1217 
Q 1028 -1347 759 -1347 
Q 597 -1347 397 -1278 
z
" transform="scale(0.015625)"/>
      <path id="ArialMT-29" d="M 791 -1347 
L 388 -1347 
Q 1322 153 1322 1656 
Q 1322 2244 1188 2822 
Q 1081 3291 891 3722 
Q 769 4003 388 4659 
L 791 4659 
Q 1378 3875 1659 3084 
Q 1900 2403 1900 1659 
Q 1900 816 1576 28 
Q 1253 -759 791 -1347 
z
" transform="scale(0.015625)"/>
     </defs>
     <use xlink:href="#ArialMT-4e"/>
     <use xlink:href="#ArialMT-65" transform="translate(72.216797 0)"/>
     <use xlink:href="#ArialMT-74" transform="translate(127.832031 0)"/>
     <use xlink:href="#ArialMT-2d" transform="translate(155.615234 0)"/>
     <use xlink:href="#ArialMT-69" transform="translate(188.916016 0)"/>
     <use xlink:href="#ArialMT-6d" transform="translate(211.132812 0)"/>
     <use xlink:href="#ArialMT-70" transform="translate(294.433594 0)"/>
     <use xlink:href="#ArialMT-6f" transform="translate(350.048828 0)"/>
     <use xlink:href="#ArialMT-72" transform="translate(405.664062 0)"/>
     <use xlink:href="#ArialMT-74" transform="translate(438.964844 0)"/>
     <use xlink:href="#ArialMT-20" transform="translate(466.748047 0)"/>
     <use xlink:href="#ArialMT-45" transform="translate(494.53125 0)"/>
     <use xlink:href="#ArialMT-55" transform="translate(561.230469 0)"/>
     <use xlink:href="#ArialMT-49" transform="translate(633.447266 0)"/>
     <use xlink:href="#ArialMT-20" transform="translate(661.230469 0)"/>
     <use xlink:href="#ArialMT-28" transform="translate(689.013672 0)"/>
     <use xlink:href="#ArialMT-6b" transform="translate(722.314453 0)"/>
     <use xlink:href="#ArialMT-57" transform="translate(772.314453 0)"/>
     <use xlink:href="#ArialMT-68" transform="translate(866.699219 0)"/>
     <use xlink:href="#ArialMT-2f" transform="translate(922.314453 0)"/>
     <use xlink:href="#ArialMT-6d" transform="translate(950.097656 0)"/>
     <use xlink:href="#ArialMT-b2" transform="translate(1033.398438 0)"/>
     <use xlink:href="#ArialMT-2f" transform="translate(1066.699219 0)"/>
     <use xlink:href="#ArialMT-79" transform="translate(1094.482422 0)"/>
     <use xlink:href="#ArialMT-72" transform="translate(1144.482422 0)"/>
     <use xlink:href="#ArialMT-29" transform="translate(1177.783203 0)"/>
    </g>
   </g>
  </g>
  <g id="axis3d_2">
   <g id="line2d_12">
    <path d="M 415.686804 294.114838 
L 233.950068 375.285774 
" style="fill: none; stroke: #c3c2b7; stroke-width: 0.8; stroke-linecap: square"/>
   </g>
   <g id="xtick_6">
    <g id="line2d_13">
     <path d="M 233.950068 204.752432 
" clip-path="url(#p81c2b92474)" style="fill: none; stroke: #e1e0d9; stroke-width: 0.6; stroke-linecap: square"/>
    </g>
    <g id="line2d_14">
     <path d="M 402.122786 298.868015 
L 406.825759 300.687495 
" style="fill: none; stroke: #898781; stroke-width: 0.8; stroke-linecap: square"/>
    </g>
    <g id="text_7">
     <!-- 900 -->
     <g style="fill: #898781" transform="translate(405.714982 320.385041) scale(0.1 -0.1)">
      <use xlink:href="#ArialMT-39"/>
      <use xlink:href="#ArialMT-30" transform="translate(55.615234 0)"/>
      <use xlink:href="#ArialMT-30" transform="translate(111.230469 0)"/>
     </g>
    </g>
   </g>
   <g id="xtick_7">
    <g id="line2d_15">
     <path d="M 233.950068 204.752432 
" clip-path="url(#p81c2b92474)" style="fill: none; stroke: #e1e0d9; stroke-width: 0.6; stroke-linecap: square"/>
    </g>
    <g id="line2d_16">
     <path d="M 371.815142 312.386643 
L 376.526058 314.256664 
" style="fill: none; stroke: #898781; stroke-width: 0.8; stroke-linecap: square"/>
    </g>
    <g id="text_8">
     <!-- 1000 -->
     <g style="fill: #898781" transform="translate(372.698939 334.143593) scale(0.1 -0.1)">
      <use xlink:href="#ArialMT-31"/>
      <use xlink:href="#ArialMT-30" transform="translate(55.615234 0)"/>
      <use xlink:href="#ArialMT-30" transform="translate(111.230469 0)"/>
      <use xlink:href="#ArialMT-30" transform="translate(166.845703 0)"/>
     </g>
    </g>
   </g>
   <g id="xtick_8">
    <g id="line2d_17">
     <path d="M 233.950068 204.752432 
" clip-path="url(#p81c2b92474)" style="fill: none; stroke: #e1e0d9; stroke-width: 0.6; stroke-linecap: square"/>
    </g>
    <g id="line2d_18">
     <path d="M 340.660489 326.283076 
L 345.377955 328.205775 
" style="fill: none; stroke: #898781; stroke-width: 0.8; stroke-linecap: square"/>
    </g>
    <g id="text_9">
     <!-- 1100 -->
     <g style="fill: #898781" transform="translate(341.984493 348.287851) scale(0.1 -0.1)">
      <use xlink:href="#ArialMT-31"/>
      <use xlink:href="#ArialMT-31" transform="translate(48.240234 0)"/>
      <use xlink:href="#ArialMT-30" transform="translate(103.855469 0)"/>
      <use xlink:href="#ArialMT-30" transform="translate(159.470703 0)"/>
     </g>
    </g>
   </g>
   <g id="xtick_9">
    <g id="line2d_19">
     <path d="M 233.950068 204.752432 
" clip-path="url(#p81c2b92474)" style="fill: none; stroke: #e1e0d9; stroke-width: 0.6; stroke-linecap: square"/>
    </g>
    <g id="line2d_20">
     <path d="M 308.622816 340.573378 
L 313.345311 342.551012 
" style="fill: none; stroke: #898781; stroke-width: 0.8; stroke-linecap: square"/>
    </g>
    <g id="text_10">
     <!-- 1200 -->
     <g style="fill: #898781" transform="translate(309.648775 362.834265) scale(0.1 -0.1)">
      <defs>
       <path id="ArialMT-32" d="M 3222 541 
L 3222 0 
L 194 0 
Q 188 203 259 391 
Q 375 700 629 1000 
Q 884 1300 1366 1694 
Q 2113 2306 2375 2664 
Q 2638 3022 2638 3341 
Q 2638 3675 2398 3904 
Q 2159 4134 1775 4134 
Q 1369 4134 1125 3890 
Q 881 3647 878 3216 
L 300 3275 
Q 359 3922 746 4261 
Q 1134 4600 1788 4600 
Q 2447 4600 2831 4234 
Q 3216 3869 3216 3328 
Q 3216 3053 3103 2787 
Q 2991 2522 2730 2228 
Q 2469 1934 1863 1422 
Q 1356 997 1212 845 
Q 1069 694 975 541 
L 3222 541 
z
" transform="scale(0.015625)"/>
      </defs>
      <use xlink:href="#ArialMT-31"/>
      <use xlink:href="#ArialMT-32" transform="translate(55.615234 0)"/>
      <use xlink:href="#ArialMT-30" transform="translate(111.230469 0)"/>
      <use xlink:href="#ArialMT-30" transform="translate(166.845703 0)"/>
     </g>
    </g>
   </g>
   <g id="xtick_10">
    <g id="line2d_21">
     <path d="M 233.950068 204.752432 
" clip-path="url(#p81c2b92474)" style="fill: none; stroke: #e1e0d9; stroke-width: 0.6; stroke-linecap: square"/>
    </g>
    <g id="line2d_22">
     <path d="M 275.664042 355.274534 
L 280.389904 357.309491 
" style="fill: none; stroke: #898781; stroke-width: 0.8; stroke-linecap: square"/>
    </g>
    <g id="text_11">
     <!-- 1300 -->
     <g style="fill: #898781" transform="translate(276.759801 377.800234) scale(0.1 -0.1)">
      <defs>
       <path id="ArialMT-33" d="M 269 1209 
L 831 1284 
Q 928 806 1161 595 
Q 1394 384 1728 384 
Q 2125 384 2398 659 
Q 2672 934 2672 1341 
Q 2672 1728 2419 1979 
Q 2166 2231 1775 2231 
Q 1616 2231 1378 2169 
L 1441 2663 
Q 1497 2656 1531 2656 
Q 1891 2656 2178 2843 
Q 2466 3031 2466 3422 
Q 2466 3731 2256 3934 
Q 2047 4138 1716 4138 
Q 1388 4138 1169 3931 
Q 950 3725 888 3313 
L 325 3413 
Q 428 3978 793 4289 
Q 1159 4600 1703 4600 
Q 2078 4600 2393 4439 
Q 2709 4278 2876 4000 
Q 3044 3722 3044 3409 
Q 3044 3113 2884 2869 
Q 2725 2625 2413 2481 
Q 2819 2388 3044 2092 
Q 3269 1797 3269 1353 
Q 3269 753 2831 336 
Q 2394 -81 1725 -81 
Q 1122 -81 723 278 
Q 325 638 269 1209 
z
" transform="scale(0.015625)"/>
      </defs>
      <use xlink:href="#ArialMT-31"/>
      <use xlink:href="#ArialMT-33" transform="translate(55.615234 0)"/>
      <use xlink:href="#ArialMT-30" transform="translate(111.230469 0)"/>
      <use xlink:href="#ArialMT-30" transform="translate(166.845703 0)"/>
     </g>
    </g>
   </g>
   <g id="xtick_11">
    <g id="line2d_23">
     <path d="M 233.950068 204.752432 
" clip-path="url(#p81c2b92474)" style="fill: none; stroke: #e1e0d9; stroke-width: 0.6; stroke-linecap: square"/>
    </g>
    <g id="line2d_24">
     <path d="M 241.743865 370.404521 
L 246.471278 372.49933 
" style="fill: none; stroke: #898781; stroke-width: 0.8; stroke-linecap: square"/>
    </g>
    <g id="text_12">
     <!-- 1400 -->
     <g style="fill: #898781" transform="translate(242.908347 393.204174) scale(0.1 -0.1)">
      <defs>
       <path id="ArialMT-34" d="M 2069 0 
L 2069 1097 
L 81 1097 
L 81 1613 
L 2172 4581 
L 2631 4581 
L 2631 1613 
L 3250 1613 
L 3250 1097 
L 2631 1097 
L 2631 0 
L 2069 0 
z
M 2069 1613 
L 2069 3678 
L 634 1613 
L 2069 1613 
z
" transform="scale(0.015625)"/>
      </defs>
      <use xlink:href="#ArialMT-31"/>
      <use xlink:href="#ArialMT-34" transform="translate(55.615234 0)"/>
      <use xlink:href="#ArialMT-30" transform="translate(111.230469 0)"/>
      <use xlink:href="#ArialMT-30" transform="translate(166.845703 0)"/>
     </g>
    </g>
   </g>
   <g id="text_13">
    <!-- LCC (k$) -->
    <g style="fill: #52514e" transform="translate(337.377791 385.992018) rotate(-24.06746) scale(0.12 -0.12)">
     <defs>
      <path id="ArialMT-4c" d="M 469 0 
L 469 4581 
L 1075 4581 
L 1075 541 
L 3331 541 
L 3331 0 
L 469 0 
z
" transform="scale(0.015625)"/>
      <path id="ArialMT-43" d="M 3763 1606 
L 4369 1453 
Q 4178 706 3683 314 
Q 3188 -78 2472 -78 
Q 1731 -78 1267 223 
Q 803 525 561 1097 
Q 319 1669 319 2325 
Q 319 3041 592 3573 
Q 866 4106 1370 4382 
Q 1875 4659 2481 4659 
Q 3169 4659 3637 4309 
Q 4106 3959 4291 3325 
L 3694 3184 
Q 3534 3684 3231 3912 
Q 2928 4141 2469 4141 
Q 1941 4141 1586 3887 
Q 1231 3634 1087 3207 
Q 944 2781 944 2328 
Q 944 1744 1114 1308 
Q 1284 872 1643 656 
Q 2003 441 2422 441 
Q 2931 441 3284 734 
Q 3638 1028 3763 1606 
z
" transform="scale(0.015625)"/>
      <path id="ArialMT-24" d="M 1594 -659 
L 1594 -97 
Q 1172 -44 908 92 
Q 644 228 451 531 
Q 259 834 228 1272 
L 794 1378 
Q 859 925 1025 713 
Q 1263 413 1594 378 
L 1594 2169 
Q 1247 2234 884 2438 
Q 616 2588 470 2853 
Q 325 3119 325 3456 
Q 325 4056 750 4428 
Q 1034 4678 1594 4734 
L 1594 5003 
L 1925 5003 
L 1925 4734 
Q 2416 4688 2703 4447 
Q 3072 4141 3147 3606 
L 2566 3519 
Q 2516 3850 2358 4026 
Q 2200 4203 1925 4259 
L 1925 2638 
Q 2350 2531 2488 2472 
Q 2750 2356 2915 2190 
Q 3081 2025 3170 1797 
Q 3259 1569 3259 1303 
Q 3259 719 2887 328 
Q 2516 -63 1925 -91 
L 1925 -659 
L 1594 -659 
z
M 1594 4266 
Q 1266 4216 1077 4003 
Q 888 3791 888 3500 
Q 888 3213 1048 3019 
Q 1209 2825 1594 2709 
L 1594 4266 
z
M 1925 378 
Q 2253 419 2467 662 
Q 2681 906 2681 1266 
Q 2681 1572 2529 1758 
Q 2378 1944 1925 2091 
L 1925 378 
z
" transform="scale(0.015625)"/>
     </defs>
     <use xlink:href="#ArialMT-4c"/>
     <use xlink:href="#ArialMT-43" transform="translate(55.615234 0)"/>
     <use xlink:href="#ArialMT-43" transform="translate(127.832031 0)"/>
     <use xlink:href="#ArialMT-20" transform="translate(200.048828 0)"/>
     <use xlink:href="#ArialMT-28" transform="translate(227.832031 0)"/>
     <use xlink:href="#ArialMT-6b" transform="translate(261.132812 0)"/>
     <use xlink:href="#ArialMT-24" transform="translate(311.132812 0)"/>
     <use xlink:href="#ArialMT-29" transform="translate(366.748047 0)"/>
    </g>
   </g>
  </g>
  <g id="axis3d_3">
   <g id="line2d_25">
    <path d="M 415.686804 294.114838 
L 421.868739 112.350286 
" style="fill: none; stroke: #c3c2b7; stroke-width: 0.8; stroke-linecap: square"/>
   </g>
   <g id="xtick_12">
    <g id="line2d_26">
     <path d="M 233.950068 204.752432 
" style="fill: none; stroke: #e1e0d9; stroke-width: 0.6; stroke-linecap: square"/>
    </g>
    <g id="line2d_27">
     <path d="M 414.187113 291.592099 
L 418.888327 293.38886 
" style="fill: none; stroke: #898781; stroke-width: 0.8; stroke-linecap: square"/>
    </g>
    <g id="text_14">
     <!-- 6.25 -->
     <g style="fill: #898781" transform="translate(425.792241 299.348096) scale(0.1 -0.1)">
      <defs>
       <path id="ArialMT-36" d="M 3184 3459 
L 2625 3416 
Q 2550 3747 2413 3897 
Q 2184 4138 1850 4138 
Q 1581 4138 1378 3988 
Q 1113 3794 959 3422 
Q 806 3050 800 2363 
Q 1003 2672 1297 2822 
Q 1591 2972 1913 2972 
Q 2475 2972 2870 2558 
Q 3266 2144 3266 1488 
Q 3266 1056 3080 686 
Q 2894 316 2569 119 
Q 2244 -78 1831 -78 
Q 1128 -78 684 439 
Q 241 956 241 2144 
Q 241 3472 731 4075 
Q 1159 4600 1884 4600 
Q 2425 4600 2770 4297 
Q 3116 3994 3184 3459 
z
M 888 1484 
Q 888 1194 1011 928 
Q 1134 663 1356 523 
Q 1578 384 1822 384 
Q 2178 384 2434 671 
Q 2691 959 2691 1453 
Q 2691 1928 2437 2201 
Q 2184 2475 1800 2475 
Q 1419 2475 1153 2201 
Q 888 1928 888 1484 
z
" transform="scale(0.015625)"/>
       <path id="ArialMT-2e" d="M 581 0 
L 581 641 
L 1222 641 
L 1222 0 
L 581 0 
z
" transform="scale(0.015625)"/>
      </defs>
      <use xlink:href="#ArialMT-36"/>
      <use xlink:href="#ArialMT-2e" transform="translate(55.615234 0)"/>
      <use xlink:href="#ArialMT-32" transform="translate(83.398438 0)"/>
      <use xlink:href="#ArialMT-35" transform="translate(139.013672 0)"/>
     </g>
    </g>
   </g>
   <g id="xtick_13">
    <g id="line2d_28">
     <path d="M 233.950068 204.752432 
" style="fill: none; stroke: #e1e0d9; stroke-width: 0.6; stroke-linecap: square"/>
    </g>
    <g id="line2d_29">
     <path d="M 414.88139 270.999039 
L 419.602033 272.764586 
" style="fill: none; stroke: #898781; stroke-width: 0.8; stroke-linecap: square"/>
    </g>
    <g id="text_15">
     <!-- 6.50 -->
     <g style="fill: #898781" transform="translate(426.569182 278.744641) scale(0.1 -0.1)">
      <use xlink:href="#ArialMT-36"/>
      <use xlink:href="#ArialMT-2e" transform="translate(55.615234 0)"/>
      <use xlink:href="#ArialMT-35" transform="translate(83.398438 0)"/>
      <use xlink:href="#ArialMT-30" transform="translate(139.013672 0)"/>
     </g>
    </g>
   </g>
   <g id="xtick_14">
    <g id="line2d_30">
     <path d="M 233.950068 204.752432 
" style="fill: none; stroke: #e1e0d9; stroke-width: 0.6; stroke-linecap: square"/>
    </g>
    <g id="line2d_31">
     <path d="M 415.581036 250.246715 
L 420.321268 251.980511 
" style="fill: none; stroke: #898781; stroke-width: 0.8; stroke-linecap: square"/>
    </g>
    <g id="text_16">
     <!-- 6.75 -->
     <g style="fill: #898781" transform="translate(427.352135 257.981744) scale(0.1 -0.1)">
      <defs>
       <path id="ArialMT-37" d="M 303 3981 
L 303 4522 
L 3269 4522 
L 3269 4084 
Q 2831 3619 2401 2847 
Q 1972 2075 1738 1259 
Q 1569 684 1522 0 
L 944 0 
Q 953 541 1156 1306 
Q 1359 2072 1739 2783 
Q 2119 3494 2547 3981 
L 303 3981 
z
" transform="scale(0.015625)"/>
      </defs>
      <use xlink:href="#ArialMT-36"/>
      <use xlink:href="#ArialMT-2e" transform="translate(55.615234 0)"/>
      <use xlink:href="#ArialMT-37" transform="translate(83.398438 0)"/>
      <use xlink:href="#ArialMT-35" transform="translate(139.013672 0)"/>
     </g>
    </g>
   </g>
   <g id="xtick_15">
    <g id="line2d_32">
     <path d="M 233.950068 204.752432 
" style="fill: none; stroke: #e1e0d9; stroke-width: 0.6; stroke-linecap: square"/>
    </g>
    <g id="line2d_33">
     <path d="M 416.286113 229.333274 
L 421.046098 231.03477 
" style="fill: none; stroke: #898781; stroke-width: 0.8; stroke-linecap: square"/>
    </g>
    <g id="text_17">
     <!-- 7.00 -->
     <g style="fill: #898781" transform="translate(428.14117 237.057547) scale(0.1 -0.1)">
      <use xlink:href="#ArialMT-37"/>
      <use xlink:href="#ArialMT-2e" transform="translate(55.615234 0)"/>
      <use xlink:href="#ArialMT-30" transform="translate(83.398438 0)"/>
      <use xlink:href="#ArialMT-30" transform="translate(139.013672 0)"/>
     </g>
    </g>
   </g>
   <g id="xtick_16">
    <g id="line2d_34">
     <path d="M 233.950068 204.752432 
" style="fill: none; stroke: #e1e0d9; stroke-width: 0.6; stroke-linecap: square"/>
    </g>
    <g id="line2d_35">
     <path d="M 416.996687 208.256831 
L 421.776588 209.92547 
" style="fill: none; stroke: #898781; stroke-width: 0.8; stroke-linecap: square"/>
    </g>
    <g id="text_18">
     <!-- 7.25 -->
     <g style="fill: #898781" transform="translate(428.93636 215.970162) scale(0.1 -0.1)">
      <use xlink:href="#ArialMT-37"/>
      <use xlink:href="#ArialMT-2e" transform="translate(55.615234 0)"/>
      <use xlink:href="#ArialMT-32" transform="translate(83.398438 0)"/>
      <use xlink:href="#ArialMT-35" transform="translate(139.013672 0)"/>
     </g>
    </g>
   </g>
   <g id="xtick_17">
    <g id="line2d_36">
     <path d="M 233.950068 204.752432 
" style="fill: none; stroke: #e1e0d9; stroke-width: 0.6; stroke-linecap: square"/>
    </g>
    <g id="line2d_37">
     <path d="M 417.71282 187.015473 
L 422.512804 188.650688 
" style="fill: none; stroke: #898781; stroke-width: 0.8; stroke-linecap: square"/>
    </g>
    <g id="text_19">
     <!-- 7.50 -->
     <g style="fill: #898781" transform="translate(429.737775 194.717674) scale(0.1 -0.1)">
      <use xlink:href="#ArialMT-37"/>
      <use xlink:href="#ArialMT-2e" transform="translate(55.615234 0)"/>
      <use xlink:href="#ArialMT-35" transform="translate(83.398438 0)"/>
      <use xlink:href="#ArialMT-30" transform="translate(139.013672 0)"/>
     </g>
    </g>
   </g>
   <g id="xtick_18">
    <g id="line2d_38">
     <path d="M 233.950068 204.752432 
" style="fill: none; stroke: #e1e0d9; stroke-width: 0.6; stroke-linecap: square"/>
    </g>
    <g id="line2d_39">
     <path d="M 418.434579 165.607257 
L 423.254814 167.208469 
" style="fill: none; stroke: #898781; stroke-width: 0.8; stroke-linecap: square"/>
    </g>
    <g id="text_20">
     <!-- 7.75 -->
     <g style="fill: #898781" transform="translate(430.545489 173.298135) scale(0.1 -0.1)">
      <use xlink:href="#ArialMT-37"/>
      <use xlink:href="#ArialMT-2e" transform="translate(55.615234 0)"/>
      <use xlink:href="#ArialMT-37" transform="translate(83.398438 0)"/>
      <use xlink:href="#ArialMT-35" transform="translate(139.013672 0)"/>
     </g>
    </g>
   </g>
   <g id="xtick_19">
    <g id="line2d_40">
     <path d="M 233.950068 204.752432 
" style="fill: none; stroke: #e1e0d9; stroke-width: 0.6; stroke-linecap: square"/>
    </g>
    <g id="line2d_41">
     <path d="M 419.16203 144.030209 
L 424.002688 145.59683 
" style="fill: none; stroke: #898781; stroke-width: 0.8; stroke-linecap: square"/>
    </g>
    <g id="text_21">
     <!-- 8.00 -->
     <g style="fill: #898781" transform="translate(431.359577 151.709569) scale(0.1 -0.1)">
      <defs>
       <path id="ArialMT-38" d="M 1131 2484 
Q 781 2613 612 2850 
Q 444 3088 444 3419 
Q 444 3919 803 4259 
Q 1163 4600 1759 4600 
Q 2359 4600 2725 4251 
Q 3091 3903 3091 3403 
Q 3091 3084 2923 2848 
Q 2756 2613 2416 2484 
Q 2838 2347 3058 2040 
Q 3278 1734 3278 1309 
Q 3278 722 2862 322 
Q 2447 -78 1769 -78 
Q 1091 -78 675 323 
Q 259 725 259 1325 
Q 259 1772 486 2073 
Q 713 2375 1131 2484 
z
M 1019 3438 
Q 1019 3113 1228 2906 
Q 1438 2700 1772 2700 
Q 2097 2700 2305 2904 
Q 2513 3109 2513 3406 
Q 2513 3716 2298 3927 
Q 2084 4138 1766 4138 
Q 1444 4138 1231 3931 
Q 1019 3725 1019 3438 
z
M 838 1322 
Q 838 1081 952 856 
Q 1066 631 1291 507 
Q 1516 384 1775 384 
Q 2178 384 2440 643 
Q 2703 903 2703 1303 
Q 2703 1709 2433 1975 
Q 2163 2241 1756 2241 
Q 1359 2241 1098 1978 
Q 838 1716 838 1322 
z
" transform="scale(0.015625)"/>
      </defs>
      <use xlink:href="#ArialMT-38"/>
      <use xlink:href="#ArialMT-2e" transform="translate(55.615234 0)"/>
      <use xlink:href="#ArialMT-30" transform="translate(83.398438 0)"/>
      <use xlink:href="#ArialMT-30" transform="translate(139.013672 0)"/>
     </g>
    </g>
   </g>
   <g id="xtick_20">
    <g id="line2d_42">
     <path d="M 233.950068 204.752432 
" style="fill: none; stroke: #e1e0d9; stroke-width: 0.6; stroke-linecap: square"/>
    </g>
    <g id="line2d_43">
     <path d="M 419.89524 122.282325 
L 424.756494 123.813754 
" style="fill: none; stroke: #898781; stroke-width: 0.8; stroke-linecap: square"/>
    </g>
    <g id="text_22">
     <!-- 8.25 -->
     <g style="fill: #898781" transform="translate(432.180115 129.949966) scale(0.1 -0.1)">
      <use xlink:href="#ArialMT-38"/>
      <use xlink:href="#ArialMT-2e" transform="translate(55.615234 0)"/>
      <use xlink:href="#ArialMT-32" transform="translate(83.398438 0)"/>
      <use xlink:href="#ArialMT-35" transform="translate(139.013672 0)"/>
     </g>
    </g>
   </g>
  </g>
  <g id="axes_1">
   <g id="Path3DCollection_1">
    <defs>
     <path id="mead90c2dbd" d="M 0 -17.320508 
L -3.888696 -5.352331 
L -16.472782 -5.352331 
L -6.292043 2.044409 
L -10.180739 14.012585 
L -0 6.615845 
L 10.180739 14.012585 
L 6.292043 2.044409 
L 16.472782 -5.352331 
L 3.888696 -5.352331 
z
" style="stroke: #000000; stroke-width: 1.2"/>
    </defs>
    <g clip-path="url(#p81c2b92474)">
     <use xlink:href="#mead90c2dbd" x="233.950068" y="93.803628" style="fill: #eda100; stroke: #000000; stroke-width: 1.2"/>
    </g>
   </g>
   <g id="line2d_44">
    <path d="M 229.156383 336.359141 
L 229.123213 299.677389 
" clip-path="url(#p81c2b92474)" style="fill: none; stroke: #c3c2b7; stroke-width: 0.9; stroke-linecap: square"/>
   </g>
   <g id="line2d_45">
    <path d="M 232.774831 342.224654 
L 232.768185 312.27747 
" clip-path="url(#p81c2b92474)" style="fill: none; stroke: #c3c2b7; stroke-width: 0.9; stroke-linecap: square"/>
   </g>
   <g id="line2d_46">
    <path d="M 216.19915 309.82703 
L 215.974114 242.284075 
" clip-path="url(#p81c2b92474)" style="fill: none; stroke: #c3c2b7; stroke-width: 0.9; stroke-linecap: square"/>
   </g>
   <g id="line2d_47">
    <path d="M 245.486255 251.189807 
L 245.736839 134.187791 
" clip-path="url(#p81c2b92474)" style="fill: none; stroke: #c3c2b7; stroke-width: 0.9; stroke-linecap: square"/>
   </g>
   <g id="line2d_48">
    <path d="M 233.950068 232.81939 
L 233.950068 93.803628 
" clip-path="url(#p81c2b92474)" style="fill: none; stroke: #c3c2b7; stroke-width: 0.9; stroke-linecap: square"/>
   </g>
   <g id="line2d_49">
    <path d="M 241.25079 249.069546 
L 241.412033 130.058479 
" clip-path="url(#p81c2b92474)" style="fill: none; stroke: #c3c2b7; stroke-width: 0.9; stroke-linecap: square"/>
   </g>
   <g id="line2d_50">
    <path d="M 233.950068 364.213106 
L 233.950068 353.779422 
" clip-path="url(#p81c2b92474)" style="fill: none; stroke: #c3c2b7; stroke-width: 0.9; stroke-linecap: square"/>
   </g>
   <g id="line2d_51">
    <path d="M 252.424162 263.471855 
L 252.770133 162.828189 
" clip-path="url(#p81c2b92474)" style="fill: none; stroke: #c3c2b7; stroke-width: 0.9; stroke-linecap: square"/>
   </g>
   <g id="line2d_52">
    <path d="M 233.084056 348.782386 
L 233.080032 324.206004 
" clip-path="url(#p81c2b92474)" style="fill: none; stroke: #c3c2b7; stroke-width: 0.9; stroke-linecap: square"/>
   </g>
   <g id="line2d_53">
    <path d="M 258.394118 274.640667 
L 258.796037 186.460279 
" clip-path="url(#p81c2b92474)" style="fill: none; stroke: #c3c2b7; stroke-width: 0.9; stroke-linecap: square"/>
   </g>
   <g id="line2d_54">
    <path d="M 221.009943 325.344813 
L 220.88816 275.34926 
" clip-path="url(#p81c2b92474)" style="fill: none; stroke: #c3c2b7; stroke-width: 0.9; stroke-linecap: square"/>
   </g>
   <g id="line2d_55">
    <path d="M 235.558697 352.799756 
L 235.564791 332.777486 
" clip-path="url(#p81c2b92474)" style="fill: none; stroke: #c3c2b7; stroke-width: 0.9; stroke-linecap: square"/>
   </g>
   <g id="Path3DCollection_2">
    <defs>
     <path id="C0_0_28f708c1b8" d="M 0 7.245688 
C 1.921579 7.245688 3.764714 6.482237 5.123475 5.123475 
C 6.482237 3.764714 7.245688 1.921579 7.245688 -0 
C 7.245688 -1.921579 6.482237 -3.764714 5.123475 -5.123475 
C 3.764714 -6.482237 1.921579 -7.245688 0 -7.245688 
C -1.921579 -7.245688 -3.764714 -6.482237 -5.123475 -5.123475 
C -6.482237 -3.764714 -7.245688 -1.921579 -7.245688 0 
C -7.245688 1.921579 -6.482237 3.764714 -5.123475 5.123475 
C -3.764714 6.482237 -1.921579 7.245688 0 7.245688 
z
"/>
    </defs>
    <g clip-path="url(#p81c2b92474)">
     <use xlink:href="#C0_0_28f708c1b8" x="241.412033" y="130.058479" style="fill: #184f95; stroke: #000000"/>
    </g>
    <g clip-path="url(#p81c2b92474)">
     <use xlink:href="#C0_0_28f708c1b8" x="245.736839" y="134.187791" style="fill: #195198; stroke: #000000"/>
    </g>
    <g clip-path="url(#p81c2b92474)">
     <use xlink:href="#C0_0_28f708c1b8" x="252.770133" y="162.828189" style="fill: #2366b9; stroke: #000000"/>
    </g>
    <g clip-path="url(#p81c2b92474)">
     <use xlink:href="#C0_0_28f708c1b8" x="258.796037" y="186.460279" style="fill: #2e78d1; stroke: #000000"/>
    </g>
    <g clip-path="url(#p81c2b92474)">
     <use xlink:href="#C0_0_28f708c1b8" x="215.974114" y="242.284075" style="fill: #5296e8; stroke: #000000"/>
    </g>
    <g clip-path="url(#p81c2b92474)">
     <use xlink:href="#C0_0_28f708c1b8" x="220.88816" y="275.34926" style="fill: #7bafee; stroke: #000000"/>
    </g>
    <g clip-path="url(#p81c2b92474)">
     <use xlink:href="#C0_0_28f708c1b8" x="229.123213" y="299.677389" style="fill: #98c1f3; stroke: #000000"/>
    </g>
    <g clip-path="url(#p81c2b92474)">
     <use xlink:href="#C0_0_28f708c1b8" x="232.768185" y="312.27747" style="fill: #a5c9f5; stroke: #000000"/>
    </g>
    <g clip-path="url(#p81c2b92474)">
     <use xlink:href="#C0_0_28f708c1b8" x="233.080032" y="324.206004" style="fill: #b0d0f7; stroke: #000000"/>
    </g>
    <g clip-path="url(#p81c2b92474)">
     <use xlink:href="#C0_0_28f708c1b8" x="235.564791" y="332.777486" style="fill: #bad6f8; stroke: #000000"/>
    </g>
    <g clip-path="url(#p81c2b92474)">
     <use xlink:href="#C0_0_28f708c1b8" x="233.950068" y="353.779422" style="fill: #cde2fb; stroke: #000000"/>
    </g>
   </g>
   <g id="text_23">
    <!-- TOPSIS-selected (entropy) -->
    <g style="fill: #0b0b0b" transform="translate(161.526122 50.329919) scale(0.115 -0.115)">
     <defs>
      <path id="Arial-BoldMT-54" d="M 1497 0 
L 1497 3806 
L 138 3806 
L 138 4581 
L 3778 4581 
L 3778 3806 
L 2422 3806 
L 2422 0 
L 1497 0 
z
" transform="scale(0.015625)"/>
      <path id="Arial-BoldMT-4f" d="M 278 2263 
Q 278 2963 488 3438 
Q 644 3788 914 4066 
Q 1184 4344 1506 4478 
Q 1934 4659 2494 4659 
Q 3506 4659 4114 4031 
Q 4722 3403 4722 2284 
Q 4722 1175 4119 548 
Q 3516 -78 2506 -78 
Q 1484 -78 881 545 
Q 278 1169 278 2263 
z
M 1231 2294 
Q 1231 1516 1590 1114 
Q 1950 713 2503 713 
Q 3056 713 3411 1111 
Q 3766 1509 3766 2306 
Q 3766 3094 3420 3481 
Q 3075 3869 2503 3869 
Q 1931 3869 1581 3476 
Q 1231 3084 1231 2294 
z
" transform="scale(0.015625)"/>
      <path id="Arial-BoldMT-50" d="M 466 0 
L 466 4581 
L 1950 4581 
Q 2794 4581 3050 4513 
Q 3444 4409 3709 4064 
Q 3975 3719 3975 3172 
Q 3975 2750 3822 2462 
Q 3669 2175 3433 2011 
Q 3197 1847 2953 1794 
Q 2622 1728 1994 1728 
L 1391 1728 
L 1391 0 
L 466 0 
z
M 1391 3806 
L 1391 2506 
L 1897 2506 
Q 2444 2506 2628 2578 
Q 2813 2650 2917 2803 
Q 3022 2956 3022 3159 
Q 3022 3409 2875 3571 
Q 2728 3734 2503 3775 
Q 2338 3806 1838 3806 
L 1391 3806 
z
" transform="scale(0.015625)"/>
      <path id="Arial-BoldMT-53" d="M 231 1491 
L 1131 1578 
Q 1213 1125 1461 912 
Q 1709 700 2131 700 
Q 2578 700 2804 889 
Q 3031 1078 3031 1331 
Q 3031 1494 2936 1608 
Q 2841 1722 2603 1806 
Q 2441 1863 1863 2006 
Q 1119 2191 819 2459 
Q 397 2838 397 3381 
Q 397 3731 595 4036 
Q 794 4341 1167 4500 
Q 1541 4659 2069 4659 
Q 2931 4659 3367 4281 
Q 3803 3903 3825 3272 
L 2900 3231 
Q 2841 3584 2645 3739 
Q 2450 3894 2059 3894 
Q 1656 3894 1428 3728 
Q 1281 3622 1281 3444 
Q 1281 3281 1419 3166 
Q 1594 3019 2269 2859 
Q 2944 2700 3267 2529 
Q 3591 2359 3773 2064 
Q 3956 1769 3956 1334 
Q 3956 941 3737 597 
Q 3519 253 3119 86 
Q 2719 -81 2122 -81 
Q 1253 -81 787 320 
Q 322 722 231 1491 
z
" transform="scale(0.015625)"/>
      <path id="Arial-BoldMT-49" d="M 438 0 
L 438 4581 
L 1363 4581 
L 1363 0 
L 438 0 
z
" transform="scale(0.015625)"/>
      <path id="Arial-BoldMT-2d" d="M 359 1222 
L 359 2100 
L 2084 2100 
L 2084 1222 
L 359 1222 
z
" transform="scale(0.015625)"/>
      <path id="Arial-BoldMT-73" d="M 150 947 
L 1031 1081 
Q 1088 825 1259 692 
Q 1431 559 1741 559 
Q 2081 559 2253 684 
Q 2369 772 2369 919 
Q 2369 1019 2306 1084 
Q 2241 1147 2013 1200 
Q 950 1434 666 1628 
Q 272 1897 272 2375 
Q 272 2806 612 3100 
Q 953 3394 1669 3394 
Q 2350 3394 2681 3172 
Q 3013 2950 3138 2516 
L 2309 2363 
Q 2256 2556 2107 2659 
Q 1959 2763 1684 2763 
Q 1338 2763 1188 2666 
Q 1088 2597 1088 2488 
Q 1088 2394 1175 2328 
Q 1294 2241 1995 2081 
Q 2697 1922 2975 1691 
Q 3250 1456 3250 1038 
Q 3250 581 2869 253 
Q 2488 -75 1741 -75 
Q 1063 -75 667 200 
Q 272 475 150 947 
z
" transform="scale(0.015625)"/>
      <path id="Arial-BoldMT-65" d="M 2381 1056 
L 3256 909 
Q 3088 428 2723 176 
Q 2359 -75 1813 -75 
Q 947 -75 531 491 
Q 203 944 203 1634 
Q 203 2459 634 2926 
Q 1066 3394 1725 3394 
Q 2466 3394 2894 2905 
Q 3322 2416 3303 1406 
L 1103 1406 
Q 1113 1016 1316 798 
Q 1519 581 1822 581 
Q 2028 581 2168 693 
Q 2309 806 2381 1056 
z
M 2431 1944 
Q 2422 2325 2234 2523 
Q 2047 2722 1778 2722 
Q 1491 2722 1303 2513 
Q 1116 2303 1119 1944 
L 2431 1944 
z
" transform="scale(0.015625)"/>
      <path id="Arial-BoldMT-6c" d="M 459 0 
L 459 4581 
L 1338 4581 
L 1338 0 
L 459 0 
z
" transform="scale(0.015625)"/>
      <path id="Arial-BoldMT-63" d="M 3353 2338 
L 2488 2181 
Q 2444 2441 2289 2572 
Q 2134 2703 1888 2703 
Q 1559 2703 1364 2476 
Q 1169 2250 1169 1719 
Q 1169 1128 1367 884 
Q 1566 641 1900 641 
Q 2150 641 2309 783 
Q 2469 925 2534 1272 
L 3397 1125 
Q 3263 531 2881 228 
Q 2500 -75 1859 -75 
Q 1131 -75 698 384 
Q 266 844 266 1656 
Q 266 2478 700 2936 
Q 1134 3394 1875 3394 
Q 2481 3394 2839 3133 
Q 3197 2872 3353 2338 
z
" transform="scale(0.015625)"/>
      <path id="Arial-BoldMT-74" d="M 1981 3319 
L 1981 2619 
L 1381 2619 
L 1381 1281 
Q 1381 875 1398 808 
Q 1416 741 1477 697 
Q 1538 653 1625 653 
Q 1747 653 1978 738 
L 2053 56 
Q 1747 -75 1359 -75 
Q 1122 -75 931 4 
Q 741 84 652 211 
Q 563 338 528 553 
Q 500 706 500 1172 
L 500 2619 
L 97 2619 
L 97 3319 
L 500 3319 
L 500 3978 
L 1381 4491 
L 1381 3319 
L 1981 3319 
z
" transform="scale(0.015625)"/>
      <path id="Arial-BoldMT-64" d="M 3503 0 
L 2688 0 
L 2688 488 
Q 2484 203 2207 64 
Q 1931 -75 1650 -75 
Q 1078 -75 670 386 
Q 263 847 263 1672 
Q 263 2516 659 2955 
Q 1056 3394 1663 3394 
Q 2219 3394 2625 2931 
L 2625 4581 
L 3503 4581 
L 3503 0 
z
M 1159 1731 
Q 1159 1200 1306 963 
Q 1519 619 1900 619 
Q 2203 619 2415 876 
Q 2628 1134 2628 1647 
Q 2628 2219 2422 2470 
Q 2216 2722 1894 2722 
Q 1581 2722 1370 2473 
Q 1159 2225 1159 1731 
z
" transform="scale(0.015625)"/>
      <path id="Arial-BoldMT-20" transform="scale(0.015625)"/>
      <path id="Arial-BoldMT-28" d="M 1916 -1347 
L 1313 -1347 
Q 834 -625 584 153 
Q 334 931 334 1659 
Q 334 2563 644 3369 
Q 913 4069 1325 4659 
L 1925 4659 
Q 1497 3713 1336 3048 
Q 1175 2384 1175 1641 
Q 1175 1128 1270 590 
Q 1366 53 1531 -431 
Q 1641 -750 1916 -1347 
z
" transform="scale(0.015625)"/>
      <path id="Arial-BoldMT-6e" d="M 3478 0 
L 2600 0 
L 2600 1694 
Q 2600 2231 2544 2389 
Q 2488 2547 2361 2634 
Q 2234 2722 2056 2722 
Q 1828 2722 1647 2597 
Q 1466 2472 1398 2265 
Q 1331 2059 1331 1503 
L 1331 0 
L 453 0 
L 453 3319 
L 1269 3319 
L 1269 2831 
Q 1703 3394 2363 3394 
Q 2653 3394 2893 3289 
Q 3134 3184 3257 3021 
Q 3381 2859 3429 2653 
Q 3478 2447 3478 2063 
L 3478 0 
z
" transform="scale(0.015625)"/>
      <path id="Arial-BoldMT-72" d="M 1300 0 
L 422 0 
L 422 3319 
L 1238 3319 
L 1238 2847 
Q 1447 3181 1614 3287 
Q 1781 3394 1994 3394 
Q 2294 3394 2572 3228 
L 2300 2463 
Q 2078 2606 1888 2606 
Q 1703 2606 1575 2504 
Q 1447 2403 1373 2137 
Q 1300 1872 1300 1025 
L 1300 0 
z
" transform="scale(0.015625)"/>
      <path id="Arial-BoldMT-6f" d="M 256 1706 
Q 256 2144 472 2553 
Q 688 2963 1083 3178 
Q 1478 3394 1966 3394 
Q 2719 3394 3200 2905 
Q 3681 2416 3681 1669 
Q 3681 916 3195 420 
Q 2709 -75 1972 -75 
Q 1516 -75 1102 131 
Q 688 338 472 736 
Q 256 1134 256 1706 
z
M 1156 1659 
Q 1156 1166 1390 903 
Q 1625 641 1969 641 
Q 2313 641 2545 903 
Q 2778 1166 2778 1666 
Q 2778 2153 2545 2415 
Q 2313 2678 1969 2678 
Q 1625 2678 1390 2415 
Q 1156 2153 1156 1659 
z
" transform="scale(0.015625)"/>
      <path id="Arial-BoldMT-70" d="M 434 3319 
L 1253 3319 
L 1253 2831 
Q 1413 3081 1684 3237 
Q 1956 3394 2288 3394 
Q 2866 3394 3269 2941 
Q 3672 2488 3672 1678 
Q 3672 847 3265 386 
Q 2859 -75 2281 -75 
Q 2006 -75 1782 34 
Q 1559 144 1313 409 
L 1313 -1263 
L 434 -1263 
L 434 3319 
z
M 1303 1716 
Q 1303 1156 1525 889 
Q 1747 622 2066 622 
Q 2372 622 2575 867 
Q 2778 1113 2778 1672 
Q 2778 2194 2568 2447 
Q 2359 2700 2050 2700 
Q 1728 2700 1515 2451 
Q 1303 2203 1303 1716 
z
" transform="scale(0.015625)"/>
      <path id="Arial-BoldMT-79" d="M 44 3319 
L 978 3319 
L 1772 963 
L 2547 3319 
L 3456 3319 
L 2284 125 
L 2075 -453 
Q 1959 -744 1854 -897 
Q 1750 -1050 1614 -1145 
Q 1478 -1241 1279 -1294 
Q 1081 -1347 831 -1347 
Q 578 -1347 334 -1294 
L 256 -606 
Q 463 -647 628 -647 
Q 934 -647 1081 -467 
Q 1228 -288 1306 -9 
L 44 3319 
z
" transform="scale(0.015625)"/>
      <path id="Arial-BoldMT-29" d="M 216 -1347 
Q 475 -791 581 -494 
Q 688 -197 778 190 
Q 869 578 912 926 
Q 956 1275 956 1641 
Q 956 2384 797 3048 
Q 638 3713 209 4659 
L 806 4659 
Q 1278 3988 1539 3234 
Q 1800 2481 1800 1706 
Q 1800 1053 1594 306 
Q 1359 -531 822 -1347 
L 216 -1347 
z
" transform="scale(0.015625)"/>
     </defs>
     <use xlink:href="#Arial-BoldMT-54"/>
     <use xlink:href="#Arial-BoldMT-4f" transform="translate(59.333984 0)"/>
     <use xlink:href="#Arial-BoldMT-50" transform="translate(137.117188 0)"/>
     <use xlink:href="#Arial-BoldMT-53" transform="translate(203.816406 0)"/>
     <use xlink:href="#Arial-BoldMT-49" transform="translate(270.515625 0)"/>
     <use xlink:href="#Arial-BoldMT-53" transform="translate(298.298828 0)"/>
     <use xlink:href="#Arial-BoldMT-2d" transform="translate(364.998047 0)"/>
     <use xlink:href="#Arial-BoldMT-73" transform="translate(398.298828 0)"/>
     <use xlink:href="#Arial-BoldMT-65" transform="translate(453.914062 0)"/>
     <use xlink:href="#Arial-BoldMT-6c" transform="translate(509.529297 0)"/>
     <use xlink:href="#Arial-BoldMT-65" transform="translate(537.3125 0)"/>
     <use xlink:href="#Arial-BoldMT-63" transform="translate(592.927734 0)"/>
     <use xlink:href="#Arial-BoldMT-74" transform="translate(648.542969 0)"/>
     <use xlink:href="#Arial-BoldMT-65" transform="translate(681.84375 0)"/>
     <use xlink:href="#Arial-BoldMT-64" transform="translate(737.458984 0)"/>
     <use xlink:href="#Arial-BoldMT-20" transform="translate(798.542969 0)"/>
     <use xlink:href="#Arial-BoldMT-28" transform="translate(826.326172 0)"/>
     <use xlink:href="#Arial-BoldMT-65" transform="translate(859.626953 0)"/>
     <use xlink:href="#Arial-BoldMT-6e" transform="translate(915.242188 0)"/>
     <use xlink:href="#Arial-BoldMT-74" transform="translate(976.326172 0)"/>
     <use xlink:href="#Arial-BoldMT-72" transform="translate(1009.626953 0)"/>
     <use xlink:href="#Arial-BoldMT-6f" transform="translate(1048.542969 0)"/>
     <use xlink:href="#Arial-BoldMT-70" transform="translate(1109.626953 0)"/>
     <use xlink:href="#Arial-BoldMT-79" transform="translate(1170.710938 0)"/>
     <use xlink:href="#Arial-BoldMT-29" transform="translate(1226.326172 0)"/>
    </g>
    <!-- 117.6 kWh/m²/yr · $896k · 7.97 ktCO2e -->
    <g style="fill: #0b0b0b" transform="translate(131.360185 63.423747) scale(0.115 -0.115)">
     <defs>
      <path id="Arial-BoldMT-31" d="M 2519 0 
L 1641 0 
L 1641 3309 
Q 1159 2859 506 2644 
L 506 3441 
Q 850 3553 1253 3867 
Q 1656 4181 1806 4600 
L 2519 4600 
L 2519 0 
z
" transform="scale(0.015625)"/>
      <path id="Arial-BoldMT-37" d="M 272 3703 
L 272 4519 
L 3275 4519 
L 3275 3881 
Q 2903 3516 2518 2831 
Q 2134 2147 1932 1376 
Q 1731 606 1734 0 
L 888 0 
Q 909 950 1279 1937 
Q 1650 2925 2269 3703 
L 272 3703 
z
" transform="scale(0.015625)"/>
      <path id="Arial-BoldMT-2e" d="M 459 0 
L 459 878 
L 1338 878 
L 1338 0 
L 459 0 
z
" transform="scale(0.015625)"/>
      <path id="Arial-BoldMT-36" d="M 3247 3459 
L 2397 3366 
Q 2366 3628 2234 3753 
Q 2103 3878 1894 3878 
Q 1616 3878 1423 3628 
Q 1231 3378 1181 2588 
Q 1509 2975 1997 2975 
Q 2547 2975 2939 2556 
Q 3331 2138 3331 1475 
Q 3331 772 2918 347 
Q 2506 -78 1859 -78 
Q 1166 -78 719 461 
Q 272 1000 272 2228 
Q 272 3488 737 4044 
Q 1203 4600 1947 4600 
Q 2469 4600 2811 4308 
Q 3153 4016 3247 3459 
z
M 1256 1544 
Q 1256 1116 1453 883 
Q 1650 650 1903 650 
Q 2147 650 2309 840 
Q 2472 1031 2472 1466 
Q 2472 1913 2297 2120 
Q 2122 2328 1859 2328 
Q 1606 2328 1431 2129 
Q 1256 1931 1256 1544 
z
" transform="scale(0.015625)"/>
      <path id="Arial-BoldMT-6b" d="M 428 0 
L 428 4581 
L 1306 4581 
L 1306 2150 
L 2334 3319 
L 3416 3319 
L 2281 2106 
L 3497 0 
L 2550 0 
L 1716 1491 
L 1306 1063 
L 1306 0 
L 428 0 
z
" transform="scale(0.015625)"/>
      <path id="Arial-BoldMT-57" d="M 1116 0 
L 22 4581 
L 969 4581 
L 1659 1434 
L 2497 4581 
L 3597 4581 
L 4400 1381 
L 5103 4581 
L 6034 4581 
L 4922 0 
L 3941 0 
L 3028 3425 
L 2119 0 
L 1116 0 
z
" transform="scale(0.015625)"/>
      <path id="Arial-BoldMT-68" d="M 1334 4581 
L 1334 2897 
Q 1759 3394 2350 3394 
Q 2653 3394 2897 3281 
Q 3141 3169 3264 2994 
Q 3388 2819 3433 2606 
Q 3478 2394 3478 1947 
L 3478 0 
L 2600 0 
L 2600 1753 
Q 2600 2275 2550 2415 
Q 2500 2556 2373 2639 
Q 2247 2722 2056 2722 
Q 1838 2722 1666 2615 
Q 1494 2509 1414 2295 
Q 1334 2081 1334 1663 
L 1334 0 
L 456 0 
L 456 4581 
L 1334 4581 
z
" transform="scale(0.015625)"/>
      <path id="Arial-BoldMT-2f" d="M -9 -78 
L 1125 4659 
L 1784 4659 
L 638 -78 
L -9 -78 
z
" transform="scale(0.015625)"/>
      <path id="Arial-BoldMT-6d" d="M 394 3319 
L 1203 3319 
L 1203 2866 
Q 1638 3394 2238 3394 
Q 2556 3394 2790 3262 
Q 3025 3131 3175 2866 
Q 3394 3131 3647 3262 
Q 3900 3394 4188 3394 
Q 4553 3394 4806 3245 
Q 5059 3097 5184 2809 
Q 5275 2597 5275 2122 
L 5275 0 
L 4397 0 
L 4397 1897 
Q 4397 2391 4306 2534 
Q 4184 2722 3931 2722 
Q 3747 2722 3584 2609 
Q 3422 2497 3350 2280 
Q 3278 2063 3278 1594 
L 3278 0 
L 2400 0 
L 2400 1819 
Q 2400 2303 2353 2443 
Q 2306 2584 2207 2653 
Q 2109 2722 1941 2722 
Q 1738 2722 1575 2612 
Q 1413 2503 1342 2297 
Q 1272 2091 1272 1613 
L 1272 0 
L 394 0 
L 394 3319 
z
" transform="scale(0.015625)"/>
      <path id="Arial-BoldMT-b2" d="M 1975 2766 
L 1975 2272 
L 78 2272 
Q 113 2538 248 2747 
Q 384 2956 856 3328 
Q 1213 3606 1284 3697 
Q 1381 3816 1381 3938 
Q 1381 4053 1303 4122 
Q 1225 4191 1066 4191 
Q 906 4191 828 4114 
Q 750 4038 731 3831 
L 141 3881 
Q 188 4247 375 4416 
Q 625 4638 1081 4638 
Q 1516 4638 1745 4438 
Q 1975 4238 1975 3966 
Q 1975 3797 1903 3645 
Q 1831 3494 1675 3331 
Q 1594 3250 1253 2981 
Q 1072 2841 994 2766 
L 1975 2766 
z
" transform="scale(0.015625)"/>
      <path id="Arial-BoldMT-b7" d="M 625 1791 
L 625 2669 
L 1503 2669 
L 1503 1791 
L 625 1791 
z
" transform="scale(0.015625)"/>
      <path id="Arial-BoldMT-24" d="M 1528 678 
L 1528 1988 
Q 916 2163 630 2517 
Q 344 2872 344 3378 
Q 344 3891 667 4239 
Q 991 4588 1528 4641 
L 1528 4950 
L 1981 4950 
L 1981 4641 
Q 2478 4581 2772 4301 
Q 3066 4022 3147 3553 
L 2356 3450 
Q 2284 3819 1981 3950 
L 1981 2728 
Q 2731 2525 3003 2201 
Q 3275 1878 3275 1372 
Q 3275 806 2933 418 
Q 2591 31 1981 -56 
L 1981 -641 
L 1528 -641 
L 1528 -72 
Q 988 -6 650 331 
Q 313 669 219 1284 
L 1034 1372 
Q 1084 1122 1221 940 
Q 1359 759 1528 678 
z
M 1528 3959 
Q 1344 3897 1234 3747 
Q 1125 3597 1125 3416 
Q 1125 3250 1225 3108 
Q 1325 2966 1528 2878 
L 1528 3959 
z
M 1981 634 
Q 2216 678 2362 851 
Q 2509 1025 2509 1259 
Q 2509 1469 2386 1620 
Q 2263 1772 1981 1853 
L 1981 634 
z
" transform="scale(0.015625)"/>
      <path id="Arial-BoldMT-38" d="M 1025 2472 
Q 684 2616 529 2867 
Q 375 3119 375 3419 
Q 375 3931 733 4265 
Q 1091 4600 1750 4600 
Q 2403 4600 2764 4265 
Q 3125 3931 3125 3419 
Q 3125 3100 2959 2851 
Q 2794 2603 2494 2472 
Q 2875 2319 3073 2025 
Q 3272 1731 3272 1347 
Q 3272 713 2867 316 
Q 2463 -81 1791 -81 
Q 1166 -81 750 247 
Q 259 634 259 1309 
Q 259 1681 443 1992 
Q 628 2303 1025 2472 
z
M 1206 3356 
Q 1206 3094 1354 2947 
Q 1503 2800 1750 2800 
Q 2000 2800 2150 2948 
Q 2300 3097 2300 3359 
Q 2300 3606 2151 3754 
Q 2003 3903 1759 3903 
Q 1506 3903 1356 3753 
Q 1206 3603 1206 3356 
z
M 1125 1394 
Q 1125 1031 1311 828 
Q 1497 625 1775 625 
Q 2047 625 2225 820 
Q 2403 1016 2403 1384 
Q 2403 1706 2222 1901 
Q 2041 2097 1763 2097 
Q 1441 2097 1283 1875 
Q 1125 1653 1125 1394 
z
" transform="scale(0.015625)"/>
      <path id="Arial-BoldMT-39" d="M 291 1059 
L 1141 1153 
Q 1172 894 1303 769 
Q 1434 644 1650 644 
Q 1922 644 2112 894 
Q 2303 1144 2356 1931 
Q 2025 1547 1528 1547 
Q 988 1547 595 1964 
Q 203 2381 203 3050 
Q 203 3747 617 4173 
Q 1031 4600 1672 4600 
Q 2369 4600 2816 4061 
Q 3263 3522 3263 2288 
Q 3263 1031 2797 475 
Q 2331 -81 1584 -81 
Q 1047 -81 715 205 
Q 384 491 291 1059 
z
M 2278 2978 
Q 2278 3403 2083 3637 
Q 1888 3872 1631 3872 
Q 1388 3872 1227 3680 
Q 1066 3488 1066 3050 
Q 1066 2606 1241 2398 
Q 1416 2191 1678 2191 
Q 1931 2191 2104 2391 
Q 2278 2591 2278 2978 
z
" transform="scale(0.015625)"/>
      <path id="Arial-BoldMT-43" d="M 3397 1684 
L 4294 1400 
Q 4088 650 3608 286 
Q 3128 -78 2391 -78 
Q 1478 -78 890 545 
Q 303 1169 303 2250 
Q 303 3394 893 4026 
Q 1484 4659 2447 4659 
Q 3288 4659 3813 4163 
Q 4125 3869 4281 3319 
L 3366 3100 
Q 3284 3456 3026 3662 
Q 2769 3869 2400 3869 
Q 1891 3869 1573 3503 
Q 1256 3138 1256 2319 
Q 1256 1450 1568 1081 
Q 1881 713 2381 713 
Q 2750 713 3015 947 
Q 3281 1181 3397 1684 
z
" transform="scale(0.015625)"/>
      <path id="Arial-BoldMT-32" d="M 3238 816 
L 3238 0 
L 159 0 
Q 209 463 459 877 
Q 709 1291 1447 1975 
Q 2041 2528 2175 2725 
Q 2356 2997 2356 3263 
Q 2356 3556 2198 3714 
Q 2041 3872 1763 3872 
Q 1488 3872 1325 3706 
Q 1163 3541 1138 3156 
L 263 3244 
Q 341 3969 753 4284 
Q 1166 4600 1784 4600 
Q 2463 4600 2850 4234 
Q 3238 3869 3238 3325 
Q 3238 3016 3127 2736 
Q 3016 2456 2775 2150 
Q 2616 1947 2200 1565 
Q 1784 1184 1673 1059 
Q 1563 934 1494 816 
L 3238 816 
z
" transform="scale(0.015625)"/>
     </defs>
     <use xlink:href="#Arial-BoldMT-31"/>
     <use xlink:href="#Arial-BoldMT-31" transform="translate(50.115234 0)"/>
     <use xlink:href="#Arial-BoldMT-37" transform="translate(105.730469 0)"/>
     <use xlink:href="#Arial-BoldMT-2e" transform="translate(161.345703 0)"/>
     <use xlink:href="#Arial-BoldMT-36" transform="translate(189.128906 0)"/>
     <use xlink:href="#Arial-BoldMT-20" transform="translate(244.744141 0)"/>
     <use xlink:href="#Arial-BoldMT-6b" transform="translate(272.527344 0)"/>
     <use xlink:href="#Arial-BoldMT-57" transform="translate(328.142578 0)"/>
     <use xlink:href="#Arial-BoldMT-68" transform="translate(422.527344 0)"/>
     <use xlink:href="#Arial-BoldMT-2f" transform="translate(483.611328 0)"/>
     <use xlink:href="#Arial-BoldMT-6d" transform="translate(511.394531 0)"/>
     <use xlink:href="#Arial-BoldMT-b2" transform="translate(600.310547 0)"/>
     <use xlink:href="#Arial-BoldMT-2f" transform="translate(633.611328 0)"/>
     <use xlink:href="#Arial-BoldMT-79" transform="translate(661.394531 0)"/>
     <use xlink:href="#Arial-BoldMT-72" transform="translate(717.009766 0)"/>
     <use xlink:href="#Arial-BoldMT-20" transform="translate(755.925781 0)"/>
     <use xlink:href="#Arial-BoldMT-b7" transform="translate(783.708984 0)"/>
     <use xlink:href="#Arial-BoldMT-20" transform="translate(817.009766 0)"/>
     <use xlink:href="#Arial-BoldMT-24" transform="translate(844.792969 0)"/>
     <use xlink:href="#Arial-BoldMT-38" transform="translate(900.408203 0)"/>
     <use xlink:href="#Arial-BoldMT-39" transform="translate(956.023438 0)"/>
     <use xlink:href="#Arial-BoldMT-36" transform="translate(1011.638672 0)"/>
     <use xlink:href="#Arial-BoldMT-6b" transform="translate(1067.253906 0)"/>
     <use xlink:href="#Arial-BoldMT-20" transform="translate(1122.869141 0)"/>
     <use xlink:href="#Arial-BoldMT-b7" transform="translate(1150.652344 0)"/>
     <use xlink:href="#Arial-BoldMT-20" transform="translate(1183.953125 0)"/>
     <use xlink:href="#Arial-BoldMT-37" transform="translate(1211.736328 0)"/>
     <use xlink:href="#Arial-BoldMT-2e" transform="translate(1267.351562 0)"/>
     <use xlink:href="#Arial-BoldMT-39" transform="translate(1295.134766 0)"/>
     <use xlink:href="#Arial-BoldMT-37" transform="translate(1350.75 0)"/>
     <use xlink:href="#Arial-BoldMT-20" transform="translate(1406.365234 0)"/>
     <use xlink:href="#Arial-BoldMT-6b" transform="translate(1434.148438 0)"/>
     <use xlink:href="#Arial-BoldMT-74" transform="translate(1489.763672 0)"/>
     <use xlink:href="#Arial-BoldMT-43" transform="translate(1523.064453 0)"/>
     <use xlink:href="#Arial-BoldMT-4f" transform="translate(1595.28125 0)"/>
     <use xlink:href="#Arial-BoldMT-32" transform="translate(1673.064453 0)"/>
     <use xlink:href="#Arial-BoldMT-65" transform="translate(1728.679688 0)"/>
    </g>
   </g>
   <g id="text_24">
    <!-- Pareto front under the worst-case 2080s climate (+4.47 °C) -->
    <g style="fill: #0b0b0b" transform="translate(7.2 32.214528) scale(0.16 -0.16)">
     <defs>
      <path id="Arial-BoldMT-61" d="M 1116 2306 
L 319 2450 
Q 453 2931 781 3162 
Q 1109 3394 1756 3394 
Q 2344 3394 2631 3255 
Q 2919 3116 3036 2902 
Q 3153 2688 3153 2116 
L 3144 1091 
Q 3144 653 3186 445 
Q 3228 238 3344 0 
L 2475 0 
Q 2441 88 2391 259 
Q 2369 338 2359 363 
Q 2134 144 1878 34 
Q 1622 -75 1331 -75 
Q 819 -75 523 203 
Q 228 481 228 906 
Q 228 1188 362 1408 
Q 497 1628 739 1745 
Q 981 1863 1438 1950 
Q 2053 2066 2291 2166 
L 2291 2253 
Q 2291 2506 2166 2614 
Q 2041 2722 1694 2722 
Q 1459 2722 1328 2630 
Q 1197 2538 1116 2306 
z
M 2291 1594 
Q 2122 1538 1756 1459 
Q 1391 1381 1278 1306 
Q 1106 1184 1106 997 
Q 1106 813 1243 678 
Q 1381 544 1594 544 
Q 1831 544 2047 700 
Q 2206 819 2256 991 
Q 2291 1103 2291 1419 
L 2291 1594 
z
" transform="scale(0.015625)"/>
      <path id="Arial-BoldMT-66" d="M 75 3319 
L 563 3319 
L 563 3569 
Q 563 3988 652 4194 
Q 741 4400 980 4529 
Q 1219 4659 1584 4659 
Q 1959 4659 2319 4547 
L 2200 3934 
Q 1991 3984 1797 3984 
Q 1606 3984 1523 3895 
Q 1441 3806 1441 3553 
L 1441 3319 
L 2097 3319 
L 2097 2628 
L 1441 2628 
L 1441 0 
L 563 0 
L 563 2628 
L 75 2628 
L 75 3319 
z
" transform="scale(0.015625)"/>
      <path id="Arial-BoldMT-75" d="M 2644 0 
L 2644 497 
Q 2463 231 2167 78 
Q 1872 -75 1544 -75 
Q 1209 -75 943 72 
Q 678 219 559 484 
Q 441 750 441 1219 
L 441 3319 
L 1319 3319 
L 1319 1794 
Q 1319 1094 1367 936 
Q 1416 778 1544 686 
Q 1672 594 1869 594 
Q 2094 594 2272 717 
Q 2450 841 2515 1023 
Q 2581 1206 2581 1919 
L 2581 3319 
L 3459 3319 
L 3459 0 
L 2644 0 
z
" transform="scale(0.015625)"/>
      <path id="Arial-BoldMT-77" d="M 1078 0 
L 28 3319 
L 881 3319 
L 1503 1144 
L 2075 3319 
L 2922 3319 
L 3475 1144 
L 4109 3319 
L 4975 3319 
L 3909 0 
L 3066 0 
L 2494 2134 
L 1931 0 
L 1078 0 
z
" transform="scale(0.015625)"/>
      <path id="Arial-BoldMT-30" d="M 1756 4600 
Q 2422 4600 2797 4125 
Q 3244 3563 3244 2259 
Q 3244 959 2794 391 
Q 2422 -78 1756 -78 
Q 1088 -78 678 436 
Q 269 950 269 2269 
Q 269 3563 719 4131 
Q 1091 4600 1756 4600 
z
M 1756 3872 
Q 1597 3872 1472 3770 
Q 1347 3669 1278 3406 
Q 1188 3066 1188 2259 
Q 1188 1453 1269 1151 
Q 1350 850 1473 750 
Q 1597 650 1756 650 
Q 1916 650 2041 751 
Q 2166 853 2234 1116 
Q 2325 1453 2325 2259 
Q 2325 3066 2244 3367 
Q 2163 3669 2039 3770 
Q 1916 3872 1756 3872 
z
" transform="scale(0.015625)"/>
      <path id="Arial-BoldMT-69" d="M 459 3769 
L 459 4581 
L 1338 4581 
L 1338 3769 
L 459 3769 
z
M 459 0 
L 459 3319 
L 1338 3319 
L 1338 0 
L 459 0 
z
" transform="scale(0.015625)"/>
      <path id="Arial-BoldMT-2b" d="M 1466 659 
L 1466 1850 
L 266 1850 
L 266 2672 
L 1466 2672 
L 1466 3863 
L 2266 3863 
L 2266 2672 
L 3469 2672 
L 3469 1850 
L 2266 1850 
L 2266 659 
L 1466 659 
z
" transform="scale(0.015625)"/>
      <path id="Arial-BoldMT-34" d="M 1994 0 
L 1994 922 
L 119 922 
L 119 1691 
L 2106 4600 
L 2844 4600 
L 2844 1694 
L 3413 1694 
L 3413 922 
L 2844 922 
L 2844 0 
L 1994 0 
z
M 1994 1694 
L 1994 3259 
L 941 1694 
L 1994 1694 
z
" transform="scale(0.015625)"/>
      <path id="Arial-BoldMT-b0" d="M 269 3663 
Q 269 4078 561 4368 
Q 853 4659 1266 4659 
Q 1678 4659 1970 4367 
Q 2263 4075 2263 3663 
Q 2263 3250 1970 2958 
Q 1678 2666 1266 2666 
Q 853 2666 561 2958 
Q 269 3250 269 3663 
z
M 788 3663 
Q 788 3466 928 3325 
Q 1069 3184 1266 3184 
Q 1463 3184 1603 3325 
Q 1744 3466 1744 3663 
Q 1744 3859 1603 4000 
Q 1463 4141 1266 4141 
Q 1069 4141 928 4000 
Q 788 3859 788 3663 
z
" transform="scale(0.015625)"/>
     </defs>
     <use xlink:href="#Arial-BoldMT-50"/>
     <use xlink:href="#Arial-BoldMT-61" transform="translate(66.699219 0)"/>
     <use xlink:href="#Arial-BoldMT-72" transform="translate(122.314453 0)"/>
     <use xlink:href="#Arial-BoldMT-65" transform="translate(161.230469 0)"/>
     <use xlink:href="#Arial-BoldMT-74" transform="translate(216.845703 0)"/>
     <use xlink:href="#Arial-BoldMT-6f" transform="translate(250.146484 0)"/>
     <use xlink:href="#Arial-BoldMT-20" transform="translate(311.230469 0)"/>
     <use xlink:href="#Arial-BoldMT-66" transform="translate(339.013672 0)"/>
     <use xlink:href="#Arial-BoldMT-72" transform="translate(372.314453 0)"/>
     <use xlink:href="#Arial-BoldMT-6f" transform="translate(411.230469 0)"/>
     <use xlink:href="#Arial-BoldMT-6e" transform="translate(472.314453 0)"/>
     <use xlink:href="#Arial-BoldMT-74" transform="translate(533.398438 0)"/>
     <use xlink:href="#Arial-BoldMT-20" transform="translate(566.699219 0)"/>
     <use xlink:href="#Arial-BoldMT-75" transform="translate(594.482422 0)"/>
     <use xlink:href="#Arial-BoldMT-6e" transform="translate(655.566406 0)"/>
     <use xlink:href="#Arial-BoldMT-64" transform="translate(716.650391 0)"/>
     <use xlink:href="#Arial-BoldMT-65" transform="translate(777.734375 0)"/>
     <use xlink:href="#Arial-BoldMT-72" transform="translate(833.349609 0)"/>
     <use xlink:href="#Arial-BoldMT-20" transform="translate(872.265625 0)"/>
     <use xlink:href="#Arial-BoldMT-74" transform="translate(900.048828 0)"/>
     <use xlink:href="#Arial-BoldMT-68" transform="translate(933.349609 0)"/>
     <use xlink:href="#Arial-BoldMT-65" transform="translate(994.433594 0)"/>
     <use xlink:href="#Arial-BoldMT-20" transform="translate(1050.048828 0)"/>
     <use xlink:href="#Arial-BoldMT-77" transform="translate(1077.832031 0)"/>
     <use xlink:href="#Arial-BoldMT-6f" transform="translate(1155.615234 0)"/>
     <use xlink:href="#Arial-BoldMT-72" transform="translate(1216.699219 0)"/>
     <use xlink:href="#Arial-BoldMT-73" transform="translate(1255.615234 0)"/>
     <use xlink:href="#Arial-BoldMT-74" transform="translate(1311.230469 0)"/>
     <use xlink:href="#Arial-BoldMT-2d" transform="translate(1344.53125 0)"/>
     <use xlink:href="#Arial-BoldMT-63" transform="translate(1377.832031 0)"/>
     <use xlink:href="#Arial-BoldMT-61" transform="translate(1433.447266 0)"/>
     <use xlink:href="#Arial-BoldMT-73" transform="translate(1489.0625 0)"/>
     <use xlink:href="#Arial-BoldMT-65" transform="translate(1544.677734 0)"/>
     <use xlink:href="#Arial-BoldMT-20" transform="translate(1600.292969 0)"/>
     <use xlink:href="#Arial-BoldMT-32" transform="translate(1628.076172 0)"/>
     <use xlink:href="#Arial-BoldMT-30" transform="translate(1683.691406 0)"/>
     <use xlink:href="#Arial-BoldMT-38" transform="translate(1739.306641 0)"/>
     <use xlink:href="#Arial-BoldMT-30" transform="translate(1794.921875 0)"/>
     <use xlink:href="#Arial-BoldMT-73" transform="translate(1850.537109 0)"/>
     <use xlink:href="#Arial-BoldMT-20" transform="translate(1906.152344 0)"/>
     <use xlink:href="#Arial-BoldMT-63" transform="translate(1933.935547 0)"/>
     <use xlink:href="#Arial-BoldMT-6c" transform="translate(1989.550781 0)"/>
     <use xlink:href="#Arial-BoldMT-69" transform="translate(2017.333984 0)"/>
     <use xlink:href="#Arial-BoldMT-6d" transform="translate(2045.117188 0)"/>
     <use xlink:href="#Arial-BoldMT-61" transform="translate(2134.033203 0)"/>
     <use xlink:href="#Arial-BoldMT-74" transform="translate(2189.648438 0)"/>
     <use xlink:href="#Arial-BoldMT-65" transform="translate(2222.949219 0)"/>
     <use xlink:href="#Arial-BoldMT-20" transform="translate(2278.564453 0)"/>
     <use xlink:href="#Arial-BoldMT-28" transform="translate(2306.347656 0)"/>
     <use xlink:href="#Arial-BoldMT-2b" transform="translate(2339.648438 0)"/>
     <use xlink:href="#Arial-BoldMT-34" transform="translate(2398.046875 0)"/>
     <use xlink:href="#Arial-BoldMT-2e" transform="translate(2453.662109 0)"/>
     <use xlink:href="#Arial-BoldMT-34" transform="translate(2481.445312 0)"/>
     <use xlink:href="#Arial-BoldMT-37" transform="translate(2537.060547 0)"/>
     <use xlink:href="#Arial-BoldMT-20" transform="translate(2592.675781 0)"/>
     <use xlink:href="#Arial-BoldMT-b0" transform="translate(2620.458984 0)"/>
     <use xlink:href="#Arial-BoldMT-43" transform="translate(2660.449219 0)"/>
     <use xlink:href="#Arial-BoldMT-29" transform="translate(2732.666016 0)"/>
    </g>
   </g>
  </g>
  <g id="text_25">
   <!-- LCE (ktCO2e) -->
   <g style="fill: #52514e" transform="translate(490.39685 226.314375) rotate(-90) scale(0.12 -0.12)">
    <defs>
     <path id="ArialMT-4f" d="M 309 2231 
Q 309 3372 921 4017 
Q 1534 4663 2503 4663 
Q 3138 4663 3647 4359 
Q 4156 4056 4423 3514 
Q 4691 2972 4691 2284 
Q 4691 1588 4409 1038 
Q 4128 488 3612 205 
Q 3097 -78 2500 -78 
Q 1853 -78 1343 234 
Q 834 547 571 1087 
Q 309 1628 309 2231 
z
M 934 2222 
Q 934 1394 1379 917 
Q 1825 441 2497 441 
Q 3181 441 3623 922 
Q 4066 1403 4066 2288 
Q 4066 2847 3877 3264 
Q 3688 3681 3323 3911 
Q 2959 4141 2506 4141 
Q 1863 4141 1398 3698 
Q 934 3256 934 2222 
z
" transform="scale(0.015625)"/>
    </defs>
    <use xlink:href="#ArialMT-4c"/>
    <use xlink:href="#ArialMT-43" transform="translate(55.615234 0)"/>
    <use xlink:href="#ArialMT-45" transform="translate(127.832031 0)"/>
    <use xlink:href="#ArialMT-20" transform="translate(194.53125 0)"/>
    <use xlink:href="#ArialMT-28" transform="translate(222.314453 0)"/>
    <use xlink:href="#ArialMT-6b" transform="translate(255.615234 0)"/>
    <use xlink:href="#ArialMT-74" transform="translate(305.615234 0)"/>
    <use xlink:href="#ArialMT-43" transform="translate(333.398438 0)"/>
    <use xlink:href="#ArialMT-4f" transform="translate(405.615234 0)"/>
    <use xlink:href="#ArialMT-32" transform="translate(483.398438 0)"/>
    <use xlink:href="#ArialMT-65" transform="translate(539.013672 0)"/>
    <use xlink:href="#ArialMT-29" transform="translate(594.628906 0)"/>
   </g>
  </g>
 </g>
 <defs>
  <clipPath id="p81c2b92474">
   <rect x="25.4225" y="7.2" width="406.08" height="406.08"/>
  </clipPath>
 </defs>
</svg>
